<svg width="1441" height="1024" viewBox="0 0 1441 1024" fill="none" xmlns="http://www.w3.org/2000/svg">
<path fill-rule="evenodd" clip-rule="evenodd" d="M69.0538 482.425V414.575H0.628906L0.628906 413.425H69.0538L69.0538 345.575H0.628906L0.628906 344.425H69.0538L69.0538 276.575H0.628906L0.628906 275.425H69.0538L69.0538 207.575H0.628906L0.628906 206.425H69.0538V138.575H0.628906L0.628906 137.425H69.0538L69.0538 69.5749L0.628906 69.5749L0.628906 68.4249L69.0538 68.4249L69.0538 0L70.2038 0L70.2038 68.4249L138.054 68.4249V0L139.204 0V68.4249H207.054V0L208.204 0V68.4249L276.054 68.4249V0L277.204 0V68.4249L345.054 68.4249V0L346.204 0V68.4249L414.054 68.4249V0L415.204 0V68.4249H483.054V0L484.204 0V68.4249L552.054 68.4249V0L553.204 0V68.4249L621.054 68.425V0L622.204 0V68.425L690.054 68.425V0L691.204 0V68.425L759.054 68.425V0L760.204 0V68.425H828.054V0L829.204 0V68.425L897.054 68.425V0L898.204 0V68.425L966.054 68.425V0L967.204 0V68.425L1035.05 68.425V0L1036.2 0V68.425L1104.05 68.425V0L1105.2 0V68.425L1173.05 68.425V0L1174.2 0V68.425L1242.05 68.425V0L1243.2 0V68.425L1311.05 68.425V0L1312.2 0V68.425L1380.05 68.425V0L1381.2 0V68.425L1449.05 68.425V0L1450.2 0V68.425L1518.05 68.425V0L1519.2 0V68.425L1587.05 68.425V0L1588.2 0V68.425L1656.63 68.425V69.575L1588.2 69.575V137.425H1656.63V138.575H1588.2V206.425H1656.63V207.575H1588.2V275.425L1656.63 275.425V276.575L1588.2 276.575V344.425L1656.63 344.425V345.575L1588.2 345.575V413.425L1656.63 413.425V414.575L1588.2 414.575V482.425L1656.63 482.425V483.575L1588.2 483.575V551.425H1656.63V552.575H1588.2L1588.2 620.425H1656.63V621.575H1588.2V689.425H1656.63V690.575H1588.2L1588.2 758.425H1656.63V759.575H1588.2V827.425H1656.63V828.575H1588.2V896.425H1656.63V897.575H1588.2V965.425H1656.63V966.575H1588.2V1034.43H1656.63V1035.57H1588.2V1103.43H1656.63V1104.57H1588.2V1172.43H1656.63V1173.57H1588.2V1241.43H1656.63V1242.57H1588.2V1310.43H1656.63V1311.57H1588.2V1379.43H1656.63V1380.57H1588.2V1448.43H1656.63V1449.57H1588.2V1517.43H1656.63V1518.57H1588.2V1586.43H1656.63V1587.57H1588.2V1656H1587.05V1587.57H1519.2V1656H1518.05V1587.57H1450.2V1656H1449.05V1587.57H1381.2V1656H1380.05V1587.57H1312.2V1656H1311.05V1587.57H1243.2V1656H1242.05V1587.57H1174.2V1656H1173.05V1587.57H1105.2V1656H1104.05V1587.57H1036.2V1656H1035.05V1587.57H967.204V1656H966.054V1587.57H898.204V1656H897.054V1587.57L829.204 1587.57V1656H828.054V1587.57H760.204V1656H759.054V1587.57L691.204 1587.57V1656H690.054V1587.57H622.204V1656H621.054V1587.57H553.204V1656H552.054V1587.57H484.204L484.204 1656H483.054L483.054 1587.57H415.204L415.204 1656H414.054L414.054 1587.57H346.204L346.204 1656H345.054L345.054 1587.57H277.204L277.204 1656H276.054L276.054 1587.57H208.204V1656H207.054V1587.57H139.204V1656H138.054V1587.57H70.2038L70.2038 1656H69.0538L69.0538 1587.57H0.628906L0.628906 1586.42H69.0538L69.0538 1518.57H0.628906L0.628906 1517.42H69.0538L69.0538 1449.57H0.628906L0.628906 1448.42H69.0538V1380.57H0.628906L0.628906 1379.42H69.0538L69.0538 1311.57H0.628906L0.628906 1310.42H69.0538L69.0538 1242.57H0.628906L0.628906 1241.42H69.0538L69.0538 1173.57H0.628906L0.628906 1172.42H69.0538L69.0538 1104.57H0.628906L0.628906 1103.42H69.0538V1035.57H0.628906L0.628906 1034.42H69.0538L69.0538 966.575H0.628906L0.628906 965.425H69.0538L69.0538 897.575H0.628906L0.628906 896.425H69.0538L69.0538 828.575H0.628906L0.628906 827.425H69.0538V759.575H0.628906L0.628906 758.425H69.0538L69.0538 690.575H0.628906L0.628906 689.425H69.0538L69.0538 621.575H0.628906L0.628906 620.425H69.0538L69.0538 552.575H0.628906L0.628906 551.425H69.0538L69.0538 483.575H0.628906L0.628906 482.425H69.0538ZM70.2038 1449.57L70.2038 1517.42H138.054L138.054 1449.57H70.2038ZM138.054 1448.42H70.2038V1380.57H138.054V1448.42ZM139.204 1449.57L139.204 1517.42H207.054L207.054 1449.57H139.204ZM207.054 1448.42H139.204V1380.57H207.054V1448.42ZM208.204 1449.57L208.204 1517.42H276.054V1449.57H208.204ZM276.054 1448.42H208.204V1380.57H276.054V1448.42ZM277.204 1449.57V1517.42H345.054V1449.57H277.204ZM345.054 1448.42H277.204V1380.57H345.054V1448.42ZM346.204 1449.57V1517.42H414.054V1449.57H346.204ZM414.054 1448.42H346.204V1380.57H414.054V1448.42ZM415.204 1449.57V1517.42H483.054V1449.57H415.204ZM483.054 1448.42H415.204V1380.57H483.054V1448.42ZM484.204 1449.57V1517.42H552.054V1449.57H484.204ZM552.054 1448.42H484.204V1380.57H552.054V1448.42ZM553.204 1449.57V1517.42H621.054V1449.57H553.204ZM621.054 1448.42H553.204V1380.57H621.054V1448.42ZM622.204 1449.57V1517.42H690.054V1449.57H622.204ZM690.054 1448.42H622.204V1380.57H690.054V1448.42ZM691.204 1449.57V1517.42L759.054 1517.42V1449.57L691.204 1449.57ZM759.054 1448.42L691.204 1448.42V1380.57L759.054 1380.57V1448.42ZM760.204 1449.57V1517.42H828.054V1449.57H760.204ZM828.054 1448.42H760.204V1380.57H828.054V1448.42ZM829.204 1449.57V1517.43L897.054 1517.43V1449.57L829.204 1449.57ZM897.054 1448.43L829.204 1448.43V1380.57L897.054 1380.57V1448.43ZM898.204 1449.57V1517.43H966.054V1449.57H898.204ZM966.054 1448.43H898.204V1380.57H966.054V1448.43ZM967.204 1449.57V1517.43H1035.05V1449.57H967.204ZM1035.05 1448.43H967.204V1380.57H1035.05V1448.43ZM1036.2 1449.57V1517.43H1104.05V1449.57H1036.2ZM1104.05 1448.43H1036.2V1380.57H1104.05V1448.43ZM1105.2 1449.57V1517.43H1173.05V1449.57H1105.2ZM1173.05 1448.43H1105.2V1380.57H1173.05V1448.43ZM1174.2 1449.57V1517.43H1242.05V1449.57H1174.2ZM1242.05 1448.43H1174.2V1380.57H1242.05V1448.43ZM1243.2 1449.57V1517.43H1311.05V1449.57H1243.2ZM1311.05 1448.43H1243.2V1380.57H1311.05V1448.43ZM1312.2 1449.57V1517.43H1380.05V1449.57H1312.2ZM1380.05 1448.43H1312.2V1380.57H1380.05V1448.43ZM1381.2 1449.57V1517.43H1449.05V1449.57H1381.2ZM1449.05 1448.43H1381.2V1380.57H1449.05V1448.43ZM1450.2 1449.57V1517.43H1518.05V1449.57H1450.2ZM1518.05 1448.43H1450.2V1380.57H1518.05V1448.43ZM1519.2 1449.57V1517.43H1587.05V1449.57H1519.2ZM1587.05 1448.43H1519.2V1380.57H1587.05V1448.43ZM1587.05 966.575V1034.43H1519.2V966.575H1587.05ZM1518.05 966.575V1034.43H1450.2V966.575H1518.05ZM1518.05 1035.57H1450.2V1103.43H1518.05V1035.57ZM1449.05 966.575V1034.43H1381.2V966.575H1449.05ZM1449.05 1035.57H1381.2V1103.43H1449.05V1035.57ZM1380.05 966.575V1034.43H1312.2V966.575H1380.05ZM1380.05 1035.57H1312.2V1103.43H1380.05V1035.57ZM1311.05 966.575V1034.43H1243.2V966.575H1311.05ZM1311.05 1035.57H1243.2V1103.43H1311.05V1035.57ZM1242.05 966.575V1034.43H1174.2V966.575H1242.05ZM1242.05 1035.57H1174.2V1103.43H1242.05V1035.57ZM1173.05 966.575V1034.43H1105.2V966.575H1173.05ZM1173.05 1035.57H1105.2V1103.43H1173.05V1035.57ZM1104.05 966.575V1034.43H1036.2V966.575L1104.05 966.575ZM1104.05 1035.57H1036.2V1103.43H1104.05V1035.57ZM1035.05 966.575V1034.43H967.204V966.575H1035.05ZM1035.05 1035.57H967.204L967.204 1103.43H1035.05V1035.57ZM966.054 966.575V1034.43H898.204V966.575H966.054ZM966.054 1035.57H898.204L898.204 1103.43H966.054L966.054 1035.57ZM897.054 966.575V1034.43L829.204 1034.43V966.575L897.054 966.575ZM897.054 1035.57L829.204 1035.57L829.204 1103.43L897.054 1103.43L897.054 1035.57ZM828.054 966.575V1034.42H760.204V966.575H828.054ZM828.054 1035.57H760.204L760.204 1103.42H828.054L828.054 1035.57ZM759.054 966.575V1034.42L691.204 1034.42V966.575H759.054ZM759.054 1035.57L691.204 1035.57L691.204 1103.42L759.054 1103.42L759.054 1035.57ZM690.054 966.575V1034.42H622.204V966.575H690.054ZM690.054 1035.57H622.204L622.204 1103.42H690.054L690.054 1035.57ZM621.054 966.575V1034.42H553.204V966.575H621.054ZM621.054 1035.57H553.204L553.204 1103.42H621.054L621.054 1035.57ZM552.054 966.575V1034.42H484.204V966.575H552.054ZM552.054 1035.57H484.204V1103.42H552.054L552.054 1035.57ZM483.054 966.575V1034.42H415.204V966.575H483.054ZM483.054 1035.57H415.204V1103.42H483.054V1035.57ZM414.054 966.575V1034.42H346.204V966.575L414.054 966.575ZM414.054 1035.57H346.204V1103.42H414.054V1035.57ZM345.054 966.575V1034.42H277.204V966.575H345.054ZM345.054 1035.57H277.204V1103.42H345.054V1035.57ZM276.054 966.575V1034.42H208.204L208.204 966.575H276.054ZM276.054 1035.57H208.204V1103.42H276.054V1035.57ZM207.054 966.575L207.054 1034.42H139.204L139.204 966.575H207.054ZM207.054 1035.57H139.204V1103.42H207.054V1035.57ZM138.054 966.575L138.054 1034.42H70.2038L70.2038 966.575H138.054ZM138.054 1035.57H70.2038V1103.42H138.054V1035.57ZM1587.05 1035.57H1519.2V1103.43H1587.05V1035.57ZM70.2038 483.575L70.2038 551.425H138.054V483.575H70.2038ZM138.054 482.425H70.2038V414.575H138.054L138.054 482.425ZM139.204 483.575V551.425H207.054V483.575L139.204 483.575ZM207.054 482.425L139.204 482.425L139.204 414.575L207.054 414.575L207.054 482.425ZM208.204 483.575V551.425H276.054L276.054 483.575H208.204ZM276.054 482.425H208.204L208.204 414.575H276.054V482.425ZM277.204 483.575L277.204 551.425H345.054L345.054 483.575H277.204ZM345.054 482.425H277.204V414.575H345.054V482.425ZM346.204 483.575L346.204 551.425L414.054 551.425L414.054 483.575H346.204ZM414.054 482.425H346.204V414.575H414.054V482.425ZM415.204 483.575L415.204 551.425H483.054L483.054 483.575H415.204ZM483.054 482.425H415.204V414.575H483.054V482.425ZM484.204 483.575L484.204 551.425H552.054V483.575L484.204 483.575ZM552.054 482.425L484.204 482.425V414.575L552.054 414.575V482.425ZM553.204 483.575V551.425H621.054V483.575H553.204ZM621.054 482.425H553.204V414.575H621.054V482.425ZM622.204 483.575V551.425H690.054V483.575H622.204ZM690.054 482.425H622.204V414.575H690.054V482.425ZM691.204 483.575V551.425H759.054V483.575H691.204ZM759.054 482.425H691.204V414.575H759.054V482.425ZM760.204 483.575V551.425H828.054V483.575H760.204ZM828.054 482.425H760.204V414.575H828.054V482.425ZM829.204 483.575V551.425L897.054 551.425V483.575L829.204 483.575ZM897.054 482.425L829.204 482.425V414.575L897.054 414.575V482.425ZM898.204 483.575V551.425H966.054V483.575H898.204ZM966.054 482.425H898.204V414.575H966.054V482.425ZM967.204 483.575V551.425H1035.05V483.575H967.204ZM1035.05 482.425H967.204V414.575H1035.05V482.425ZM1036.2 483.575V551.425L1104.05 551.425V483.575H1036.2ZM1104.05 482.425H1036.2V414.575H1104.05V482.425ZM1105.2 483.575V551.425H1173.05V483.575H1105.2ZM1173.05 482.425H1105.2V414.575H1173.05V482.425ZM1174.2 483.575V551.425H1242.05V483.575L1174.2 483.575ZM1242.05 482.425L1174.2 482.425V414.575L1242.05 414.575V482.425ZM1243.2 483.575V551.425H1311.05V483.575H1243.2ZM1311.05 482.425H1243.2V414.575H1311.05V482.425ZM1312.2 483.575V551.425H1380.05V483.575H1312.2ZM1380.05 482.425H1312.2V414.575H1380.05V482.425ZM1381.2 483.575V551.425H1449.05V483.575H1381.2ZM1449.05 482.425H1381.2V414.575H1449.05V482.425ZM1450.2 483.575V551.425H1518.05V483.575H1450.2ZM1518.05 482.425H1450.2V414.575H1518.05V482.425ZM1519.2 483.575V551.425H1587.05V483.575H1519.2ZM1587.05 482.425H1519.2V414.575H1587.05V482.425ZM1587.05 1518.57V1586.43H1519.2V1518.57H1587.05ZM1518.05 1518.57V1586.43H1450.2V1518.57H1518.05ZM1449.05 1518.57V1586.43H1381.2V1518.57H1449.05ZM1380.05 1518.57V1586.43H1312.2V1518.57H1380.05ZM1311.05 1518.57V1586.43H1243.2V1518.57H1311.05ZM1242.05 1518.57V1586.43H1174.2V1518.57H1242.05ZM1173.05 1518.57V1586.43H1105.2V1518.57H1173.05ZM1104.05 1518.57V1586.43H1036.2V1518.57H1104.05ZM1035.05 1518.57V1586.43H967.204V1518.57H1035.05ZM966.054 1518.57V1586.43H898.204V1518.57H966.054ZM897.054 1518.57V1586.43L829.204 1586.43V1518.57L897.054 1518.57ZM828.054 1518.57V1586.42H760.204V1518.57H828.054ZM759.054 1518.57V1586.42L691.204 1586.42V1518.57L759.054 1518.57ZM690.054 1518.57V1586.42H622.204V1518.57H690.054ZM621.054 1518.57V1586.42H553.204V1518.57H621.054ZM552.054 1518.57V1586.42H484.204V1518.57H552.054ZM483.054 1518.57V1586.42H415.204V1518.57H483.054ZM414.054 1518.57V1586.42H346.204V1518.57H414.054ZM345.054 1518.57V1586.42H277.204V1518.57H345.054ZM276.054 1518.57V1586.42H208.204V1518.57H276.054ZM207.054 1518.57V1586.42H139.204V1518.57H207.054ZM138.054 1518.57V1586.42H70.2038L70.2038 1518.57H138.054ZM1587.05 1104.57V1172.43H1519.2V1104.57H1587.05ZM1518.05 1104.57V1172.43H1450.2V1104.57H1518.05ZM1518.05 1173.57H1450.2V1241.43H1518.05V1173.57ZM1449.05 1104.57V1172.43H1381.2V1104.57H1449.05ZM1449.05 1173.57H1381.2V1241.43H1449.05V1173.57ZM1380.05 1104.57V1172.43H1312.2V1104.57H1380.05ZM1380.05 1173.57H1312.2V1241.43H1380.05V1173.57ZM1311.05 1104.57V1172.43H1243.2V1104.57H1311.05ZM1311.05 1173.57H1243.2V1241.43H1311.05V1173.57ZM1242.05 1104.57V1172.43H1174.2V1104.57H1242.05ZM1242.05 1173.57H1174.2V1241.43H1242.05V1173.57ZM1173.05 1104.57V1172.43H1105.2V1104.57H1173.05ZM1173.05 1173.57H1105.2V1241.43H1173.05V1173.57ZM1104.05 1104.57V1172.43H1036.2V1104.57H1104.05ZM1104.05 1173.57H1036.2V1241.43H1104.05V1173.57ZM1035.05 1104.57V1172.43H967.204V1104.57H1035.05ZM1035.05 1173.57H967.204V1241.43H1035.05V1173.57ZM966.054 1104.57V1172.43H898.204V1104.57H966.054ZM966.054 1173.57H898.204V1241.43H966.054V1173.57ZM897.054 1104.57V1172.43L829.204 1172.43V1104.57L897.054 1104.57ZM897.054 1173.57L829.204 1173.57V1241.43L897.054 1241.43V1173.57ZM828.054 1104.57V1172.42H760.204V1104.57H828.054ZM828.054 1173.57H760.204V1241.42H828.054V1173.57ZM759.054 1104.57V1172.42L691.204 1172.42V1104.57L759.054 1104.57ZM759.054 1173.57L691.204 1173.57V1241.42L759.054 1241.42V1173.57ZM690.054 1104.57V1172.42H622.204V1104.57H690.054ZM690.054 1173.57H622.204V1241.42H690.054V1173.57ZM621.054 1104.57V1172.42H553.204V1104.57H621.054ZM621.054 1173.57H553.204V1241.42H621.054V1173.57ZM552.054 1104.57V1172.42H484.204V1104.57H552.054ZM552.054 1173.57H484.204L484.204 1241.42H552.054V1173.57ZM483.054 1104.57V1172.42H415.204V1104.57H483.054ZM483.054 1173.57H415.204L415.204 1241.42H483.054L483.054 1173.57ZM414.054 1104.57V1172.42H346.204V1104.57H414.054ZM414.054 1173.57H346.204L346.204 1241.42H414.054L414.054 1173.57ZM345.054 1104.57V1172.42H277.204V1104.57H345.054ZM345.054 1173.57H277.204L277.204 1241.42H345.054L345.054 1173.57ZM276.054 1104.57V1172.42H208.204L208.204 1104.57H276.054ZM276.054 1173.57H208.204V1241.42H276.054L276.054 1173.57ZM207.054 1104.57L207.054 1172.42H139.204L139.204 1104.57H207.054ZM207.054 1173.57H139.204V1241.42H207.054V1173.57ZM138.054 1104.57L138.054 1172.42H70.2038L70.2038 1104.57H138.054ZM138.054 1173.57H70.2038L70.2038 1241.42H138.054V1173.57ZM1587.05 1173.57H1519.2V1241.43H1587.05V1173.57ZM70.2038 759.575V827.425H138.054L138.054 759.575H70.2038ZM138.054 758.425H70.2038L70.2038 690.575H138.054V758.425ZM139.204 759.575L139.204 827.425H207.054L207.054 759.575H139.204ZM207.054 758.425H139.204V690.575H207.054V758.425ZM208.204 759.575L208.204 827.425H276.054V759.575H208.204ZM276.054 758.425H208.204V690.575H276.054V758.425ZM277.204 759.575V827.425H345.054V759.575H277.204ZM345.054 758.425H277.204V690.575H345.054V758.425ZM346.204 759.575V827.425L414.054 827.425V759.575L346.204 759.575ZM414.054 758.425L346.204 758.425V690.575L414.054 690.575V758.425ZM415.204 759.575V827.425H483.054V759.575H415.204ZM483.054 758.425H415.204V690.575H483.054V758.425ZM484.204 759.575V827.425H552.054V759.575H484.204ZM552.054 758.425H484.204V690.575H552.054V758.425ZM553.204 759.575V827.425H621.054V759.575H553.204ZM621.054 758.425H553.204V690.575H621.054V758.425ZM622.204 759.575V827.425H690.054V759.575H622.204ZM690.054 758.425H622.204V690.575H690.054V758.425ZM691.204 759.575V827.425H759.054V759.575H691.204ZM759.054 758.425H691.204V690.575H759.054V758.425ZM760.204 759.575V827.425H828.054V759.575H760.204ZM828.054 758.425H760.204V690.575H828.054V758.425ZM829.204 759.575V827.425L897.054 827.425V759.575L829.204 759.575ZM897.054 758.425L829.204 758.425V690.575L897.054 690.575V758.425ZM898.204 759.575V827.425H966.054V759.575H898.204ZM966.054 758.425H898.204V690.575H966.054V758.425ZM967.204 759.575V827.425H1035.05V759.575H967.204ZM1035.05 758.425H967.204V690.575H1035.05L1035.05 758.425ZM1036.2 759.575V827.425L1104.05 827.425V759.575L1036.2 759.575ZM1104.05 758.425L1036.2 758.425L1036.2 690.575L1104.05 690.575L1104.05 758.425ZM1105.2 759.575V827.425H1173.05V759.575H1105.2ZM1173.05 758.425H1105.2L1105.2 690.575H1173.05L1173.05 758.425ZM1174.2 759.575V827.425H1242.05V759.575H1174.2ZM1242.05 758.425H1174.2L1174.2 690.575H1242.05L1242.05 758.425ZM1243.2 759.575V827.425H1311.05V759.575H1243.2ZM1311.05 758.425H1243.2L1243.2 690.575H1311.05L1311.05 758.425ZM1312.2 759.575V827.425H1380.05V759.575H1312.2ZM1380.05 758.425H1312.2L1312.2 690.575H1380.05L1380.05 758.425ZM1381.2 759.575V827.425H1449.05V759.575H1381.2ZM1449.05 758.425H1381.2L1381.2 690.575H1449.05L1449.05 758.425ZM1450.2 759.575V827.425H1518.05V759.575H1450.2ZM1518.05 758.425H1450.2L1450.2 690.575H1518.05L1518.05 758.425ZM1519.2 759.575V827.425H1587.05V759.575H1519.2ZM1587.05 758.425H1519.2L1519.2 690.575H1587.05L1587.05 758.425ZM70.2038 275.425L70.2038 207.575L138.054 207.575L138.054 275.425H70.2038ZM139.204 275.425L139.204 207.575L207.054 207.575L207.054 275.425L139.204 275.425ZM139.204 206.425L207.054 206.425V138.575L139.204 138.575V206.425ZM208.204 275.425L208.204 207.575L276.054 207.575V275.425H208.204ZM208.204 206.425L276.054 206.425L276.054 138.575L208.204 138.575V206.425ZM277.204 275.425V207.575H345.054V275.425H277.204ZM277.204 206.425H345.054L345.054 138.575H277.204L277.204 206.425ZM346.204 275.425V207.575H414.054V275.425H346.204ZM346.204 206.425H414.054L414.054 138.575H346.204L346.204 206.425ZM415.204 275.425V207.575L483.054 207.575V275.425H415.204ZM415.204 206.425L483.054 206.425L483.054 138.575L415.204 138.575L415.204 206.425ZM484.204 275.425V207.575L552.054 207.575V275.425L484.204 275.425ZM484.204 206.425L552.054 206.425V138.575L484.204 138.575L484.204 206.425ZM553.204 275.425V207.575L621.054 207.575V275.425H553.204ZM553.204 206.425L621.054 206.425V138.575L553.204 138.575V206.425ZM622.204 275.425V207.575H690.054V275.425H622.204ZM622.204 206.425H690.054V138.575H622.204V206.425ZM691.204 275.425V207.575H759.054V275.425H691.204ZM691.204 206.425H759.054V138.575H691.204V206.425ZM760.204 275.425V207.575L828.054 207.575V275.425H760.204ZM760.204 206.425L828.054 206.425V138.575L760.204 138.575V206.425ZM829.204 275.425V207.575L897.054 207.575V275.425L829.204 275.425ZM829.204 206.425L897.054 206.425V138.575L829.204 138.575V206.425ZM898.204 275.425V207.575H966.054V275.425H898.204ZM898.204 206.425H966.054V138.575H898.204V206.425ZM967.204 275.425V207.575L1035.05 207.575V275.425H967.204ZM967.204 206.425L1035.05 206.425V138.575L967.204 138.575V206.425ZM1036.2 275.425V207.575H1104.05V275.425H1036.2ZM1036.2 206.425H1104.05V138.575H1036.2V206.425ZM1105.2 275.425V207.575L1173.05 207.575V275.425H1105.2ZM1105.2 206.425L1173.05 206.425V138.575L1105.2 138.575V206.425ZM1174.2 275.425V207.575H1242.05V275.425L1174.2 275.425ZM1174.2 206.425H1242.05V138.575H1174.2V206.425ZM1243.2 275.425V207.575H1311.05V275.425H1243.2ZM1243.2 206.425H1311.05V138.575H1243.2V206.425ZM1312.2 275.425V207.575L1380.05 207.575V275.425H1312.2ZM1312.2 206.425L1380.05 206.425V138.575L1312.2 138.575V206.425ZM1381.2 275.425V207.575H1449.05V275.425H1381.2ZM1381.2 206.425H1449.05V138.575H1381.2V206.425ZM1450.2 275.425V207.575L1518.05 207.575V275.425H1450.2ZM1450.2 206.425L1518.05 206.425V138.575L1450.2 138.575V206.425ZM1519.2 275.425V207.575H1587.05V275.425H1519.2ZM1519.2 206.425H1587.05V138.575H1519.2V206.425ZM70.2038 206.425L138.054 206.425V138.575L70.2038 138.575V206.425ZM70.2038 1311.57L70.2038 1379.42H138.054L138.054 1311.57H70.2038ZM138.054 1310.42H70.2038L70.2038 1242.57H138.054V1310.42ZM139.204 1311.57L139.204 1379.42H207.054L207.054 1311.57H139.204ZM207.054 1310.42H139.204V1242.57H207.054V1310.42ZM208.204 1311.57L208.204 1379.42H276.054V1311.57H208.204ZM276.054 1310.42H208.204V1242.57H276.054V1310.42ZM277.204 1311.57V1379.42H345.054V1311.57H277.204ZM345.054 1310.42H277.204V1242.57H345.054V1310.42ZM346.204 1311.57V1379.42H414.054V1311.57H346.204ZM414.054 1310.42H346.204V1242.57H414.054V1310.42ZM415.204 1311.57V1379.42H483.054V1311.57H415.204ZM483.054 1310.42H415.204V1242.57H483.054V1310.42ZM484.204 1311.57V1379.42H552.054V1311.57H484.204ZM552.054 1310.42H484.204V1242.57H552.054V1310.42ZM553.204 1311.57V1379.42H621.054V1311.57H553.204ZM621.054 1310.42H553.204V1242.57H621.054V1310.42ZM622.204 1311.57V1379.42H690.054V1311.57H622.204ZM690.054 1310.42H622.204V1242.57H690.054V1310.42ZM691.204 1311.57V1379.42L759.054 1379.42V1311.57L691.204 1311.57ZM759.054 1310.42L691.204 1310.42V1242.57L759.054 1242.57V1310.42ZM760.204 1311.57V1379.42H828.054V1311.57H760.204ZM828.054 1310.42H760.204V1242.57H828.054V1310.42ZM829.204 1311.57V1379.43L897.054 1379.43V1311.57L829.204 1311.57ZM897.054 1310.43L829.204 1310.43V1242.57L897.054 1242.57V1310.43ZM898.204 1311.57V1379.43H966.054V1311.57H898.204ZM966.054 1310.43H898.204V1242.57H966.054V1310.43ZM967.204 1311.57V1379.43H1035.05V1311.57H967.204ZM1035.05 1310.43H967.204V1242.57H1035.05V1310.43ZM1036.2 1311.57V1379.43H1104.05V1311.57H1036.2ZM1104.05 1310.43H1036.2V1242.57H1104.05V1310.43ZM1105.2 1311.57V1379.43H1173.05V1311.57H1105.2ZM1173.05 1310.43H1105.2V1242.57H1173.05V1310.43ZM1174.2 1311.57V1379.43H1242.05V1311.57H1174.2ZM1242.05 1310.43H1174.2V1242.57H1242.05V1310.43ZM1243.2 1311.57V1379.43H1311.05V1311.57H1243.2ZM1311.05 1310.43H1243.2V1242.57H1311.05V1310.43ZM1312.2 1311.57V1379.43H1380.05V1311.57H1312.2ZM1380.05 1310.43H1312.2V1242.57H1380.05V1310.43ZM1381.2 1311.57V1379.43H1449.05V1311.57H1381.2ZM1449.05 1310.43H1381.2V1242.57H1449.05V1310.43ZM1450.2 1311.57V1379.43H1518.05V1311.57H1450.2ZM1518.05 1310.43H1450.2V1242.57H1518.05V1310.43ZM1519.2 1311.57V1379.43H1587.05V1311.57H1519.2ZM1587.05 1310.43H1519.2V1242.57H1587.05V1310.43ZM1587.05 828.575V896.425H1519.2V828.575H1587.05ZM1518.05 828.575V896.425H1450.2V828.575H1518.05ZM1518.05 897.575H1450.2V965.425H1518.05V897.575ZM1449.05 828.575V896.425H1381.2V828.575H1449.05ZM1449.05 897.575H1381.2V965.425H1449.05V897.575ZM1380.05 828.575V896.425H1312.2V828.575H1380.05ZM1380.05 897.575H1312.2V965.425H1380.05V897.575ZM1311.05 828.575V896.425H1243.2V828.575H1311.05ZM1311.05 897.575H1243.2V965.425H1311.05V897.575ZM1242.05 828.575V896.425H1174.2V828.575H1242.05ZM1242.05 897.575H1174.2V965.425H1242.05V897.575ZM1173.05 828.575V896.425H1105.2V828.575H1173.05ZM1173.05 897.575H1105.2V965.425H1173.05V897.575ZM1104.05 828.575V896.425L1036.2 896.425V828.575L1104.05 828.575ZM1104.05 897.575L1036.2 897.575V965.425L1104.05 965.425V897.575ZM1035.05 828.575V896.425H967.204V828.575H1035.05ZM1035.05 897.575H967.204V965.425H1035.05V897.575ZM966.054 828.575V896.425H898.204V828.575H966.054ZM966.054 897.575H898.204V965.425H966.054V897.575ZM897.054 828.575V896.425L829.204 896.425V828.575L897.054 828.575ZM897.054 897.575L829.204 897.575V965.425L897.054 965.425V897.575ZM828.054 828.575V896.425H760.204V828.575H828.054ZM828.054 897.575H760.204V965.425H828.054V897.575ZM759.054 828.575V896.425H691.204V828.575H759.054ZM759.054 897.575H691.204V965.425H759.054V897.575ZM690.054 828.575V896.425H622.204V828.575H690.054ZM690.054 897.575H622.204V965.425H690.054V897.575ZM621.054 828.575V896.425H553.204V828.575H621.054ZM621.054 897.575H553.204V965.425H621.054V897.575ZM552.054 828.575V896.425H484.204L484.204 828.575H552.054ZM552.054 897.575H484.204V965.425H552.054V897.575ZM483.054 828.575L483.054 896.425H415.204L415.204 828.575H483.054ZM483.054 897.575H415.204V965.425H483.054V897.575ZM414.054 828.575L414.054 896.425L346.204 896.425L346.204 828.575L414.054 828.575ZM414.054 897.575L346.204 897.575V965.425L414.054 965.425V897.575ZM345.054 828.575L345.054 896.425H277.204L277.204 828.575H345.054ZM345.054 897.575H277.204V965.425H345.054V897.575ZM276.054 828.575L276.054 896.425H208.204V828.575H276.054ZM276.054 897.575H208.204V965.425H276.054V897.575ZM207.054 828.575V896.425H139.204V828.575H207.054ZM207.054 897.575H139.204V965.425H207.054V897.575ZM138.054 828.575V896.425H70.2038L70.2038 828.575H138.054ZM138.054 897.575H70.2038L70.2038 965.425H138.054V897.575ZM1587.05 897.575H1519.2V965.425H1587.05V897.575ZM1587.05 344.425V276.575H1519.2V344.425H1587.05ZM1519.2 345.575H1587.05V413.425H1519.2V345.575ZM1518.05 344.425V276.575H1450.2V344.425H1518.05ZM1450.2 345.575H1518.05V413.425H1450.2V345.575ZM1449.05 344.425V276.575H1381.2V344.425H1449.05ZM1381.2 345.575H1449.05V413.425H1381.2V345.575ZM1380.05 344.425V276.575H1312.2V344.425H1380.05ZM1312.2 345.575H1380.05V413.425H1312.2V345.575ZM1311.05 344.425V276.575H1243.2V344.425H1311.05ZM1243.2 345.575H1311.05V413.425H1243.2V345.575ZM1242.05 344.425V276.575L1174.2 276.575V344.425L1242.05 344.425ZM1174.2 345.575L1242.05 345.575V413.425L1174.2 413.425V345.575ZM1173.05 344.425V276.575H1105.2V344.425H1173.05ZM1105.2 345.575H1173.05V413.425H1105.2V345.575ZM1104.05 344.425V276.575H1036.2V344.425H1104.05ZM1036.2 345.575H1104.05V413.425H1036.2V345.575ZM1035.05 344.425V276.575H967.204V344.425H1035.05ZM967.204 345.575H1035.05V413.425H967.204L967.204 345.575ZM966.054 344.425V276.575H898.204V344.425H966.054ZM898.204 345.575H966.054L966.054 413.425H898.204L898.204 345.575ZM897.054 344.425V276.575L829.204 276.575V344.425L897.054 344.425ZM829.204 345.575L897.054 345.575L897.054 413.425L829.204 413.425L829.204 345.575ZM828.054 344.425V276.575H760.204V344.425H828.054ZM760.204 345.575H828.054L828.054 413.425H760.204L760.204 345.575ZM759.054 344.425V276.575H691.204V344.425H759.054ZM691.204 345.575H759.054L759.054 413.425H691.204L691.204 345.575ZM690.054 344.425V276.575H622.204V344.425H690.054ZM622.204 345.575H690.054L690.054 413.425H622.204L622.204 345.575ZM621.054 344.425V276.575H553.204V344.425H621.054ZM553.204 345.575H621.054L621.054 413.425H553.204L553.204 345.575ZM552.054 344.425V276.575L484.204 276.575V344.425L552.054 344.425ZM484.204 345.575L552.054 345.575L552.054 413.425L484.204 413.425V345.575ZM483.054 344.425V276.575H415.204V344.425H483.054ZM415.204 345.575H483.054V413.425H415.204V345.575ZM414.054 344.425V276.575H346.204V344.425H414.054ZM346.204 345.575H414.054V413.425H346.204V345.575ZM345.054 344.425V276.575H277.204V344.425H345.054ZM277.204 345.575H345.054V413.425H277.204V345.575ZM276.054 344.425V276.575H208.204V344.425H276.054ZM208.204 345.575H276.054V413.425H208.204V345.575ZM207.054 344.425V276.575L139.204 276.575V344.425L207.054 344.425ZM139.204 345.575L207.054 345.575V413.425L139.204 413.425V345.575ZM138.054 344.425V276.575H70.2038L70.2038 344.425H138.054ZM70.2038 345.575H138.054V413.425H70.2038L70.2038 345.575ZM1587.05 552.575L1587.05 620.425H1519.2L1519.2 552.575H1587.05ZM1518.05 552.575L1518.05 620.425H1450.2L1450.2 552.575H1518.05ZM1518.05 621.575H1450.2V689.425H1518.05V621.575ZM1449.05 552.575L1449.05 620.425H1381.2L1381.2 552.575H1449.05ZM1449.05 621.575H1381.2V689.425H1449.05V621.575ZM1380.05 552.575L1380.05 620.425H1312.2L1312.2 552.575H1380.05ZM1380.05 621.575H1312.2V689.425H1380.05V621.575ZM1311.05 552.575L1311.05 620.425H1243.2L1243.2 552.575H1311.05ZM1311.05 621.575H1243.2V689.425H1311.05V621.575ZM1242.05 552.575L1242.05 620.425H1174.2L1174.2 552.575H1242.05ZM1242.05 621.575H1174.2V689.425H1242.05V621.575ZM1173.05 552.575L1173.05 620.425H1105.2L1105.2 552.575H1173.05ZM1173.05 621.575H1105.2V689.425H1173.05V621.575ZM1104.05 552.575L1104.05 620.425L1036.2 620.425L1036.2 552.575L1104.05 552.575ZM1104.05 621.575L1036.2 621.575V689.425L1104.05 689.425V621.575ZM1035.05 552.575L1035.05 620.425H967.204L967.204 552.575H1035.05ZM1035.05 621.575H967.204V689.425H1035.05V621.575ZM966.054 552.575L966.054 620.425H898.204L898.204 552.575H966.054ZM966.054 621.575H898.204V689.425H966.054V621.575ZM897.054 552.575L897.054 620.425L829.204 620.425L829.204 552.575L897.054 552.575ZM897.054 621.575L829.204 621.575V689.425L897.054 689.425V621.575ZM828.054 552.575L828.054 620.425H760.204L760.204 552.575H828.054ZM828.054 621.575H760.204V689.425H828.054V621.575ZM759.054 552.575L759.054 620.425H691.204L691.204 552.575H759.054ZM759.054 621.575H691.204V689.425H759.054V621.575ZM690.054 552.575L690.054 620.425H622.204L622.204 552.575H690.054ZM690.054 621.575H622.204V689.425H690.054V621.575ZM621.054 552.575L621.054 620.425H553.204L553.204 552.575H621.054ZM621.054 621.575H553.204V689.425H621.054V621.575ZM552.054 552.575L552.054 620.425H484.204L484.204 552.575H552.054ZM552.054 621.575H484.204V689.425H552.054V621.575ZM483.054 552.575L483.054 620.425H415.204L415.204 552.575H483.054ZM483.054 621.575H415.204V689.425H483.054V621.575ZM414.054 552.575L414.054 620.425L346.204 620.425L346.204 552.575L414.054 552.575ZM414.054 621.575L346.204 621.575V689.425L414.054 689.425V621.575ZM345.054 552.575L345.054 620.425H277.204L277.204 552.575H345.054ZM345.054 621.575H277.204V689.425H345.054V621.575ZM276.054 552.575L276.054 620.425H208.204L208.204 552.575H276.054ZM276.054 621.575H208.204V689.425H276.054V621.575ZM207.054 552.575L207.054 620.425H139.204L139.204 552.575H207.054ZM207.054 621.575H139.204V689.425H207.054V621.575ZM138.054 552.575L138.054 620.425H70.2038L70.2038 552.575H138.054ZM138.054 621.575H70.2038L70.2038 689.425H138.054V621.575ZM1587.05 621.575H1519.2V689.425H1587.05V621.575ZM1587.05 69.575L1519.2 69.575V137.425H1587.05V69.575ZM1518.05 69.575L1450.2 69.575V137.425L1518.05 137.425V69.575ZM1449.05 69.575H1381.2V137.425H1449.05V69.575ZM1380.05 69.575L1312.2 69.575V137.425L1380.05 137.425V69.575ZM1311.05 69.575L1243.2 69.575V137.425H1311.05V69.575ZM1242.05 69.575L1174.2 69.575V137.425H1242.05V69.575ZM1173.05 69.575L1105.2 69.575V137.425L1173.05 137.425V69.575ZM1104.05 69.575H1036.2V137.425H1104.05V69.575ZM1035.05 69.575L967.204 69.575V137.425L1035.05 137.425V69.575ZM966.054 69.575L898.204 69.575V137.425H966.054V69.575ZM897.054 69.575L829.204 69.575V137.425L897.054 137.425V69.575ZM828.054 69.575H760.204V137.425L828.054 137.425V69.575ZM759.054 69.575L691.204 69.575V137.425H759.054V69.575ZM690.054 69.575L622.204 69.575V137.425H690.054V69.575ZM621.054 69.575L553.204 69.575V137.425L621.054 137.425V69.575ZM552.054 69.575L484.204 69.575V137.425L552.054 137.425V69.575ZM483.054 69.575L415.204 69.5749V137.425L483.054 137.425V69.575ZM414.054 69.5749L346.204 69.5749V137.425H414.054V69.5749ZM345.054 69.5749L277.204 69.5749V137.425H345.054V69.5749ZM276.054 69.5749L208.204 69.5749L208.204 137.425L276.054 137.425V69.5749ZM207.054 69.5749H139.204L139.204 137.425L207.054 137.425L207.054 69.5749ZM138.054 69.5749L70.2038 69.5749L70.2038 137.425L138.054 137.425L138.054 69.5749Z" fill="#DCDAE2" fill-opacity="0.56"/>
</svg>
