<?xml version="1.0" encoding="UTF-8"?>
<!DOCTYPE svg PUBLIC "-//W3C//DTD SVG 1.1//EN" "http://www.w3.org/Graphics/SVG/1.1/DTD/svg11.dtd">
<svg xmlns="http://www.w3.org/2000/svg" version="1.1" width="225px" height="225px" style="shape-rendering:geometricPrecision; text-rendering:geometricPrecision; image-rendering:optimizeQuality; fill-rule:evenodd; clip-rule:evenodd" xmlns:xlink="http://www.w3.org/1999/xlink">
<g><path style="opacity:0.999" fill="#5c708d" d="M 110.5,3.5 C 113.394,3.04229 115.894,3.70896 118,5.5C 118.796,9.75483 118.629,13.9215 117.5,18C 114.901,18.769 112.401,18.6023 110,17.5C 109.227,12.7481 109.393,8.08148 110.5,3.5 Z"/></g>
<g><path style="opacity:0.02" fill="#d9eff7" d="M 110.5,24.5 C 110.5,24.8333 110.5,25.1667 110.5,25.5C 110.665,29.1817 110.499,32.8484 110,36.5C 109.005,35.9341 108.172,35.2674 107.5,34.5C 109.119,31.4521 110.119,28.1188 110.5,24.5 Z"/></g>
<g><path style="opacity:0.886" fill="#7182a0" d="M 84.5,28.5 C 92.1132,26.4971 99.1132,27.8304 105.5,32.5C 100.91,31.349 96.2431,30.5157 91.5,30C 92.1667,29.6667 92.8333,29.3333 93.5,29C 90.5184,28.502 87.5184,28.3354 84.5,28.5 Z"/></g>
<g><path style="opacity:0.481" fill="#5e7389" d="M 117.5,25.5 C 117.5,41.1667 117.5,56.8333 117.5,72.5C 116.833,72.5 116.5,72.1667 116.5,71.5C 117.151,55.7969 116.484,40.4636 114.5,25.5C 113.167,25.5 111.833,25.5 110.5,25.5C 110.5,25.1667 110.5,24.8333 110.5,24.5C 111.449,23.8476 112.615,23.5143 114,23.5C 115.681,23.6083 116.848,24.2749 117.5,25.5 Z"/></g>
<g><path style="opacity:0.851" fill="#8094ad" d="M 153.5,35.5 C 156.64,34.3592 159.973,34.1925 163.5,35C 165.066,35.6082 166.4,36.4415 167.5,37.5C 162.933,36.2643 158.266,35.5976 153.5,35.5 Z"/></g>
<g><path style="opacity:1" fill="#a9d1ef" d="M 92.5,35.5 C 101.154,36.6553 106.987,41.322 110,49.5C 110.499,53.8206 110.666,58.1539 110.5,62.5C 105.227,62.9694 100.893,61.3027 97.5,57.5C 98.895,56.3523 98.7284,55.3523 97,54.5C 96.502,51.5184 96.3354,48.5184 96.5,45.5C 91.1254,45.1718 85.7921,45.5052 80.5,46.5C 79.9781,47.6074 79.6448,48.7741 79.5,50C 81.2834,54.4563 82.6167,58.9563 83.5,63.5C 82.5,63.5 81.5,63.5 80.5,63.5C 80.5,64.8333 80.5,66.1667 80.5,67.5C 81.675,67.281 82.675,67.6143 83.5,68.5C 81.5253,69.5779 79.692,69.2446 78,67.5C 77.6667,67.8333 77.3333,68.1667 77,68.5C 75.8595,66.9222 75.3595,65.2555 75.5,63.5C 74.8076,64.0253 74.3076,64.6919 74,65.5C 73.3292,64.7476 72.4959,64.4142 71.5,64.5C 67.8792,55.6341 69.2126,47.6341 75.5,40.5C 80.3149,36.2311 85.9816,34.5644 92.5,35.5 Z"/></g>
<g><path style="opacity:0.208" fill="#b4c6d3" d="M 151.5,36.5 C 150.5,38.1667 149.167,39.5 147.5,40.5C 147.833,38.1667 149.167,36.8333 151.5,36.5 Z"/></g>
<g><path style="opacity:1" fill="#335179" d="M 153.5,35.5 C 158.266,35.5976 162.933,36.2643 167.5,37.5C 169.822,38.8021 171.155,40.8021 171.5,43.5C 171.693,47.5662 171.36,51.5662 170.5,55.5C 169.422,58.9078 167.089,60.9078 163.5,61.5C 159.434,61.693 155.434,61.3597 151.5,60.5C 156.062,59.8166 160.728,58.9832 165.5,58C 164.874,57.2496 164.374,56.4162 164,55.5C 163.23,56.5981 162.397,56.5981 161.5,55.5C 167.09,50.3832 166.757,45.7166 160.5,41.5C 157.882,38.5336 154.715,37.867 151,39.5C 149.661,45.6776 148.161,51.6776 146.5,57.5C 146.768,55.901 146.434,54.5676 145.5,53.5C 145.505,49.4659 145.838,45.4659 146.5,41.5C 146.5,40.8333 146.833,40.5 147.5,40.5C 149.167,39.5 150.5,38.1667 151.5,36.5C 151.842,35.6618 152.508,35.3284 153.5,35.5 Z"/></g>
<g><path style="opacity:0.145" fill="#acb8c7" d="M 67.5,39.5 C 67.573,41.0269 66.9063,42.0269 65.5,42.5C 65.427,40.9731 66.0937,39.9731 67.5,39.5 Z"/></g>
<g><path style="opacity:0.259" fill="#8293ab" d="M 64.5,44.5 C 62.4777,46.6928 59.8111,47.6928 56.5,47.5C 58.936,46.129 61.6027,45.129 64.5,44.5 Z"/></g>
<g><path style="opacity:0.2" fill="#9caec3" d="M 146.5,41.5 C 145.838,45.4659 145.505,49.4659 145.5,53.5C 144.842,52.2067 144.508,50.7067 144.5,49C 144.408,46.1789 145.074,43.6789 146.5,41.5 Z"/></g>
<g><path style="opacity:1" fill="#a6d0ef" d="M 160.5,41.5 C 166.757,45.7166 167.09,50.3832 161.5,55.5C 155.714,56.6109 152.381,54.2775 151.5,48.5C 152.45,43.5516 155.45,41.2182 160.5,41.5 Z"/></g>
<g><path style="opacity:1" fill="#2b4e7c" d="M 110.5,25.5 C 111.833,25.5 113.167,25.5 114.5,25.5C 115.646,38.4247 115.813,51.4247 115,64.5C 114.385,66.1161 113.385,67.4495 112,68.5C 108.701,67.826 105.201,66.826 101.5,65.5C 100.583,66.1272 99.5832,66.4606 98.5,66.5C 93.4649,63.7964 89.7982,59.7964 87.5,54.5C 88.6956,51.8624 90.6956,51.029 93.5,52C 94.4881,54.167 95.8214,56.0003 97.5,57.5C 100.893,61.3027 105.227,62.9694 110.5,62.5C 110.666,58.1539 110.499,53.8206 110,49.5C 106.987,41.322 101.154,36.6553 92.5,35.5C 90.8113,34.6963 89.1446,33.6963 87.5,32.5C 87.7093,31.914 88.0426,31.414 88.5,31C 86.1667,30.6667 83.8333,30.3333 81.5,30C 82.7375,29.7679 83.7375,29.2679 84.5,28.5C 87.5184,28.3354 90.5184,28.502 93.5,29C 92.8333,29.3333 92.1667,29.6667 91.5,30C 96.2431,30.5157 100.91,31.349 105.5,32.5C 106.5,32.8333 107.167,33.5 107.5,34.5C 108.172,35.2674 109.005,35.9341 110,36.5C 110.499,32.8484 110.665,29.1817 110.5,25.5 Z"/></g>
<g><path style="opacity:0.208" fill="#8a9bad" d="M 171.5,43.5 C 173.343,46.7956 173.509,50.4623 172,54.5C 171.617,55.056 171.117,55.3893 170.5,55.5C 171.36,51.5662 171.693,47.5662 171.5,43.5 Z"/></g>
<g><path style="opacity:0.216" fill="#a7bccc" d="M 47.5,53.5 C 47.573,55.0269 46.9063,56.0269 45.5,56.5C 45.427,54.9731 46.0937,53.9731 47.5,53.5 Z"/></g>
<g><path style="opacity:1" fill="#33537b" d="M 84.5,28.5 C 83.7375,29.2679 82.7375,29.7679 81.5,30C 83.8333,30.3333 86.1667,30.6667 88.5,31C 88.0426,31.414 87.7093,31.914 87.5,32.5C 89.1446,33.6963 90.8113,34.6963 92.5,35.5C 85.9816,34.5644 80.3149,36.2311 75.5,40.5C 74.3157,39.3121 74.3157,38.1455 75.5,37C 73.8659,36.5065 72.1992,36.3398 70.5,36.5C 70.2189,38.9628 69.2189,41.1295 67.5,43C 68.8333,44.3333 68.8333,45.6667 67.5,47C 64.1727,47.6103 60.8394,48.1103 57.5,48.5C 56.7093,50.6907 56.7093,52.6907 57.5,54.5C 53.0963,57.5736 49.7629,61.5736 47.5,66.5C 46.7784,66.0825 46.2784,65.4158 46,64.5C 45.3333,67.1667 44.6667,67.1667 44,64.5C 42.7959,69.9672 40.9626,74.9672 38.5,79.5C 38.5,77.1667 38.5,74.8333 38.5,72.5C 38.5,72.1667 38.5,71.8333 38.5,71.5C 40.3104,68.855 41.3104,65.855 41.5,62.5C 41.8449,59.8021 43.1782,57.8021 45.5,56.5C 46.9063,56.0269 47.573,55.0269 47.5,53.5C 49.9754,50.7589 52.9754,48.7589 56.5,47.5C 59.8111,47.6928 62.4777,46.6928 64.5,44.5C 64.3284,43.5084 64.6618,42.8417 65.5,42.5C 66.9063,42.0269 67.573,41.0269 67.5,39.5C 71.2751,33.1009 76.9417,29.4342 84.5,28.5 Z"/></g>
<g><path style="opacity:1" fill="#a7ceef" d="M 97.5,57.5 C 95.8214,56.0003 94.4881,54.167 93.5,52C 90.6956,51.029 88.6956,51.8624 87.5,54.5C 89.7982,59.7964 93.4649,63.7964 98.5,66.5C 99.9649,67.7368 101.632,68.7368 103.5,69.5C 98.3702,70.7045 93.3702,70.0378 88.5,67.5C 87.4291,69.3255 88.0958,70.4921 90.5,71C 89.8333,73 88.5,74.3333 86.5,75C 87.7375,75.2321 88.7375,75.7321 89.5,76.5C 81.1029,76.1041 75.1029,72.1041 71.5,64.5C 72.4959,64.4142 73.3292,64.7476 74,65.5C 74.3076,64.6919 74.8076,64.0253 75.5,63.5C 75.3595,65.2555 75.8595,66.9222 77,68.5C 77.3333,68.1667 77.6667,67.8333 78,67.5C 79.692,69.2446 81.5253,69.5779 83.5,68.5C 82.675,67.6143 81.675,67.281 80.5,67.5C 80.5,66.1667 80.5,64.8333 80.5,63.5C 81.5,63.5 82.5,63.5 83.5,63.5C 82.6167,58.9563 81.2834,54.4563 79.5,50C 79.6448,48.7741 79.9781,47.6074 80.5,46.5C 85.7921,45.5052 91.1254,45.1718 96.5,45.5C 96.3354,48.5184 96.502,51.5184 97,54.5C 98.7284,55.3523 98.895,56.3523 97.5,57.5 Z"/></g>
<g><path style="opacity:0.247" fill="#aabacd" d="M 145.5,53.5 C 146.434,54.5676 146.768,55.901 146.5,57.5C 145.833,58.8333 144.833,59.8333 143.5,60.5C 144.933,58.4418 145.6,56.1085 145.5,53.5 Z"/></g>
<g><path style="opacity:0.059" fill="#deeffa" d="M 117.5,25.5 C 118.496,40.6576 118.83,55.9909 118.5,71.5C 123.5,71.5 128.5,71.5 133.5,71.5C 133.5,71.8333 133.5,72.1667 133.5,72.5C 128.167,72.5 122.833,72.5 117.5,72.5C 117.5,56.8333 117.5,41.1667 117.5,25.5 Z"/></g>
<g><path style="opacity:0.298" fill="#869eb7" d="M 179.5,60.5 C 178.167,62.5 176.5,64.1667 174.5,65.5C 175.167,62.8333 176.833,61.1667 179.5,60.5 Z"/></g>
<g><path style="opacity:0.651" fill="#5e7693" d="M 151.5,60.5 C 155.434,61.3597 159.434,61.693 163.5,61.5C 161.863,62.3796 160.03,63.0463 158,63.5C 155.88,62.5411 153.713,62.3744 151.5,63C 148.933,66.003 146.266,68.8363 143.5,71.5C 143.215,69.712 143.548,68.0453 144.5,66.5C 147.147,64.7048 149.481,62.7048 151.5,60.5 Z"/></g>
<g><path style="opacity:1" fill="#30517d" d="M 199.5,68.5 C 199.461,73.4777 198.461,77.4777 196.5,80.5C 194.283,79.3992 192.283,78.7325 190.5,78.5C 192.967,75.0195 193.134,71.3529 191,67.5C 186.675,64.4314 183.008,65.0981 180,69.5C 178.342,76.6742 181.175,80.0076 188.5,79.5C 189.738,79.81 189.738,80.31 188.5,81C 189.5,81.3333 190.5,81.6667 191.5,82C 185.174,85.8491 179.841,84.6824 175.5,78.5C 175.977,77.5224 176.643,76.6891 177.5,76C 173.973,75.1925 170.64,75.3592 167.5,76.5C 166.782,74.7542 165.782,74.0875 164.5,74.5C 165.95,73.1502 166.617,71.4835 166.5,69.5C 166.833,69.5 167.167,69.5 167.5,69.5C 169.5,69.5 171.5,69.5 173.5,69.5C 173.5,68.5 173.5,67.5 173.5,66.5C 173.5,65.8333 173.833,65.5 174.5,65.5C 176.5,64.1667 178.167,62.5 179.5,60.5C 186.548,57.0172 192.714,58.3506 198,64.5C 198.791,65.745 199.291,67.0783 199.5,68.5 Z"/></g>
<g><path style="opacity:0.341" fill="#98a8c0" d="M 41.5,62.5 C 41.3104,65.855 40.3104,68.855 38.5,71.5C 38.5275,68.0836 39.5275,65.0836 41.5,62.5 Z"/></g>
<g><path style="opacity:1" fill="#a8d1f0" d="M 57.5,78.5 C 55.8762,78.3601 54.7096,79.0267 54,80.5C 52.6716,88.0026 55.8382,91.0026 63.5,89.5C 63.6585,92.1871 62.8252,94.5204 61,96.5C 59.3845,95.1991 57.8845,95.1991 56.5,96.5C 55.1667,97.8333 53.8333,97.8333 52.5,96.5C 51.659,94.4885 50.159,93.1552 48,92.5C 48.1953,90.8739 48.1953,89.2072 48,87.5C 47.1495,90.6124 45.9828,90.9458 44.5,88.5C 46.0116,87.7506 47.0116,86.584 47.5,85C 46.7724,80.8202 46.4391,76.3202 46.5,71.5C 46.6287,69.7839 46.962,68.1172 47.5,66.5C 49.7629,61.5736 53.0963,57.5736 57.5,54.5C 59.1172,53.962 60.7839,53.6287 62.5,53.5C 62.6532,59.2795 63.9865,64.7795 66.5,70C 63.6952,72.9695 60.6952,75.8028 57.5,78.5 Z"/></g>
<g><path style="opacity:0.11" fill="#b3c4db" d="M 173.5,66.5 C 173.5,67.5 173.5,68.5 173.5,69.5C 171.5,69.5 169.5,69.5 167.5,69.5C 169.639,68.8419 171.639,67.8419 173.5,66.5 Z"/></g>
<g><path style="opacity:1" fill="#a8cef1" d="M 190.5,78.5 C 189.508,78.3284 188.842,78.6618 188.5,79.5C 181.175,80.0076 178.342,76.6742 180,69.5C 183.008,65.0981 186.675,64.4314 191,67.5C 193.134,71.3529 192.967,75.0195 190.5,78.5 Z"/></g>
<g><path style="opacity:0.341" fill="#8d9fb9" d="M 137.5,67.5 C 136.92,69.7488 135.587,71.4154 133.5,72.5C 133.5,72.1667 133.5,71.8333 133.5,71.5C 134.5,69.8333 135.833,68.5 137.5,67.5 Z"/></g>
<g><path style="opacity:1" fill="#32507c" d="M 160.5,41.5 C 155.45,41.2182 152.45,43.5516 151.5,48.5C 152.381,54.2775 155.714,56.6109 161.5,55.5C 162.397,56.5981 163.23,56.5981 164,55.5C 164.374,56.4162 164.874,57.2496 165.5,58C 160.728,58.9832 156.062,59.8166 151.5,60.5C 149.481,62.7048 147.147,64.7048 144.5,66.5C 143.548,68.0453 143.215,69.712 143.5,71.5C 141.906,74.7642 139.573,77.4309 136.5,79.5C 133.833,79.5 131.167,79.5 128.5,79.5C 125.34,77.9375 122.174,76.2708 119,74.5C 118.632,75.91 117.799,76.91 116.5,77.5C 115.268,76.8555 113.935,76.6888 112.5,77C 111.231,74.8615 111.231,72.6948 112.5,70.5C 113.736,71.2458 115.07,71.5792 116.5,71.5C 116.5,72.1667 116.833,72.5 117.5,72.5C 122.833,72.5 128.167,72.5 133.5,72.5C 135.587,71.4154 136.92,69.7488 137.5,67.5C 138.8,64.5677 140.8,62.2344 143.5,60.5C 144.833,59.8333 145.833,58.8333 146.5,57.5C 148.161,51.6776 149.661,45.6776 151,39.5C 154.715,37.867 157.882,38.5336 160.5,41.5 Z"/></g>
<g><path style="opacity:0.192" fill="#b2c7db" d="M 161.5,72.5 C 161.573,74.0269 160.906,75.0269 159.5,75.5C 159.427,73.9731 160.094,72.9731 161.5,72.5 Z"/></g>
<g><path style="opacity:0.122" fill="#cddaef" d="M 38.5,72.5 C 38.5,74.8333 38.5,77.1667 38.5,79.5C 38.1583,80.3382 37.4916,80.6716 36.5,80.5C 37.0784,77.7196 37.7451,75.0529 38.5,72.5 Z"/></g>
<g><path style="opacity:1" fill="#425e7f" d="M 166.5,69.5 C 166.617,71.4835 165.95,73.1502 164.5,74.5C 165.782,74.0875 166.782,74.7542 167.5,76.5C 167.5,76.8333 167.5,77.1667 167.5,77.5C 165.646,81.2208 163.313,84.5541 160.5,87.5C 160.167,87.5 159.833,87.5 159.5,87.5C 159.693,84.6915 160.36,82.0248 161.5,79.5C 160.167,79.5 158.833,79.5 157.5,79.5C 157.5,79.1667 157.5,78.8333 157.5,78.5C 157.932,77.2905 158.599,76.2905 159.5,75.5C 160.906,75.0269 161.573,74.0269 161.5,72.5C 161.858,70.2988 163.192,68.9655 165.5,68.5C 166.107,68.6236 166.44,68.9569 166.5,69.5 Z"/></g>
<g><path style="opacity:0.071" fill="#c5dff4" d="M 167.5,77.5 C 167.5,77.1667 167.5,76.8333 167.5,76.5C 170.082,76.0254 172.082,76.6921 173.5,78.5C 171.621,77.6586 169.621,77.3253 167.5,77.5 Z"/></g>
<g><path style="opacity:1" fill="#a8d0f1" d="M 103.5,69.5 C 105.833,69.5 108.167,69.5 110.5,69.5C 110.5,78.5 110.5,87.5 110.5,96.5C 99.5019,91.1886 89.8352,92.8552 81.5,101.5C 78.333,104.498 74.9997,107.331 71.5,110C 68.2068,111.608 64.8734,111.775 61.5,110.5C 60.4197,106.563 58.4197,103.23 55.5,100.5C 56.2899,99.2058 57.2899,98.0391 58.5,97C 57.9056,96.5357 57.2389,96.369 56.5,96.5C 57.8845,95.1991 59.3845,95.1991 61,96.5C 62.8252,94.5204 63.6585,92.1871 63.5,89.5C 55.8382,91.0026 52.6716,88.0026 54,80.5C 54.7096,79.0267 55.8762,78.3601 57.5,78.5C 56.2504,81.006 55.5838,83.6726 55.5,86.5C 57.8333,86.5 60.1667,86.5 62.5,86.5C 63.3379,81.3238 66.3379,77.9905 71.5,76.5C 76.7582,80.7992 82.7582,82.7992 89.5,82.5C 89.5,80.5 89.5,78.5 89.5,76.5C 88.7375,75.7321 87.7375,75.2321 86.5,75C 88.5,74.3333 89.8333,73 90.5,71C 88.0958,70.4921 87.4291,69.3255 88.5,67.5C 93.3702,70.0378 98.3702,70.7045 103.5,69.5 Z"/></g>
<g><path style="opacity:1" fill="#294e7a" d="M 75.5,40.5 C 69.2126,47.6341 67.8792,55.6341 71.5,64.5C 75.1029,72.1041 81.1029,76.1041 89.5,76.5C 89.5,78.5 89.5,80.5 89.5,82.5C 82.7582,82.7992 76.7582,80.7992 71.5,76.5C 66.3379,77.9905 63.3379,81.3238 62.5,86.5C 60.1667,86.5 57.8333,86.5 55.5,86.5C 55.5838,83.6726 56.2504,81.006 57.5,78.5C 60.6952,75.8028 63.6952,72.9695 66.5,70C 63.9865,64.7795 62.6532,59.2795 62.5,53.5C 60.7839,53.6287 59.1172,53.962 57.5,54.5C 56.7093,52.6907 56.7093,50.6907 57.5,48.5C 60.8394,48.1103 64.1727,47.6103 67.5,47C 68.8333,45.6667 68.8333,44.3333 67.5,43C 69.2189,41.1295 70.2189,38.9628 70.5,36.5C 72.1992,36.3398 73.8659,36.5065 75.5,37C 74.3157,38.1455 74.3157,39.3121 75.5,40.5 Z"/></g>
<g><path style="opacity:0.333" fill="#a1b7cb" d="M 157.5,78.5 C 157.5,78.8333 157.5,79.1667 157.5,79.5C 156.299,81.9095 154.633,83.9095 152.5,85.5C 153.433,82.6298 155.1,80.2964 157.5,78.5 Z"/></g>
<g><path style="opacity:1" fill="#2b4d75" d="M 114.5,25.5 C 116.484,40.4636 117.151,55.7969 116.5,71.5C 115.07,71.5792 113.736,71.2458 112.5,70.5C 111.231,72.6948 111.231,74.8615 112.5,77C 113.935,76.6888 115.268,76.8555 116.5,77.5C 117.799,76.91 118.632,75.91 119,74.5C 122.174,76.2708 125.34,77.9375 128.5,79.5C 124.833,79.5 121.167,79.5 117.5,79.5C 117.5,82.8333 117.5,86.1667 117.5,89.5C 119.265,90.4614 121.265,90.7947 123.5,90.5C 123.5,92.5 123.5,94.5 123.5,96.5C 121.5,96.5 119.5,96.5 117.5,96.5C 117.5,99.8333 117.5,103.167 117.5,106.5C 116.21,105.942 115.377,104.942 115,103.5C 114.667,101.5 114.333,99.5 114,97.5C 112.989,96.6634 111.822,96.33 110.5,96.5C 110.5,87.5 110.5,78.5 110.5,69.5C 108.167,69.5 105.833,69.5 103.5,69.5C 101.632,68.7368 99.9649,67.7368 98.5,66.5C 99.5832,66.4606 100.583,66.1272 101.5,65.5C 105.201,66.826 108.701,67.826 112,68.5C 113.385,67.4495 114.385,66.1161 115,64.5C 115.813,51.4247 115.646,38.4247 114.5,25.5 Z"/></g>
<g><path style="opacity:0.046" fill="#daecfd" d="M 128.5,79.5 C 131.167,79.5 133.833,79.5 136.5,79.5C 130.69,80.4896 124.69,80.8229 118.5,80.5C 118.264,83.6085 118.597,86.6085 119.5,89.5C 118.833,89.5 118.167,89.5 117.5,89.5C 117.5,86.1667 117.5,82.8333 117.5,79.5C 121.167,79.5 124.833,79.5 128.5,79.5 Z"/></g>
<g><path style="opacity:0.671" fill="#475e7e" d="M 199.5,68.5 C 201.364,73.804 200.364,78.6373 196.5,83C 194.423,84.705 192.09,85.8717 189.5,86.5C 185.681,86.586 182.015,85.9193 178.5,84.5C 176.14,83.135 174.473,81.135 173.5,78.5C 172.082,76.6921 170.082,76.0254 167.5,76.5C 170.64,75.3592 173.973,75.1925 177.5,76C 176.643,76.6891 175.977,77.5224 175.5,78.5C 179.841,84.6824 185.174,85.8491 191.5,82C 190.5,81.6667 189.5,81.3333 188.5,81C 189.738,80.31 189.738,79.81 188.5,79.5C 188.842,78.6618 189.508,78.3284 190.5,78.5C 192.283,78.7325 194.283,79.3992 196.5,80.5C 198.461,77.4777 199.461,73.4777 199.5,68.5 Z"/></g>
<g><path style="opacity:0.988" fill="#2f4d74" d="M 157.5,79.5 C 158.833,79.5 160.167,79.5 161.5,79.5C 160.36,82.0248 159.693,84.6915 159.5,87.5C 158.89,88.391 158.557,89.391 158.5,90.5C 158.5,91.1667 158.167,91.5 157.5,91.5C 156.094,91.9731 155.427,92.9731 155.5,94.5C 155.167,95.1667 154.833,95.8333 154.5,96.5C 151.5,96.5 148.5,96.5 145.5,96.5C 145.5,94.5 145.5,92.5 145.5,90.5C 147.781,90.9227 149.448,90.256 150.5,88.5C 151.906,88.0269 152.573,87.0269 152.5,85.5C 154.633,83.9095 156.299,81.9095 157.5,79.5 Z"/></g>
<g><path style="opacity:0.051" fill="#d2e0ed" d="M 178.5,84.5 C 182.015,85.9193 185.681,86.586 189.5,86.5C 187.372,87.6291 185.039,87.7958 182.5,87C 180.68,86.7996 179.347,85.9663 178.5,84.5 Z"/></g>
<g><path style="opacity:0.212" fill="#abc5da" d="M 152.5,85.5 C 152.573,87.0269 151.906,88.0269 150.5,88.5C 150.427,86.9731 151.094,85.9731 152.5,85.5 Z"/></g>
<g><path style="opacity:0.016" fill="#c1e8f4" d="M 159.5,87.5 C 159.833,87.5 160.167,87.5 160.5,87.5C 160.573,89.0269 159.906,90.0269 158.5,90.5C 158.557,89.391 158.89,88.391 159.5,87.5 Z"/></g>
<g><path style="opacity:0.429" fill="#849bae" d="M 117.5,89.5 C 118.167,89.5 118.833,89.5 119.5,89.5C 125.239,89.0182 126.906,91.3515 124.5,96.5C 124.167,96.5 123.833,96.5 123.5,96.5C 123.5,94.5 123.5,92.5 123.5,90.5C 121.265,90.7947 119.265,90.4614 117.5,89.5 Z"/></g>
<g><path style="opacity:0.18" fill="#9fafc0" d="M 137.5,96.5 C 135.393,97.4682 133.059,97.8016 130.5,97.5C 130.5,94.8333 130.5,92.1667 130.5,89.5C 133.167,89.5 135.833,89.5 138.5,89.5C 138.802,92.0593 138.468,94.3926 137.5,96.5 Z"/></g>
<g><path style="opacity:0.796" fill="#233d5a" d="M 137.5,96.5 C 135.5,96.5 133.5,96.5 131.5,96.5C 131.5,94.5 131.5,92.5 131.5,90.5C 133.5,90.5 135.5,90.5 137.5,90.5C 137.5,92.5 137.5,94.5 137.5,96.5 Z"/></g>
<g><path style="opacity:0.345" fill="#8b9fb1" d="M 150.5,88.5 C 149.448,90.256 147.781,90.9227 145.5,90.5C 145.5,92.5 145.5,94.5 145.5,96.5C 148.5,96.5 151.5,96.5 154.5,96.5C 151.375,97.4794 148.042,97.8128 144.5,97.5C 144.5,94.8333 144.5,92.1667 144.5,89.5C 146.621,89.6747 148.621,89.3414 150.5,88.5 Z"/></g>
<g><path style="opacity:0.059" fill="#c0cde5" d="M 157.5,91.5 C 157.573,93.0269 156.906,94.0269 155.5,94.5C 155.427,92.9731 156.094,91.9731 157.5,91.5 Z"/></g>
<g><path style="opacity:0.231" fill="#839bb3" d="M 194.5,97.5 C 190.466,97.5045 186.466,97.8379 182.5,98.5C 184.462,96.9827 186.795,96.3161 189.5,96.5C 191.369,96.5068 193.036,96.8401 194.5,97.5 Z"/></g>
<g><path style="opacity:0.994" fill="#465e7f" d="M 32.5,83.5 C 31.9396,85.8008 31.4396,88.1341 31,90.5C 28.0628,94.6165 25.5628,98.9499 23.5,103.5C 23.5,101.833 23.5,100.167 23.5,98.5C 24.7252,92.3745 27.7252,87.3745 32.5,83.5 Z"/></g>
<g><path style="opacity:1" fill="#2c507f" d="M 110.5,96.5 C 111.822,96.33 112.989,96.6634 114,97.5C 114.333,99.5 114.667,101.5 115,103.5C 115.377,104.942 116.21,105.942 117.5,106.5C 117.5,106.833 117.5,107.167 117.5,107.5C 116.696,109.189 115.696,110.855 114.5,112.5C 115.025,113.192 115.692,113.692 116.5,114C 115.376,114.249 114.376,114.749 113.5,115.5C 114.738,118.166 114.738,120.832 113.5,123.5C 111.162,119.92 110.829,116.086 112.5,112C 112.375,109.527 111.709,108.027 110.5,107.5C 110.167,107.5 109.833,107.5 109.5,107.5C 107.771,102.617 104.271,100.284 99,100.5C 96.4088,100.565 93.9088,101.065 91.5,102C 88.3347,104.335 85.3347,106.835 82.5,109.5C 82.0825,108.778 81.4158,108.278 80.5,108C 84.7112,105.828 85.0445,103.662 81.5,101.5C 89.8352,92.8552 99.5019,91.1886 110.5,96.5 Z"/></g>
<g><path style="opacity:0.247" fill="#aab2cd" d="M 182.5,98.5 C 182.027,99.9063 181.027,100.573 179.5,100.5C 179.973,99.0937 180.973,98.427 182.5,98.5 Z"/></g>
<g><path style="opacity:1" fill="#a9d0ef" d="M 46.5,71.5 C 46.4391,76.3202 46.7724,80.8202 47.5,85C 47.0116,86.584 46.0116,87.7506 44.5,88.5C 45.9828,90.9458 47.1495,90.6124 48,87.5C 48.1953,89.2072 48.1953,90.8739 48,92.5C 50.159,93.1552 51.659,94.4885 52.5,96.5C 49.9223,95.7459 47.2556,95.7459 44.5,96.5C 44.6633,98.8568 44.4966,101.19 44,103.5C 43.2825,102.549 42.4491,102.383 41.5,103C 43.1531,106.894 45.8198,108.727 49.5,108.5C 49.9312,109.293 50.2645,110.127 50.5,111C 48.9664,112.75 48.133,114.583 48,116.5C 47.1452,113.885 45.8119,111.552 44,109.5C 43.2039,113.755 43.3705,117.921 44.5,122C 42.4864,124.345 40.153,126.345 37.5,128C 39.0356,129.599 39.5356,131.433 39,133.5C 38.6667,132.833 38.3333,132.167 38,131.5C 37.1739,133.405 36.0072,133.739 34.5,132.5C 31.2336,124.692 29.2336,116.692 28.5,108.5C 29.5029,97.1518 35.0029,88.8185 45,83.5C 45.1762,79.3123 45.6762,75.3123 46.5,71.5 Z"/></g>
<g><path style="opacity:0.299" fill="#a9bad1" d="M 123.5,96.5 C 123.833,96.5 124.167,96.5 124.5,96.5C 122.735,97.4614 120.735,97.7947 118.5,97.5C 118.335,100.518 118.502,103.518 119,106.5C 119.333,106.167 119.667,105.833 120,105.5C 123.935,106.138 127.769,106.804 131.5,107.5C 126.833,107.5 122.167,107.5 117.5,107.5C 117.5,107.167 117.5,106.833 117.5,106.5C 117.5,103.167 117.5,99.8333 117.5,96.5C 119.5,96.5 121.5,96.5 123.5,96.5 Z"/></g>
<g><path style="opacity:1" fill="#2a4d7d" d="M 55.5,100.5 C 58.4197,103.23 60.4197,106.563 61.5,110.5C 64.8734,111.775 68.2068,111.608 71.5,110C 74.9997,107.331 78.333,104.498 81.5,101.5C 85.0445,103.662 84.7112,105.828 80.5,108C 81.4158,108.278 82.0825,108.778 82.5,109.5C 80.2078,112.305 77.5411,114.638 74.5,116.5C 69.5116,117.065 64.5116,117.731 59.5,118.5C 56.7761,124.528 52.1095,127.528 45.5,127.5C 45.5,125.167 45.5,122.833 45.5,120.5C 53.5022,118.773 55.6689,114.106 52,106.5C 50.4478,105.034 48.6145,104.034 46.5,103.5C 45.5344,101.604 45.2011,99.604 45.5,97.5C 49.2485,97.3066 52.5818,98.3066 55.5,100.5 Z"/></g>
<g><path style="opacity:0.188" fill="#98a5b5" d="M 144.5,107.5 C 142.5,107.5 140.5,107.5 138.5,107.5C 138.5,109.5 138.5,111.5 138.5,113.5C 137.532,111.393 137.198,109.059 137.5,106.5C 140.059,106.198 142.393,106.532 144.5,107.5 Z"/></g>
<g><path style="opacity:1" fill="#2b4a74" d="M 117.5,107.5 C 122.167,107.5 126.833,107.5 131.5,107.5C 131.5,109.5 131.5,111.5 131.5,113.5C 126.833,113.5 122.167,113.5 117.5,113.5C 117.5,117.167 117.5,120.833 117.5,124.5C 119.5,124.5 121.5,124.5 123.5,124.5C 123.5,126.5 123.5,128.5 123.5,130.5C 121.265,130.205 119.265,130.539 117.5,131.5C 117.5,134.833 117.5,138.167 117.5,141.5C 119.5,141.5 121.5,141.5 123.5,141.5C 123.5,143.5 123.5,145.5 123.5,147.5C 121.167,147.5 118.833,147.5 116.5,147.5C 117.483,146.15 118.816,145.15 120.5,144.5C 118.293,143.365 115.96,142.699 113.5,142.5C 113.227,140.549 113.893,139.049 115.5,138C 114.167,136.333 114.167,134.667 115.5,133C 114.333,132.5 113.5,131.667 113,130.5C 112.667,130.833 112.333,131.167 112,131.5C 111.827,137.016 111.327,142.349 110.5,147.5C 110.5,135.5 110.5,123.5 110.5,111.5C 110.5,110.167 110.5,108.833 110.5,107.5C 111.709,108.027 112.375,109.527 112.5,112C 110.829,116.086 111.162,119.92 113.5,123.5C 114.738,120.832 114.738,118.166 113.5,115.5C 114.376,114.749 115.376,114.249 116.5,114C 115.692,113.692 115.025,113.192 114.5,112.5C 115.696,110.855 116.696,109.189 117.5,107.5 Z"/></g>
<g><path style="opacity:0.875" fill="#455a7d" d="M 144.5,107.5 C 146.833,113.833 144.833,115.833 138.5,113.5C 138.5,111.5 138.5,109.5 138.5,107.5C 140.5,107.5 142.5,107.5 144.5,107.5 Z"/></g>
<g><path style="opacity:0.149" fill="#afc0d4" d="M 23.5,98.5 C 23.5,100.167 23.5,101.833 23.5,103.5C 22.0648,106.55 21.3981,109.883 21.5,113.5C 21.9508,118.869 22.6175,124.203 23.5,129.5C 21.3059,124.693 20.3059,119.526 20.5,114C 20.3059,108.474 21.3059,103.307 23.5,98.5 Z"/></g>
<g><path style="opacity:0.818" fill="#183356" d="M 175.5,107.5 C 168.352,108.492 161.019,108.825 153.5,108.5C 153.33,109.822 153.663,110.989 154.5,112C 162.011,112.171 169.345,112.671 176.5,113.5C 168.5,113.5 160.5,113.5 152.5,113.5C 152.5,111.5 152.5,109.5 152.5,107.5C 160.167,107.5 167.833,107.5 175.5,107.5 Z"/></g>
<g><path style="opacity:0.22" fill="#95abbf" d="M 176.5,105.5 C 176.672,106.492 176.338,107.158 175.5,107.5C 167.833,107.5 160.167,107.5 152.5,107.5C 152.5,109.5 152.5,111.5 152.5,113.5C 160.5,113.5 168.5,113.5 176.5,113.5C 176.5,114.5 176.5,115.5 176.5,116.5C 168.436,114.578 160.103,113.912 151.5,114.5C 151.5,111.833 151.5,109.167 151.5,106.5C 159.918,106.802 168.252,106.469 176.5,105.5 Z"/></g>
<g><path style="opacity:0.698" fill="#33537d" d="M 194.5,97.5 C 204.46,102.441 206.626,109.774 201,119.5C 199.871,121.141 198.371,122.141 196.5,122.5C 191.843,123.741 187.177,123.741 182.5,122.5C 182.027,121.094 181.027,120.427 179.5,120.5C 178.026,119.564 177.026,118.23 176.5,116.5C 176.5,115.5 176.5,114.5 176.5,113.5C 169.345,112.671 162.011,112.171 154.5,112C 153.663,110.989 153.33,109.822 153.5,108.5C 161.019,108.825 168.352,108.492 175.5,107.5C 176.338,107.158 176.672,106.492 176.5,105.5C 176.75,103.326 177.75,101.659 179.5,100.5C 181.027,100.573 182.027,99.9063 182.5,98.5C 186.466,97.8379 190.466,97.5045 194.5,97.5 Z"/></g>
<g><path style="opacity:1" fill="#a9cfee" d="M 186.5,103.5 C 194.005,102.89 197.172,106.223 196,113.5C 187.613,120.101 183.28,118.101 183,107.5C 184.376,106.295 185.542,104.962 186.5,103.5 Z"/></g>
<g><path style="opacity:1" fill="#a9cff1" d="M 109.5,107.5 C 108.849,108.091 108.182,108.757 107.5,109.5C 104.738,106.564 101.571,104.231 98,102.5C 95.0351,102.438 94.2018,103.605 95.5,106C 87.8862,104.787 84.2196,107.954 84.5,115.5C 88.2169,119.988 92.5502,120.655 97.5,117.5C 100.045,118.549 100.045,119.549 97.5,120.5C 89.3964,123.925 84.7297,129.925 83.5,138.5C 77.8663,138.378 72.8663,140.045 68.5,143.5C 67.9094,142.849 67.2427,142.182 66.5,141.5C 68.8333,140.5 70.5,138.833 71.5,136.5C 75.2831,135.713 78.6164,134.046 81.5,131.5C 82.7111,130.28 82.7111,129.113 81.5,128C 82.3567,127.311 83.0233,126.478 83.5,125.5C 82.1966,123.063 80.5299,120.896 78.5,119C 78.8333,118.667 79.1667,118.333 79.5,118C 78.1011,117.405 76.7678,117.572 75.5,118.5C 75.2129,117.8 74.8795,117.133 74.5,116.5C 77.5411,114.638 80.2078,112.305 82.5,109.5C 85.3347,106.835 88.3347,104.335 91.5,102C 93.9088,101.065 96.4088,100.565 99,100.5C 104.271,100.284 107.771,102.617 109.5,107.5 Z"/></g>
<g><path style="opacity:1" fill="#a9d0f0" d="M 52.5,96.5 C 53.8333,97.8333 55.1667,97.8333 56.5,96.5C 57.2389,96.369 57.9056,96.5357 58.5,97C 57.2899,98.0391 56.2899,99.2058 55.5,100.5C 52.5818,98.3066 49.2485,97.3066 45.5,97.5C 45.2011,99.604 45.5344,101.604 46.5,103.5C 48.6145,104.034 50.4478,105.034 52,106.5C 55.6689,114.106 53.5022,118.773 45.5,120.5C 45.5,122.833 45.5,125.167 45.5,127.5C 52.1095,127.528 56.7761,124.528 59.5,118.5C 64.5116,117.731 69.5116,117.065 74.5,116.5C 74.8795,117.133 75.2129,117.8 75.5,118.5C 76.7678,117.572 78.1011,117.405 79.5,118C 79.1667,118.333 78.8333,118.667 78.5,119C 80.5299,120.896 82.1966,123.063 83.5,125.5C 83.0233,126.478 82.3567,127.311 81.5,128C 82.7111,129.113 82.7111,130.28 81.5,131.5C 78.6164,134.046 75.2831,135.713 71.5,136.5C 70.5,138.833 68.8333,140.5 66.5,141.5C 67.2427,142.182 67.9094,142.849 68.5,143.5C 66.5193,145.144 64.5193,146.81 62.5,148.5C 56.9372,146.615 53.6039,142.949 52.5,137.5C 50.1667,137.5 47.8333,137.5 45.5,137.5C 45.5845,142.672 47.5845,147.005 51.5,150.5C 49.6208,151.341 47.6208,151.675 45.5,151.5C 45.3112,146.699 44.6445,142.033 43.5,137.5C 42.1266,137.343 40.7932,137.51 39.5,138C 40.1667,138.333 40.8333,138.667 41.5,139C 39.9984,139.583 38.6651,140.416 37.5,141.5C 38.2211,146.476 38.8877,151.476 39.5,156.5C 39.4573,157.416 39.1239,158.083 38.5,158.5C 37.3127,156.928 36.3127,155.261 35.5,153.5C 35.6662,147.491 35.4995,141.491 35,135.5C 29.5431,127.338 27.3765,118.338 28.5,108.5C 29.2336,116.692 31.2336,124.692 34.5,132.5C 36.0072,133.739 37.1739,133.405 38,131.5C 38.3333,132.167 38.6667,132.833 39,133.5C 39.5356,131.433 39.0356,129.599 37.5,128C 40.153,126.345 42.4864,124.345 44.5,122C 43.3705,117.921 43.2039,113.755 44,109.5C 45.8119,111.552 47.1452,113.885 48,116.5C 48.133,114.583 48.9664,112.75 50.5,111C 50.2645,110.127 49.9312,109.293 49.5,108.5C 45.8198,108.727 43.1531,106.894 41.5,103C 42.4491,102.383 43.2825,102.549 44,103.5C 44.4966,101.19 44.6633,98.8568 44.5,96.5C 47.2556,95.7459 49.9223,95.7459 52.5,96.5 Z"/></g>
<g><path style="opacity:0.867" fill="#435b7c" d="M 23.5,103.5 C 22.4683,116.137 24.8016,127.97 30.5,139C 29.4131,146.676 29.4131,153.51 30.5,159.5C 29.2237,157.438 28.3903,155.104 28,152.5C 27.6667,147.5 27.3333,142.5 27,137.5C 25.0073,135.182 23.8406,132.516 23.5,129.5C 22.6175,124.203 21.9508,118.869 21.5,113.5C 21.3981,109.883 22.0648,106.55 23.5,103.5 Z"/></g>
<g><path style="opacity:0.208" fill="#adbbd1" d="M 179.5,120.5 C 181.027,120.427 182.027,121.094 182.5,122.5C 180.973,122.573 179.973,121.906 179.5,120.5 Z"/></g>
<g><path style="opacity:0.169" fill="#b5c7dd" d="M 131.5,113.5 C 127.688,114.324 123.688,114.824 119.5,115C 118.556,117.719 118.223,120.552 118.5,123.5C 120.735,123.205 122.735,123.539 124.5,124.5C 124.167,124.5 123.833,124.5 123.5,124.5C 121.5,124.5 119.5,124.5 117.5,124.5C 117.5,120.833 117.5,117.167 117.5,113.5C 122.167,113.5 126.833,113.5 131.5,113.5 Z"/></g>
<g><path style="opacity:0.227" fill="#8095ac" d="M 182.5,122.5 C 187.177,123.741 191.843,123.741 196.5,122.5C 194.538,124.017 192.205,124.684 189.5,124.5C 186.795,124.684 184.462,124.017 182.5,122.5 Z"/></g>
<g><path style="opacity:0.231" fill="#8497ae" d="M 131.5,124.5 C 131.5,126.5 131.5,128.5 131.5,130.5C 133.5,130.5 135.5,130.5 137.5,130.5C 137.5,128.5 137.5,126.5 137.5,124.5C 138.468,126.607 138.802,128.941 138.5,131.5C 135.833,131.5 133.167,131.5 130.5,131.5C 130.198,128.941 130.532,126.607 131.5,124.5 Z"/></g>
<g><path style="opacity:0.988" fill="#3c5577" d="M 137.5,124.5 C 137.5,126.5 137.5,128.5 137.5,130.5C 135.5,130.5 133.5,130.5 131.5,130.5C 131.5,128.5 131.5,126.5 131.5,124.5C 133.5,123.167 135.5,123.167 137.5,124.5 Z"/></g>
<g><path style="opacity:0.447" fill="#6a7f93" d="M 123.5,124.5 C 123.833,124.5 124.167,124.5 124.5,124.5C 124.85,126.626 124.85,128.959 124.5,131.5C 122.5,131.5 120.5,131.5 118.5,131.5C 118.167,131.5 117.833,131.5 117.5,131.5C 119.265,130.539 121.265,130.205 123.5,130.5C 123.5,128.5 123.5,126.5 123.5,124.5 Z"/></g>
<g><path style="opacity:0.271" fill="#8fa3b7" d="M 154.5,124.5 C 151.5,124.5 148.5,124.5 145.5,124.5C 145.5,126.5 145.5,128.5 145.5,130.5C 147.199,130.34 148.866,130.506 150.5,131C 151.252,131.671 151.586,132.504 151.5,133.5C 149.521,131.832 147.188,131.166 144.5,131.5C 144.5,128.833 144.5,126.167 144.5,123.5C 148.042,123.187 151.375,123.521 154.5,124.5 Z"/></g>
<g><path style="opacity:0.51" fill="#8f9aba" d="M 188.5,134.5 C 185.873,135.092 183.206,135.425 180.5,135.5C 183.089,133.843 185.756,133.509 188.5,134.5 Z"/></g>
<g><path style="opacity:0.016" fill="#b0d0da" d="M 188.5,134.5 C 190.698,134.12 192.365,134.787 193.5,136.5C 191.597,136.204 189.93,135.537 188.5,134.5 Z"/></g>
<g><path style="opacity:1" fill="#a7d2ef" d="M 109.5,107.5 C 109.833,107.5 110.167,107.5 110.5,107.5C 110.5,108.833 110.5,110.167 110.5,111.5C 109.178,111.67 108.011,111.337 107,110.5C 105.387,121.846 105.221,133.179 106.5,144.5C 102.157,145.014 98.3233,146.681 95,149.5C 94.2797,147.888 94.4464,146.388 95.5,145C 94.376,144.751 93.376,144.251 92.5,143.5C 93.1667,143.167 93.8333,142.833 94.5,142.5C 93.5721,141.232 93.4054,139.899 94,138.5C 94.8624,140.087 95.5291,141.754 96,143.5C 96.0006,140.313 96.8339,137.48 98.5,135C 96.8542,133.445 96.5209,131.779 97.5,130C 96.9056,129.536 96.2389,129.369 95.5,129.5C 99.684,128.171 101.351,125.171 100.5,120.5C 99.5,120.5 98.5,120.5 97.5,120.5C 100.045,119.549 100.045,118.549 97.5,117.5C 92.5502,120.655 88.2169,119.988 84.5,115.5C 84.2196,107.954 87.8862,104.787 95.5,106C 94.2018,103.605 95.0351,102.438 98,102.5C 101.571,104.231 104.738,106.564 107.5,109.5C 108.182,108.757 108.849,108.091 109.5,107.5 Z"/></g>
<g><path style="opacity:0.286" fill="#9fafc3" d="M 194.5,136.5 C 196.587,137.585 197.92,139.251 198.5,141.5C 196.413,140.415 195.08,138.749 194.5,136.5 Z"/></g>
<g><path style="opacity:0.051" fill="#d1eefd" d="M 117.5,131.5 C 117.833,131.5 118.167,131.5 118.5,131.5C 118.5,134.5 118.5,137.5 118.5,140.5C 120.735,140.205 122.735,140.539 124.5,141.5C 124.167,141.5 123.833,141.5 123.5,141.5C 121.5,141.5 119.5,141.5 117.5,141.5C 117.5,138.167 117.5,134.833 117.5,131.5 Z"/></g>
<g><path style="opacity:1" fill="#aad1f0" d="M 51.5,150.5 C 53.9687,151.569 56.3021,152.902 58.5,154.5C 57.0541,156.618 56.3874,158.951 56.5,161.5C 55.5206,164.625 55.1872,167.958 55.5,171.5C 47.2367,170.571 41.57,166.238 38.5,158.5C 39.1239,158.083 39.4573,157.416 39.5,156.5C 38.8877,151.476 38.2211,146.476 37.5,141.5C 38.6651,140.416 39.9984,139.583 41.5,139C 40.8333,138.667 40.1667,138.333 39.5,138C 40.7932,137.51 42.1266,137.343 43.5,137.5C 44.6445,142.033 45.3112,146.699 45.5,151.5C 47.6208,151.675 49.6208,151.341 51.5,150.5 Z"/></g>
<g><path style="opacity:1" fill="#a9cfef" d="M 183.5,141.5 C 192.579,141.772 194.912,145.939 190.5,154C 182.538,156.221 178.872,153.054 179.5,144.5C 181.23,143.974 182.564,142.974 183.5,141.5 Z"/></g>
<g><path style="opacity:1" fill="#2b4e7d" d="M 47.5,66.5 C 46.962,68.1172 46.6287,69.7839 46.5,71.5C 45.6762,75.3123 45.1762,79.3123 45,83.5C 35.0029,88.8185 29.5029,97.1518 28.5,108.5C 27.3765,118.338 29.5431,127.338 35,135.5C 35.4995,141.491 35.6662,147.491 35.5,153.5C 35.2969,155.044 34.6302,156.378 33.5,157.5C 33.8457,158.696 34.3457,158.696 35,157.5C 34.8307,160.515 33.3307,161.182 30.5,159.5C 29.4131,153.51 29.4131,146.676 30.5,139C 24.8016,127.97 22.4683,116.137 23.5,103.5C 25.5628,98.9499 28.0628,94.6165 31,90.5C 31.4396,88.1341 31.9396,85.8008 32.5,83.5C 33.795,82.5116 35.1283,81.5116 36.5,80.5C 37.4916,80.6716 38.1583,80.3382 38.5,79.5C 40.9626,74.9672 42.7959,69.9672 44,64.5C 44.6667,67.1667 45.3333,67.1667 46,64.5C 46.2784,65.4158 46.7784,66.0825 47.5,66.5 Z"/></g>
<g><path style="opacity:1" fill="#3c5781" d="M 137.5,142.5 C 138.205,145.726 139.205,148.893 140.5,152C 140,152.5 139.5,153 139,153.5C 138.097,152.299 136.931,151.465 135.5,151C 135.833,150.667 136.167,150.333 136.5,150C 135.382,148.926 134.382,147.76 133.5,146.5C 132.914,146.709 132.414,147.043 132,147.5C 131.505,145.527 131.338,143.527 131.5,141.5C 132.097,140.861 132.93,140.528 134,140.5C 135.699,140.387 136.866,141.053 137.5,142.5 Z"/></g>
<g><path style="opacity:1" fill="#a8d0f1" d="M 110.5,111.5 C 110.5,123.5 110.5,135.5 110.5,147.5C 107.947,148.255 105.28,148.922 102.5,149.5C 94.0097,151.654 89.0097,156.988 87.5,165.5C 89.0603,165.519 90.5603,165.852 92,166.5C 94.8618,161.973 98.6951,158.473 103.5,156C 105.81,155.503 108.143,155.337 110.5,155.5C 113.071,180.431 102.071,191.264 77.5,188C 71.3695,185.364 66.7028,181.197 63.5,175.5C 60.6275,155.608 69.2941,145.274 89.5,144.5C 89.3354,141.482 89.502,138.482 90,135.5C 91.6993,133.304 93.5327,131.304 95.5,129.5C 96.2389,129.369 96.9056,129.536 97.5,130C 96.5209,131.779 96.8542,133.445 98.5,135C 96.8339,137.48 96.0006,140.313 96,143.5C 95.5291,141.754 94.8624,140.087 94,138.5C 93.4054,139.899 93.5721,141.232 94.5,142.5C 93.8333,142.833 93.1667,143.167 92.5,143.5C 93.376,144.251 94.376,144.751 95.5,145C 94.4464,146.388 94.2797,147.888 95,149.5C 98.3233,146.681 102.157,145.014 106.5,144.5C 105.221,133.179 105.387,121.846 107,110.5C 108.011,111.337 109.178,111.67 110.5,111.5 Z"/></g>
<g><path style="opacity:1" fill="#2a4e7d" d="M 97.5,120.5 C 98.5,120.5 99.5,120.5 100.5,120.5C 101.351,125.171 99.684,128.171 95.5,129.5C 93.5327,131.304 91.6993,133.304 90,135.5C 89.502,138.482 89.3354,141.482 89.5,144.5C 69.2941,145.274 60.6275,155.608 63.5,175.5C 62.8478,176.725 61.6811,177.392 60,177.5C 58.8333,177.333 57.6667,177.167 56.5,177C 55.4206,174.957 53.754,173.624 51.5,173C 53.1124,172.28 54.6124,172.446 56,173.5C 56.4988,169.514 56.6655,165.514 56.5,161.5C 56.3874,158.951 57.0541,156.618 58.5,154.5C 56.3021,152.902 53.9687,151.569 51.5,150.5C 47.5845,147.005 45.5845,142.672 45.5,137.5C 47.8333,137.5 50.1667,137.5 52.5,137.5C 53.6039,142.949 56.9372,146.615 62.5,148.5C 64.5193,146.81 66.5193,145.144 68.5,143.5C 72.8663,140.045 77.8663,138.378 83.5,138.5C 84.7297,129.925 89.3964,123.925 97.5,120.5 Z"/></g>
<g><path style="opacity:0.106" fill="#bad5e9" d="M 163.5,151.5 C 166.833,151.5 170.167,151.5 173.5,151.5C 173.5,152.5 173.5,153.5 173.5,154.5C 170.296,153.011 166.963,152.011 163.5,151.5 Z"/></g>
<g><path style="opacity:1" fill="#3e597e" d="M 154.5,124.5 C 159.182,130.676 163.515,137.176 167.5,144C 170.84,144.824 173.173,143.657 174.5,140.5C 176.167,139.5 177.5,138.167 178.5,136.5C 178.842,135.662 179.508,135.328 180.5,135.5C 183.206,135.425 185.873,135.092 188.5,134.5C 189.93,135.537 191.597,136.204 193.5,136.5C 193.833,136.5 194.167,136.5 194.5,136.5C 195.08,138.749 196.413,140.415 198.5,141.5C 199.997,143.29 200.664,145.456 200.5,148C 200.727,151.358 199.727,154.191 197.5,156.5C 195.871,158.06 194.704,157.727 194,155.5C 193.764,157.811 192.931,159.811 191.5,161.5C 188.167,162.833 184.833,162.833 181.5,161.5C 184.187,161.664 186.854,161.497 189.5,161C 189.167,160.667 188.833,160.333 188.5,160C 189.448,159.517 190.448,159.351 191.5,159.5C 190.773,155.776 192.106,153.109 195.5,151.5C 196.312,148.185 196.646,145.019 196.5,142C 193.263,138.965 189.43,137.132 185,136.5C 183.029,136.468 181.529,137.302 180.5,139C 181.833,139.667 181.833,140.333 180.5,141C 181.448,141.483 182.448,141.649 183.5,141.5C 182.564,142.974 181.23,143.974 179.5,144.5C 178.849,143.909 178.182,143.243 177.5,142.5C 176.264,143.246 174.93,143.579 173.5,143.5C 173.955,145.367 174.622,147.2 175.5,149C 175.316,150.376 174.649,151.209 173.5,151.5C 170.167,151.5 166.833,151.5 163.5,151.5C 159.017,145.881 155.017,139.881 151.5,133.5C 151.586,132.504 151.252,131.671 150.5,131C 148.866,130.506 147.199,130.34 145.5,130.5C 145.5,128.5 145.5,126.5 145.5,124.5C 148.5,124.5 151.5,124.5 154.5,124.5 Z"/></g>
<g><path style="opacity:0.184" fill="#a4bfd3" d="M 178.5,136.5 C 177.5,138.167 176.167,139.5 174.5,140.5C 174.833,138.167 176.167,136.833 178.5,136.5 Z"/></g>
<g><path style="opacity:1" fill="#2f5079" d="M 102.5,149.5 C 104.756,150.465 106.423,152.132 107.5,154.5C 108.736,153.754 110.07,153.421 111.5,153.5C 111.831,162.192 111.498,170.859 110.5,179.5C 109.328,179.919 108.328,180.585 107.5,181.5C 109.197,182.364 110.363,183.697 111,185.5C 111.499,189.821 111.666,194.154 111.5,198.5C 112.833,198.5 114.167,198.5 115.5,198.5C 115.527,195.77 114.86,193.27 113.5,191C 114.124,177.015 114.791,163.182 115.5,149.5C 116.497,165.992 116.83,182.658 116.5,199.5C 114.5,199.5 112.5,199.5 110.5,199.5C 110.666,195.154 110.499,190.821 110,186.5C 109.283,187.044 108.783,187.711 108.5,188.5C 104.683,192.409 100.016,194.742 94.5,195.5C 87.8039,195.609 81.1373,195.276 74.5,194.5C 71.6689,193.921 69.3356,192.588 67.5,190.5C 66.0892,188.086 64.0892,186.419 61.5,185.5C 60.075,184.078 59.075,182.411 58.5,180.5C 56.7211,178.656 54.3878,177.99 51.5,178.5C 45.3745,177.275 40.3745,174.275 36.5,169.5C 36.0046,167.518 35.5046,165.518 35,163.5C 34.6667,163.833 34.3333,164.167 34,164.5C 33.1482,163.429 32.3149,162.429 31.5,161.5C 30.6618,161.158 30.3284,160.492 30.5,159.5C 33.3307,161.182 34.8307,160.515 35,157.5C 34.3457,158.696 33.8457,158.696 33.5,157.5C 34.6302,156.378 35.2969,155.044 35.5,153.5C 36.3127,155.261 37.3127,156.928 38.5,158.5C 41.57,166.238 47.2367,170.571 55.5,171.5C 55.1872,167.958 55.5206,164.625 56.5,161.5C 56.6655,165.514 56.4988,169.514 56,173.5C 54.6124,172.446 53.1124,172.28 51.5,173C 53.754,173.624 55.4206,174.957 56.5,177C 57.6667,177.167 58.8333,177.333 60,177.5C 61.6811,177.392 62.8478,176.725 63.5,175.5C 66.7028,181.197 71.3695,185.364 77.5,188C 102.071,191.264 113.071,180.431 110.5,155.5C 108.143,155.337 105.81,155.503 103.5,156C 98.6951,158.473 94.8618,161.973 92,166.5C 90.5603,165.852 89.0603,165.519 87.5,165.5C 89.0097,156.988 94.0097,151.654 102.5,149.5 Z"/></g>
<g><path style="opacity:1" fill="#294e80" d="M 116.5,147.5 C 115.662,147.842 115.328,148.508 115.5,149.5C 114.791,163.182 114.124,177.015 113.5,191C 114.86,193.27 115.527,195.77 115.5,198.5C 114.167,198.5 112.833,198.5 111.5,198.5C 111.666,194.154 111.499,189.821 111,185.5C 110.363,183.697 109.197,182.364 107.5,181.5C 108.328,180.585 109.328,179.919 110.5,179.5C 111.498,170.859 111.831,162.192 111.5,153.5C 110.07,153.421 108.736,153.754 107.5,154.5C 106.423,152.132 104.756,150.465 102.5,149.5C 105.28,148.922 107.947,148.255 110.5,147.5C 111.327,142.349 111.827,137.016 112,131.5C 112.333,131.167 112.667,130.833 113,130.5C 113.5,131.667 114.333,132.5 115.5,133C 114.167,134.667 114.167,136.333 115.5,138C 113.893,139.049 113.227,140.549 113.5,142.5C 115.96,142.699 118.293,143.365 120.5,144.5C 118.816,145.15 117.483,146.15 116.5,147.5 Z"/></g>
<g><path style="opacity:1" fill="#4f6788" d="M 131.5,141.5 C 131.338,143.527 131.505,145.527 132,147.5C 132.414,147.043 132.914,146.709 133.5,146.5C 134.382,147.76 135.382,148.926 136.5,150C 136.167,150.333 135.833,150.667 135.5,151C 136.931,151.465 138.097,152.299 139,153.5C 139.5,153 140,152.5 140.5,152C 139.205,148.893 138.205,145.726 137.5,142.5C 140.66,146.148 143.327,150.148 145.5,154.5C 144.883,154.389 144.383,154.056 144,153.5C 143.667,154.833 143.333,156.167 143,157.5C 142.667,157.167 142.333,156.833 142,156.5C 141.51,158.545 141.677,160.545 142.5,162.5C 139.443,158.742 136.61,154.742 134,150.5C 130.464,148.248 129.631,145.248 131.5,141.5 Z"/></g>
<g><path style="opacity:1" fill="#748ea7" d="M 197.5,156.5 C 196.135,158.86 194.135,160.527 191.5,161.5C 192.931,159.811 193.764,157.811 194,155.5C 194.704,157.727 195.871,158.06 197.5,156.5 Z"/></g>
<g><path style="opacity:1" fill="#2b4d7a" d="M 181.5,161.5 C 180.101,160.11 178.434,159.11 176.5,158.5C 174.738,157.738 173.738,156.404 173.5,154.5C 173.5,153.5 173.5,152.5 173.5,151.5C 174.649,151.209 175.316,150.376 175.5,149C 174.622,147.2 173.955,145.367 173.5,143.5C 174.93,143.579 176.264,143.246 177.5,142.5C 178.182,143.243 178.849,143.909 179.5,144.5C 178.872,153.054 182.538,156.221 190.5,154C 194.912,145.939 192.579,141.772 183.5,141.5C 182.448,141.649 181.448,141.483 180.5,141C 181.833,140.333 181.833,139.667 180.5,139C 181.529,137.302 183.029,136.468 185,136.5C 189.43,137.132 193.263,138.965 196.5,142C 196.646,145.019 196.312,148.185 195.5,151.5C 192.106,153.109 190.773,155.776 191.5,159.5C 190.448,159.351 189.448,159.517 188.5,160C 188.833,160.333 189.167,160.667 189.5,161C 186.854,161.497 184.187,161.664 181.5,161.5 Z"/></g>
<g><path style="opacity:0.208" fill="#9cb0c5" d="M 176.5,158.5 C 178.434,159.11 180.101,160.11 181.5,161.5C 179.067,161.727 177.401,160.727 176.5,158.5 Z"/></g>
<g><path style="opacity:0.859" fill="#8798ac" d="M 31.5,161.5 C 32.3149,162.429 33.1482,163.429 34,164.5C 34.3333,164.167 34.6667,163.833 35,163.5C 35.5046,165.518 36.0046,167.518 36.5,169.5C 33.818,167.47 32.1514,164.803 31.5,161.5 Z"/></g>
<g><path style="opacity:0.976" fill="#33517e" d="M 145.5,154.5 C 148.709,157.228 151.209,160.561 153,164.5C 153.671,165.252 154.504,165.586 155.5,165.5C 158.518,165.704 161.518,166.037 164.5,166.5C 167.089,167.419 169.089,169.086 170.5,171.5C 171.2,175.798 171.533,180.131 171.5,184.5C 171.672,185.492 171.338,186.158 170.5,186.5C 168.833,187.5 167.5,188.833 166.5,190.5C 166.5,191.167 166.167,191.5 165.5,191.5C 162.187,190.955 158.854,190.455 155.5,190C 157.301,189.683 157.634,189.016 156.5,188C 150.391,188.784 147.391,186.118 147.5,180C 147.82,177.201 148.82,174.701 150.5,172.5C 149.312,168.76 146.978,166.093 143.5,164.5C 142.662,164.158 142.328,163.492 142.5,162.5C 141.677,160.545 141.51,158.545 142,156.5C 142.333,156.833 142.667,157.167 143,157.5C 143.333,156.167 143.667,154.833 144,153.5C 144.383,154.056 144.883,154.389 145.5,154.5 Z"/></g>
<g><path style="opacity:0.067" fill="#bed6e5" d="M 155.5,165.5 C 158.627,164.185 161.627,164.518 164.5,166.5C 161.518,166.037 158.518,165.704 155.5,165.5 Z"/></g>
<g><path style="opacity:0.047" fill="#d6e6f2" d="M 121.5,148.5 C 120.791,149.404 119.791,149.737 118.5,149.5C 118.83,166.342 118.497,183.008 117.5,199.5C 117.5,182.5 117.5,165.5 117.5,148.5C 118.833,148.5 120.167,148.5 121.5,148.5 Z"/></g>
<g><path style="opacity:0.216" fill="#a1b8cd" d="M 51.5,178.5 C 54.3878,177.99 56.7211,178.656 58.5,180.5C 55.9902,180.073 53.6568,179.407 51.5,178.5 Z"/></g>
<g><path style="opacity:1" fill="#a7d1f0" d="M 155.5,172.5 C 162.164,172 165.331,175 165,181.5C 164.535,182.931 163.701,184.097 162.5,185C 154.729,187.219 151.229,184.386 152,176.5C 153.376,175.295 154.542,173.962 155.5,172.5 Z"/></g>
<g><path style="opacity:0.388" fill="#8996ac" d="M 170.5,171.5 C 172.053,174.017 173.053,176.85 173.5,180C 173.101,181.728 172.434,183.228 171.5,184.5C 171.533,180.131 171.2,175.798 170.5,171.5 Z"/></g>
<g><path style="opacity:0.227" fill="#afbbcf" d="M 61.5,185.5 C 64.0892,186.419 66.0892,188.086 67.5,190.5C 64.9108,189.581 62.9108,187.914 61.5,185.5 Z"/></g>
<g><path style="opacity:0.575" fill="#576b82" d="M 123.5,141.5 C 123.833,141.5 124.167,141.5 124.5,141.5C 125.227,143.717 125.06,146.05 124,148.5C 123.23,149.598 122.397,149.598 121.5,148.5C 120.167,148.5 118.833,148.5 117.5,148.5C 117.5,165.5 117.5,182.5 117.5,199.5C 115.167,200.833 112.833,200.833 110.5,199.5C 112.5,199.5 114.5,199.5 116.5,199.5C 116.83,182.658 116.497,165.992 115.5,149.5C 115.328,148.508 115.662,147.842 116.5,147.5C 118.833,147.5 121.167,147.5 123.5,147.5C 123.5,145.5 123.5,143.5 123.5,141.5 Z"/></g>
<g><path style="opacity:1" fill="#4d6384" d="M 143.5,164.5 C 146.978,166.093 149.312,168.76 150.5,172.5C 148.82,174.701 147.82,177.201 147.5,180C 147.391,186.118 150.391,188.784 156.5,188C 157.634,189.016 157.301,189.683 155.5,190C 158.854,190.455 162.187,190.955 165.5,191.5C 158.92,194.757 152.92,193.757 147.5,188.5C 143.934,182.722 143.601,176.722 146.5,170.5C 145.511,168.506 144.511,166.506 143.5,164.5 Z"/></g>
<g><path style="opacity:0.051" fill="#b6c3d1" d="M 170.5,186.5 C 170.167,188.833 168.833,190.167 166.5,190.5C 167.5,188.833 168.833,187.5 170.5,186.5 Z"/></g>
<g><path style="opacity:0.015" fill="#f5f9fd" d="M 110.5,199.5 C 109.833,195.833 109.167,192.167 108.5,188.5C 108.783,187.711 109.283,187.044 110,186.5C 110.499,190.821 110.666,195.154 110.5,199.5 Z"/></g>
<g><path style="opacity:0.235" fill="#8599ac" d="M 74.5,194.5 C 81.1373,195.276 87.8039,195.609 94.5,195.5C 92.0221,196.164 89.3555,196.497 86.5,196.5C 82.2227,196.663 78.2227,195.997 74.5,194.5 Z"/></g>
<g><path style="opacity:0.937" fill="#5e718c" d="M 110.5,205.5 C 113.064,205.979 115.564,206.645 118,207.5C 118.772,211.89 118.606,216.223 117.5,220.5C 114.966,221.777 112.466,221.777 110,220.5C 109.222,215.416 109.389,210.416 110.5,205.5 Z"/></g>
</svg>
