<svg width="36" height="36" viewBox="0 0 36 36" fill="none" xmlns="http://www.w3.org/2000/svg">
<g filter="url(#filter0_d_3321_7658)">
<path d="M23.4385 21.9297C21.778 24.3582 19.3465 25.5057 16.501 25.5057C13.045 25.5057 10.087 22.8462 10.5115 19.3197C10.984 15.4077 14.0215 13.7247 19.0735 13.1052C19.975 12.9957 20.3485 12.9642 22.294 12.8202L22.501 12.8052V12.4827C22.501 9.78871 20.899 7.94971 18.751 7.94971C16.5955 7.94971 15.091 9.07021 14.1685 11.7387L11.3335 10.7607C12.664 6.90571 15.2905 4.94971 18.751 4.94971C22.6555 4.94971 25.501 8.21671 25.501 12.4827C25.501 16.4562 25.7455 19.6167 26.2255 20.8182C26.7595 22.1562 26.9545 22.4937 27.5515 23.2377L25.2115 25.1142C24.427 24.1362 24.082 23.5407 23.44 21.9312V21.9297H23.4385ZM31.8865 30.8172C31.48 31.1172 30.7735 30.9387 31.093 30.1572C31.4905 29.1852 31.9135 28.0452 31.486 27.5292C31.171 27.1467 30.7855 26.9562 29.9455 26.9562C29.2555 26.9562 28.9105 27.0462 28.453 27.0762C28.147 27.0957 28.0135 26.6307 28.3165 26.4162C28.7133 26.1319 29.1542 25.915 29.6215 25.7742C31.3465 25.2582 33.379 25.5417 33.6265 25.8987C34.174 26.6937 33.328 29.7522 31.8865 30.8187V30.8172ZM30.1135 29.1912C29.724 29.568 29.3079 29.9164 28.8685 30.2337C25.6855 32.6577 21.5635 33.9237 17.9815 33.9237C12.217 33.9237 7.0615 31.2342 3.1495 26.7312C2.815 26.3862 3.0925 25.8822 3.484 26.1552C7.699 29.2707 12.916 31.1547 18.3175 31.1547C21.715 31.1547 25.3795 30.3492 28.87 28.6152C29.113 28.5012 29.386 28.3452 29.6245 28.2342C30.175 27.9192 30.6595 28.6932 30.1135 29.1912V29.1912ZM22.516 15.8112C20.629 15.9522 20.272 15.9807 19.438 16.0827C15.61 16.5522 13.7425 17.5872 13.4905 19.6797C13.3015 21.2442 14.7055 22.5057 16.501 22.5057C19.5595 22.5057 21.7765 20.6637 22.534 15.8112H22.516V15.8112Z" fill="url(#paint0_linear_3321_7658)" shape-rendering="crispEdges"/>
</g>
<defs>
<filter id="filter0_d_3321_7658" x="2.25" y="4.57471" width="32.2949" height="30.4741" filterUnits="userSpaceOnUse" color-interpolation-filters="sRGB">
<feFlood flood-opacity="0" result="BackgroundImageFix"/>
<feColorMatrix in="SourceAlpha" type="matrix" values="0 0 0 0 0 0 0 0 0 0 0 0 0 0 0 0 0 0 127 0" result="hardAlpha"/>
<feOffset dy="0.375"/>
<feGaussianBlur stdDeviation="0.375"/>
<feComposite in2="hardAlpha" operator="out"/>
<feColorMatrix type="matrix" values="0 0 0 0 0 0 0 0 0 0 0 0 0 0 0 0 0 0 0.2 0"/>
<feBlend mode="normal" in2="BackgroundImageFix" result="effect1_dropShadow_3321_7658"/>
<feBlend mode="normal" in="SourceGraphic" in2="effect1_dropShadow_3321_7658" result="shape"/>
</filter>
<linearGradient id="paint0_linear_3321_7658" x1="18.3972" y1="4.94971" x2="18.3972" y2="33.9237" gradientUnits="userSpaceOnUse">
<stop stop-color="white"/>
<stop offset="1" stop-color="white" stop-opacity="0.7"/>
</linearGradient>
</defs>
</svg>
