<?xml version="1.0" encoding="UTF-8"?>
<!DOCTYPE svg PUBLIC "-//W3C//DTD SVG 1.1//EN" "http://www.w3.org/Graphics/SVG/1.1/DTD/svg11.dtd">
<svg xmlns="http://www.w3.org/2000/svg" version="1.1" width="359px" height="140px" style="shape-rendering:geometricPrecision; text-rendering:geometricPrecision; image-rendering:optimizeQuality; fill-rule:evenodd; clip-rule:evenodd" xmlns:xlink="http://www.w3.org/1999/xlink">
<g><path style="opacity:0.902" fill="#fefefe" d="M 89.5,-0.5 C 96.8333,-0.5 104.167,-0.5 111.5,-0.5C 121.343,1.50976 126.843,7.50976 128,17.5C 128.333,29.8333 128.667,42.1667 129,54.5C 129.667,56.5 131,57.8333 133,58.5C 133.667,60.5 133.667,62.5 133,64.5C 129.603,67.7828 125.77,70.4495 121.5,72.5C 118.88,70.5969 116.713,68.2636 115,65.5C 108.606,68.7269 102.106,71.7269 95.5,74.5C 77.3967,73.9969 69.23,64.6635 71,46.5C 76.4013,33.1405 86.4013,27.1405 101,28.5C 114.194,31.6434 117.528,27.31 111,15.5C 105.038,11.7877 98.5381,10.6211 91.5,12C 87.4825,13.1703 83.4825,14.337 79.5,15.5C 77.626,15.6102 76.126,14.9436 75,13.5C 73.2913,6.86431 75.7913,2.69765 82.5,1C 85.0356,0.813823 87.369,0.313823 89.5,-0.5 Z M 98.5,40.5 C 104.52,39.2202 109.353,40.8868 113,45.5C 113.076,52.8266 109.576,57.6599 102.5,60C 98.8333,60.6667 95.1667,60.6667 91.5,60C 89.508,59.4257 88.008,58.259 87,56.5C 85.6679,47.3455 89.5012,42.0122 98.5,40.5 Z"/></g>
<g><path style="opacity:0.893" fill="#fefefe" d="M 138.5,-0.5 C 140.833,-0.5 143.167,-0.5 145.5,-0.5C 150.358,3.22547 152.524,8.22547 152,14.5C 155.242,26.1789 158.575,37.8455 162,49.5C 166.218,36.0838 169.551,22.4172 172,8.5C 173.137,2.44283 176.804,-0.223837 183,0.5C 185.47,0.34026 187.636,1.00693 189.5,2.5C 193.606,14.9226 196.772,27.5893 199,40.5C 199.197,42.8609 200.364,44.5276 202.5,45.5C 207.696,34.3906 211.196,22.7239 213,10.5C 214.043,5.72067 216.543,2.054 220.5,-0.5C 223.167,-0.5 225.833,-0.5 228.5,-0.5C 229.072,1.25542 229.906,2.92209 231,4.5C 231.969,7.32849 231.303,9.66182 229,11.5C 223.184,27.6124 218.184,43.9458 214,60.5C 210.295,71.6257 203.295,74.2923 193,68.5C 191.162,56.9818 188.495,45.6485 185,34.5C 184.059,32.9386 182.892,31.6053 181.5,30.5C 180.062,34.18 178.562,37.8466 177,41.5C 176.35,48.2208 174.85,54.7208 172.5,61C 175.183,68.4909 172.517,71.6576 164.5,70.5C 160.542,70.8892 157.042,69.8892 154,67.5C 147.311,47.0588 140.478,26.7255 133.5,6.5C 134.065,3.28424 135.732,0.950906 138.5,-0.5 Z"/></g>
<g><path style="opacity:0.893" fill="#fefefe" d="M 247.5,-0.5 C 256.5,-0.5 265.5,-0.5 274.5,-0.5C 277.021,1.01922 279.521,2.68589 282,4.5C 283.664,7.28934 283.83,10.1227 282.5,13C 274.187,12.1354 265.853,11.4687 257.5,11C 251.857,12.7791 249.69,16.6125 251,22.5C 252.543,24.3783 254.376,25.8783 256.5,27C 264.629,28.8208 272.296,31.8208 279.5,36C 290.167,46.6667 290.167,57.3333 279.5,68C 265.633,76.5309 251.633,76.5309 237.5,68C 235.259,66.2609 233.592,64.0942 232.5,61.5C 233.078,58.4196 234.912,57.0863 238,57.5C 242.578,57.9631 247.078,58.7965 251.5,60C 256.5,60.6667 261.5,60.6667 266.5,60C 274.482,54.809 274.149,49.809 265.5,45C 260.465,42.4074 255.132,40.7408 249.5,40C 236.996,33.8255 232.496,23.9921 236,10.5C 239.303,6.26775 243.136,2.60109 247.5,-0.5 Z"/></g>
<g><path style="opacity:1" fill="#f89811" d="M 257.5,97.5 C 253.167,97.1749 252.5,95.5082 255.5,92.5C 256.975,90.5905 258.975,89.4238 261.5,89C 266.92,87.4577 272.42,86.291 278,85.5C 283.206,86.1153 288.372,86.9486 293.5,88C 295.303,88.6368 296.636,89.8035 297.5,91.5C 296.481,104.146 292.648,115.479 286,125.5C 283.667,127.5 281.333,129.5 279,131.5C 277.978,130.646 277.145,129.646 276.5,128.5C 281.386,118.965 283.719,108.965 283.5,98.5C 279.905,97.4624 276.238,96.7958 272.5,96.5C 267.526,97.2552 262.526,97.5885 257.5,97.5 Z"/></g>
<g><path style="opacity:0.608" fill="#dd9232" d="M 255.5,92.5 C 252.5,95.5082 253.167,97.1749 257.5,97.5C 255.777,98.807 253.943,98.807 252,97.5C 251.36,94.6318 252.527,92.9651 255.5,92.5 Z"/></g>
<g><path style="opacity:0.997" fill="#fa980a" d="M 139.5,118.5 C 139.918,119.222 140.584,119.722 141.5,120C 144.5,120.333 147.5,120.667 150.5,121C 148.998,121.583 147.665,122.416 146.5,123.5C 148.307,124.799 149.973,124.632 151.5,123C 166.5,122.333 181.5,122.333 196.5,123C 197.593,124.365 198.926,124.699 200.5,124C 200.167,123.667 199.833,123.333 199.5,123C 203.346,122.987 206.679,121.82 209.5,119.5C 230.912,117.685 251.412,112.018 271,102.5C 271.741,103.641 272.575,103.641 273.5,102.5C 276.021,104.26 276.854,106.593 276,109.5C 260.58,120.459 243.747,128.626 225.5,134C 217.365,135.87 209.365,137.703 201.5,139.5C 200.5,139.5 199.5,139.5 198.5,139.5C 198.167,138.167 197.833,138.167 197.5,139.5C 184.833,139.5 172.167,139.5 159.5,139.5C 158.833,138.167 158.167,138.167 157.5,139.5C 156.833,139.5 156.167,139.5 155.5,139.5C 120.209,134.279 89.0427,119.612 62,95.5C 59.9968,93.2751 60.4968,91.6085 63.5,90.5C 87.7772,103.693 113.111,113.026 139.5,118.5 Z"/></g>
<g><path style="opacity:1" fill="#ed9825" d="M 139.5,118.5 C 163.006,121.94 186.339,122.273 209.5,119.5C 206.679,121.82 203.346,122.987 199.5,123C 199.833,123.333 200.167,123.667 200.5,124C 198.926,124.699 197.593,124.365 196.5,123C 181.5,122.333 166.5,122.333 151.5,123C 149.973,124.632 148.307,124.799 146.5,123.5C 147.665,122.416 148.998,121.583 150.5,121C 147.5,120.667 144.5,120.333 141.5,120C 140.584,119.722 139.918,119.222 139.5,118.5 Z"/></g>
</svg>
