<?xml version="1.0" encoding="UTF-8"?>
<svg version="1.1" xmlns="http://www.w3.org/2000/svg" width="658" height="418">
<path d="M0 0 C5.25034855 0.1665273 9.2432746 3.09161089 13.6015625 5.76953125 C15.48790591 6.88435361 17.37597364 7.99626269 19.265625 9.10546875 C20.22114258 9.66975586 21.17666016 10.23404297 22.16113281 10.81542969 C99.59587636 55.96555244 196.06878388 80.55984975 301.2890625 81.64453125 C302.39594421 81.643927 303.50282593 81.64332275 304.64324951 81.6427002 C321.5072686 81.61774126 338.19553915 81.26709119 354.9765625 79.45703125 C356.17603516 79.33344238 357.37550781 79.20985352 358.61132812 79.08251953 C416.34525289 72.9916643 472.37199083 58.59215263 525.92797852 36.22436523 C526.81283936 35.85770752 527.6977002 35.4910498 528.609375 35.11328125 C529.36750488 34.79294922 530.12563477 34.47261719 530.90673828 34.14257812 C534.29728746 33.01959368 536.63144247 33.34199124 539.9765625 34.45703125 C543.63838432 37.10600874 544.81753797 38.46754528 545.5390625 42.95703125 C544.69071555 48.23563452 541.78333567 50.97065353 537.640625 54.11328125 C536.3015925 55.0715127 534.95469568 56.01881691 533.6015625 56.95703125 C532.86695801 57.47040039 532.13235352 57.98376953 531.37548828 58.51269531 C521.89809634 65.02508213 511.96780696 70.77746702 501.9765625 76.45703125 C501.30447754 76.84342773 500.63239258 77.22982422 499.93994141 77.62792969 C452.5718214 104.71359294 397.65623393 118.38439628 343.9765625 125.45703125 C342.70071289 125.63733887 341.42486328 125.81764648 340.11035156 126.00341797 C332.67307989 126.80573796 325.15971426 126.66417457 317.6875 126.6953125 C316.85184132 126.69938803 316.01618263 126.70346355 315.15520096 126.70766258 C310.71040352 126.72846727 306.26563621 126.74277913 301.82080078 126.75219727 C298.21385261 126.76095433 294.60730271 126.78158781 291.00048828 126.8137207 C202.8698388 127.58136859 114.58214016 100.41624928 42.9765625 48.45703125 C42.2247168 47.91868652 41.47287109 47.3803418 40.69824219 46.82568359 C30.01429103 39.16993112 19.80496912 31.18185192 9.9765625 22.45703125 C8.47731052 21.14367686 6.97743763 19.83103042 5.4765625 18.51953125 C4.87714844 17.99101562 4.27773438 17.4625 3.66015625 16.91796875 C1.97910259 15.45923542 0.2650156 14.04966012 -1.4609375 12.64453125 C-4.0234375 10.45703125 -4.0234375 10.45703125 -5.0234375 8.45703125 C-5.2109375 5.45703125 -5.2109375 5.45703125 -5.0234375 2.45703125 C-3.0234375 0.45703125 -3.0234375 0.45703125 0 0 Z " fill="#FF9B05" transform="translate(30.0234375,263.54296875)"/>
<path d="M0 0 C1.24845703 0.00322266 2.49691406 0.00644531 3.78320312 0.00976562 C5.02005859 -0.00634766 6.25691406 -0.02246094 7.53125 -0.0390625 C8.72427734 -0.03970703 9.91730469 -0.04035156 11.14648438 -0.04101562 C12.23872314 -0.04399658 13.33096191 -0.04697754 14.45629883 -0.05004883 C17.9416177 0.38042912 19.64048718 1.26779317 22.47070312 3.32226562 C23.68896484 5.47271729 23.68896484 5.47271729 24.52539062 8.03417969 C25.00830566 9.51053894 25.00830566 9.51053894 25.50097656 11.01672363 C27.34055144 17.28734902 28.99590103 23.59689381 30.59570312 29.93164062 C30.98321023 31.44853994 31.37121796 32.96531145 31.75968933 34.48196411 C32.79081048 38.51328899 33.81518128 42.54629885 34.83800888 46.5797348 C35.89728412 50.75280291 36.96219137 54.92443317 38.02661133 59.09619141 C39.30418515 64.10497435 40.58103417 69.11393809 41.85481262 74.12368774 C44.3474301 83.92654681 46.85751468 93.72458588 49.38867188 103.51757812 C50.22141728 106.74686914 51.0537788 109.97625881 51.88598633 113.20568848 C52.3982056 115.1900321 52.91186298 117.1740051 53.42700195 119.15759277 C54.12694088 121.85460623 54.82104328 124.5530547 55.51367188 127.25195312 C55.8169062 128.41067429 55.8169062 128.41067429 56.12626648 129.59280396 C56.9910079 132.98453324 57.47070312 135.79341433 57.47070312 139.32226562 C58.13070312 139.32226562 58.79070312 139.32226562 59.47070312 139.32226562 C59.58988602 138.04170792 59.70906891 136.76115021 59.8318634 135.44178772 C60.40403951 130.32365061 61.48313001 125.41052883 62.69213867 120.40991211 C63.02902962 118.98810135 63.02902962 118.98810135 63.37272644 117.53756714 C64.11244345 114.42157225 64.85982976 111.30747339 65.60742188 108.19335938 C66.1301376 105.99937574 66.65241269 103.80528707 67.17427063 101.61109924 C68.26974434 97.00988686 69.36868921 92.40952324 70.47045898 87.80981445 C71.86556616 81.98542596 73.25498927 76.15970284 74.6420927 70.33340359 C75.98278868 64.70293204 77.32617832 59.07310425 78.66992188 53.44335938 C78.918169 52.40258177 79.16641613 51.36180416 79.4221859 50.28948784 C80.61455907 45.29444214 81.81322397 40.30107877 83.02523804 35.3107605 C84.05081933 31.08748141 85.04446325 26.85782407 86.02578735 22.62405396 C86.54451922 20.43750133 87.06366191 18.25104612 87.58325195 16.06469727 C87.81351672 15.04653899 88.04378149 14.02838072 88.28102398 12.97936916 C90.38671927 4.24390185 90.38671927 4.24390185 94.47070312 1.32226562 C98.90920282 -0.89698422 104.90935516 0.04750838 109.78320312 0.00976562 C111.02005859 -0.01923828 112.25691406 -0.04824219 113.53125 -0.078125 C114.72427734 -0.08650391 115.91730469 -0.09488281 117.14648438 -0.10351562 C118.23872314 -0.11809814 119.33096191 -0.13268066 120.45629883 -0.14770508 C124.4118906 0.46900458 125.80982793 1.30600248 128.47070312 4.32226562 C129.89768798 7.54720745 130.65530773 10.89882861 131.47070312 14.32226562 C131.94748505 16.23850235 131.94748505 16.23850235 132.43389893 18.19345093 C133.59413424 22.88929765 134.70833168 27.5957303 135.82226562 32.30273438 C136.24460348 34.07836522 136.66716499 35.85394289 137.0899353 37.62947083 C137.97761846 41.3602196 138.86335534 45.09142302 139.74755859 48.82299805 C140.85051052 53.47757074 141.95702861 58.13128527 143.06486893 62.78469658 C145.88370364 74.62658492 148.68382895 86.47281683 151.47070312 98.32226562 C151.79943672 99.7188377 151.79943672 99.7188377 152.1348114 101.14362335 C153.43423427 106.66635598 154.72818213 112.19032338 156.01438522 117.71615028 C156.41423678 119.43151077 156.8155414 121.14653326 157.21837234 122.86119652 C157.77208171 125.22005301 158.32015367 127.58014877 158.86669922 129.94067383 C159.03059521 130.63389299 159.1944912 131.32711216 159.36335373 132.04133797 C160.10416338 135.26834369 160.47070312 137.9816891 160.47070312 141.32226562 C161.13070312 141.32226562 161.79070312 141.32226562 162.47070312 141.32226562 C162.58864731 140.19515671 162.70659149 139.06804779 162.82810974 137.90678406 C163.42617599 133.15145157 164.5418077 128.60171691 165.75219727 123.9699707 C165.98333221 123.06928864 166.21446716 122.16860657 166.4526062 121.2406311 C167.21550537 118.27307878 167.98554508 115.30743226 168.75585938 112.34179688 C169.29613655 110.24803428 169.83604164 108.15417565 170.37559509 106.06022644 C171.50993101 101.66231373 172.64759552 97.26528045 173.7878418 92.86889648 C175.22604016 87.32333855 176.65786118 81.77616055 178.08751869 76.22839546 C181.28777369 63.81200271 184.51315184 51.40237166 187.76828766 39.00025177 C188.43085252 36.47419761 189.09116253 33.9475634 189.75115967 31.4208374 C190.82836671 27.3043089 191.92607167 23.19361625 193.02929688 19.08398438 C193.32763931 17.94226273 193.62598175 16.80054108 193.93336487 15.6242218 C195.42355925 10.15816413 196.85266087 5.73116206 200.47070312 1.32226562 C204.93757047 -0.91116805 211.00302131 0.04747845 215.90820312 0.00976562 C217.16181641 -0.01923828 218.41542969 -0.04824219 219.70703125 -0.078125 C221.50624023 -0.09069336 221.50624023 -0.09069336 223.34179688 -0.10351562 C224.99586548 -0.1253894 224.99586548 -0.1253894 226.68334961 -0.14770508 C229.47070312 0.32226562 229.47070312 0.32226562 231.17887878 2.07835388 C232.74329511 4.79576061 232.64964718 5.69107643 231.92724609 8.69482422 C231.60962311 10.02039337 231.60962311 10.02039337 231.2855835 11.3727417 C229.70937222 17.07796302 227.96593359 22.7234093 226.16601562 28.36132812 C225.72974201 29.74160272 225.29396447 31.1220342 224.85864258 32.50260925 C223.92844759 35.44935523 222.99509323 38.39507332 222.05914307 41.33999634 C220.57774879 46.0013307 219.10334121 50.66485517 217.63037109 55.32885742 C217.12711494 56.92216783 216.62384951 58.51547531 216.12057495 60.10877991 C215.74418695 61.30041087 215.74418695 61.30041087 215.36019516 62.51611519 C214.5916653 64.94832562 213.82242811 67.38031134 213.05300903 69.8122406 C209.62937355 80.63582 206.22766912 91.46606451 202.84570312 102.30273438 C202.62184811 103.01994156 202.39799309 103.73714874 202.16735458 104.47608948 C200.23253555 110.67584798 198.29953552 116.87617311 196.36724854 123.07672119 C194.46269269 129.18730572 192.55437593 135.29665032 190.63574219 141.40283203 C189.15666538 146.11196259 187.70432608 150.82838279 186.26660156 155.55029297 C185.56144955 157.83243454 184.85605653 160.11450166 184.15039062 162.39648438 C183.83740021 163.44326859 183.52440979 164.4900528 183.20193481 165.56855774 C182.75078812 167.01418343 182.75078812 167.01418343 182.29052734 168.48901367 C182.03439667 169.32965866 181.77826599 170.17030365 181.51437378 171.03642273 C179.96929708 174.42044296 177.79566969 176.65978234 174.47070312 178.32226562 C170.03855251 178.59420198 165.59774421 178.55392988 161.15820312 178.57226562 C159.92134766 178.59289062 158.68449219 178.61351562 157.41015625 178.63476562 C155.62061523 178.6425 155.62061523 178.6425 153.79492188 178.65039062 C152.70268311 178.65973633 151.61044434 178.66908203 150.48510742 178.67871094 C146.92791563 178.25808244 145.22227619 177.62340012 142.47070312 175.32226562 C139.99254646 170.24499423 138.5295446 165.18070911 137.23754883 159.69775391 C137.03538254 158.86216446 136.83321625 158.02657501 136.62492371 157.16566467 C135.95958029 154.40934341 135.30302445 151.65100831 134.64648438 148.89257812 C134.17724096 146.94126391 133.70743749 144.9900843 133.23710632 143.03903198 C131.99683024 137.88765083 130.76393282 132.73453161 129.53265381 127.58099365 C128.30853141 122.46248919 127.07793585 117.34554297 125.84765625 112.22851562 C124.17546319 105.27123114 122.50526743 98.3134739 120.83787346 91.35503769 C117.07905923 75.67009691 113.28220853 59.99447817 109.47070312 44.32226562 C107.17429478 50.81858239 105.3899449 57.34903637 103.80688477 64.05175781 C103.55927902 65.08557587 103.31167328 66.11939392 103.05656433 67.18453979 C102.5228428 69.41515526 101.99093865 71.64620621 101.46068001 73.8776474 C100.6188241 77.41977936 99.77190501 80.96066735 98.9236908 84.50128174 C96.81783538 93.29601372 94.72039856 102.09274872 92.62310791 110.88952637 C90.8492508 118.32848223 89.07196325 125.7666022 87.29012871 133.20365143 C86.46038472 136.67295469 85.6356216 140.14341691 84.81105042 143.61395264 C83.40097794 149.52609881 81.95876299 155.42925701 80.47070312 161.32226562 C80.284669 162.06315933 80.09863487 162.80405304 79.90696335 163.56739807 C79.43108052 165.4204936 78.92214816 167.26502064 78.40991211 169.10839844 C78.15056381 170.04677551 77.89121552 170.98515259 77.62400818 171.95196533 C76.12533283 175.03207896 74.30103197 176.43978679 71.47070312 178.32226562 C68.50390625 178.82397461 68.50390625 178.82397461 65.25195312 178.81835938 C63.48271484 178.81932617 63.48271484 178.81932617 61.67773438 178.8203125 C60.45441406 178.80033203 59.23109375 178.78035156 57.97070312 178.75976562 C56.74738281 178.76685547 55.5240625 178.77394531 54.26367188 178.78125 C43.39399217 178.7040337 43.39399217 178.7040337 39.47070312 175.32226562 C35.46831747 168.70105288 33.62890261 160.78515039 31.44335938 153.43164062 C31.05861457 152.15324934 30.67331391 150.87502523 30.2875061 149.59695435 C29.46169791 146.85744142 28.63948223 144.11688687 27.82015991 141.37542725 C26.51576584 137.01109811 25.20360185 132.64913059 23.88989258 128.28759766 C23.43692204 126.78348181 22.983965 125.27936191 22.53102112 123.77523804 C22.30408632 123.02165386 22.07715153 122.26806969 21.84333992 121.49164963 C21.14474353 119.17069168 20.44695738 116.84949148 19.74937439 114.52822876 C16.43321614 103.49645007 13.08939573 92.47330953 9.72851562 81.45507812 C9.49378225 80.68532654 9.25904888 79.91557495 9.01720238 79.12249756 C6.95722342 72.36748972 4.89612526 65.61282394 2.83303833 58.85876465 C0.40196499 50.89841856 -2.01903844 42.93518358 -4.42486572 34.96716309 C-5.51498224 31.36950749 -6.61841133 27.77610718 -7.72216797 24.18261719 C-8.3812725 22.00282737 -9.03968035 19.82282674 -9.69726562 17.64257812 C-10.15496086 16.17170242 -10.15496086 16.17170242 -10.62190247 14.67111206 C-10.89064682 13.76982574 -11.15939117 12.86853943 -11.4362793 11.93994141 C-11.67311935 11.16353302 -11.90995941 10.38712463 -12.15397644 9.58718872 C-12.60468044 6.86735307 -12.3111522 4.95703736 -11.52929688 2.32226562 C-8.28878562 -0.91824563 -4.41476204 0.02632107 0 0 Z " fill="#283442" transform="translate(225.529296875,33.677734375)"/>
<path d="M0 0 C12.39858828 9.88568129 17.85867116 26.14400314 19.60546875 41.37890625 C19.92113565 46.92067122 19.90441777 52.47342056 19.910429 58.02253723 C19.91414308 60.78253865 19.93100327 63.54219656 19.95118713 66.30212402 C20.00613146 74.14031558 20.03724403 81.97855475 20.06176758 89.81689453 C20.07774051 94.63544646 20.10805055 99.45374913 20.14653206 104.27217102 C20.15808589 106.09317865 20.16411156 107.91423098 20.16421318 109.73527527 C20.16517603 122.39053882 20.88384242 133.78582403 26.79296875 145.25390625 C28.97929775 149.49889541 30.40653615 152.57250183 29.60546875 157.37890625 C26.50372616 161.1737122 22.76682714 163.88208574 18.73046875 166.62890625 C17.74304688 167.3146875 16.755625 168.00046875 15.73828125 168.70703125 C12.20172574 170.5943701 9.60686551 171.25807429 5.60546875 171.37890625 C-1.30017429 168.24567438 -5.09689148 160.46187231 -8.73046875 154.171875 C-10.2526682 151.35708061 -10.2526682 151.35708061 -12.39453125 149.37890625 C-12.85601562 149.87519531 -13.3175 150.37148437 -13.79296875 150.8828125 C-27.29274796 164.94285922 -45.67294727 174.54508928 -65.39453125 175.37890625 C-66.15765625 175.41886719 -66.92078125 175.45882812 -67.70703125 175.5 C-83.31435102 175.92519942 -98.81010583 172.25779692 -110.39453125 161.37890625 C-119.94464154 152.28168779 -125.12611676 140.47607918 -125.73046875 127.36328125 C-126.02353057 110.32866063 -122.88185212 96.0217744 -111.14453125 83.03125 C-98.29884692 70.90240073 -80.84390757 65.0545555 -63.39453125 64.37890625 C-62.60820313 64.33894531 -61.821875 64.29898438 -61.01171875 64.2578125 C-45.23210549 63.84763907 -29.69276663 66.84986203 -14.39453125 70.37890625 C-13.53221457 45.37284166 -13.53221457 45.37284166 -24.421875 23.9609375 C-35.69976346 14.91629428 -52.79067093 15.15829257 -66.51123047 16.6015625 C-78.01204165 18.16847561 -89.01481913 21.77478217 -99.92578125 25.625 C-100.98796875 25.99753906 -102.05015625 26.37007812 -103.14453125 26.75390625 C-104.0675 27.09164062 -104.99046875 27.429375 -105.94140625 27.77734375 C-108.57206806 28.42244235 -109.90958576 28.41989693 -112.39453125 27.37890625 C-114.20669024 23.75458828 -113.70764823 19.55786087 -113.76953125 15.56640625 C-113.80691406 14.66341797 -113.84429687 13.76042969 -113.8828125 12.83007812 C-113.94045744 8.4714802 -113.90532889 6.11311635 -111.3671875 2.46484375 C-107.85940333 0.00340256 -104.44053682 -1.64418536 -100.45703125 -3.18359375 C-99.33312988 -3.62964966 -99.33312988 -3.62964966 -98.18652344 -4.0847168 C-67.56435662 -15.99153431 -28.36150429 -19.20069214 0 0 Z M-84.76953125 100.87890625 C-90.31215557 109.40602059 -91.81397323 118.09382901 -89.86328125 128.10546875 C-87.70925104 135.85529483 -84.68232036 141.26350826 -77.59765625 145.34375 C-65.04053145 151.2438175 -50.67663454 148.13191529 -38.14453125 143.69140625 C-29.2603869 139.83381726 -21.55058339 133.20889864 -17.39453125 124.37890625 C-14.65153162 117.25250973 -13.99917276 110.84340594 -14.20703125 103.25390625 C-14.22056641 102.29742187 -14.23410156 101.3409375 -14.24804688 100.35546875 C-14.28293903 98.02932515 -14.33194786 95.70444095 -14.39453125 93.37890625 C-16.72714148 92.89598304 -19.06052713 92.41750766 -21.39453125 91.94140625 C-22.04292969 91.80669922 -22.69132812 91.67199219 -23.359375 91.53320312 C-43.31997933 87.48179334 -69.54290347 84.85087701 -84.76953125 100.87890625 Z " fill="#273342" transform="translate(175.39453125,41.62109375)"/>
<path d="M0 0 C4.39951224 5.13276428 4.5720848 10.7528711 4.453125 17.24609375 C4.19648155 20.25178336 3.41796836 22.85107514 2.25 25.625 C-3.58076695 25.91428833 -7.69924609 25.17441454 -13.0625 22.8125 C-30.50985744 15.73705477 -52.93588453 13.19014625 -70.6875 20.4375 C-76.09670218 23.11764719 -79.41433106 26.20029179 -81.625 31.875 C-83.46798794 38.21487852 -82.68192449 43.2344111 -80.3125 49.3125 C-75.90839898 56.06649238 -67.67549959 58.7910955 -60.43359375 61.46875 C-59.39201363 61.85662437 -59.39201363 61.85662437 -58.32939148 62.25233459 C-53.39591337 64.06873659 -48.42830799 65.75562154 -43.42578125 67.37109375 C-42.73735138 67.59382462 -42.04892151 67.81655548 -41.33963013 68.04603577 C-38.54575333 68.94723703 -35.75125256 69.84581648 -32.95092773 70.72680664 C-16.25928374 75.99571661 0.33516544 82.89923805 9.06640625 99.125 C14.3405451 110.26509526 15.35591757 124.12444901 12.125 136.125 C6.15869299 152.17520618 -3.85820019 162.54357952 -19.25 169.9375 C-46.15900511 181.69820532 -78.74967237 178.67578275 -105.75 168.625 C-111.25186973 166.20477862 -115.5645535 163.88760856 -118.75 158.625 C-119.25008793 155.37921576 -119.17357362 152.21293767 -119.0625 148.9375 C-119.05283203 148.07060547 -119.04316406 147.20371094 -119.03320312 146.31054688 C-118.91961133 139.96422266 -118.91961133 139.96422266 -117.75 137.625 C-114.58395902 136.38643106 -112.73264112 136.70687993 -109.6171875 137.91796875 C-108.81974121 138.21687012 -108.02229492 138.51577148 -107.20068359 138.82373047 C-106.35070801 139.15002441 -105.50073242 139.47631836 -104.625 139.8125 C-92.14640824 144.39140244 -79.11619426 148.11177384 -65.75 148.625 C-64.82316406 148.66496094 -63.89632812 148.70492187 -62.94140625 148.74609375 C-50.75286889 149.01554126 -37.33678428 147.89105983 -27.3125 140.25 C-22.62252289 135.4456332 -21.15004855 130.78874541 -20.6953125 124.21484375 C-20.81744285 118.43109922 -22.364464 113.52925661 -26.5625 109.4375 C-37.36339476 101.51879259 -51.68464983 98.29491192 -64.35839844 94.59863281 C-72.69721066 92.15292243 -80.67149511 89.45010594 -88.46875 85.578125 C-89.1125058 85.25937408 -89.7562616 84.94062317 -90.41952515 84.61221313 C-103.30021795 77.94294975 -111.28574393 67.25272904 -115.75 53.625 C-118.77112844 42.91720298 -117.75057813 29.49938104 -112.75 19.625 C-103.40224327 3.98913604 -89.53600542 -4.72851052 -72.375 -9.875 C-51.42778231 -14.95472017 -18.15372245 -13.2461372 0 0 Z " fill="#283342" transform="translate(589.75,40.375)"/>
<path d="M0 0 C0.70205566 0.00149048 1.40411133 0.00298096 2.12744141 0.0045166 C29.38161359 0.10857573 29.38161359 0.10857573 40.1875 7.3125 C43.72722651 11.71034202 43.65682475 15.72626356 43.5625 21.125 C43.55234863 21.96667725 43.54219727 22.80835449 43.53173828 23.67553711 C42.79974922 53.77504089 29.14750788 83.96790482 8.1875 105.3125 C7.24197266 106.27736328 7.24197266 106.27736328 6.27734375 107.26171875 C3.33960229 110.03158927 1.90813197 111.21908474 -2.1875 111.75 C-4.8125 111.3125 -4.8125 111.3125 -5.8125 110.3125 C-6.44836318 104.64271994 -4.50714795 100.51543169 -2.3125 95.4375 C10.73574377 64.280434 10.73574377 64.280434 12.93359375 31.05078125 C12.32537321 29.1397541 12.32537321 29.1397541 10.33203125 28.30078125 C9.56246094 28.07777344 8.79289063 27.85476563 8 27.625 C7.24332031 27.39425781 6.48664063 27.16351563 5.70703125 26.92578125 C-1.88709256 25.0772891 -9.35251674 25.07651172 -17.125 25.0625 C-17.81548431 25.0594989 -18.50596863 25.0564978 -19.21737671 25.05340576 C-32.04694825 25.02287887 -44.69350705 25.98222866 -57.43676758 27.42089844 C-58.11118896 27.49341827 -58.78561035 27.56593811 -59.48046875 27.64065552 C-61.30490797 27.83845766 -63.12775464 28.05079607 -64.95043945 28.26416016 C-67.8125 28.3125 -67.8125 28.3125 -70.8125 26.3125 C-71.4375 24.0625 -71.4375 24.0625 -70.8125 21.3125 C-66.64086515 16.75902569 -61.55936671 13.78808593 -56 11.25 C-55.27006836 10.91274902 -54.54013672 10.57549805 -53.78808594 10.22802734 C-36.65641425 2.5965136 -18.65674149 -0.09804263 0 0 Z " fill="#FF9C08" transform="translate(586.8125,254.6875)"/>
<path d="M0 0 C0.66 0.33 1.32 0.66 2 1 C-2.29 5.29 -6.58 9.58 -11 14 C-11 9.40845608 -8.09282279 7.18698368 -5 4 C-3.3719908 2.61973133 -1.71956118 1.26438322 0 0 Z " fill="#555E6A" transform="translate(71,119)"/>
<path d="M0 0 C0.66 0.33 1.32 0.66 2 1 C1.21625 1.763125 0.4325 2.52625 -0.375 3.3125 C-3.07257717 5.90891805 -3.07257717 5.90891805 -5 9 C-4.50769231 3.46153846 -4.50769231 3.46153846 -1.9375 1.125 C-1.298125 0.75375 -0.65875 0.3825 0 0 Z " fill="#616A74" transform="translate(67,42)"/>
</svg>
