<?xml version="1.0" encoding="UTF-8"?>
<!DOCTYPE svg PUBLIC "-//W3C//DTD SVG 1.1//EN" "http://www.w3.org/Graphics/SVG/1.1/DTD/svg11.dtd">
<svg xmlns="http://www.w3.org/2000/svg" version="1.1" width="3000px" height="2000px" style="shape-rendering:geometricPrecision; text-rendering:geometricPrecision; image-rendering:optimizeQuality; fill-rule:evenodd; clip-rule:evenodd" xmlns:xlink="http://www.w3.org/1999/xlink">
<g><path style="opacity:0.995" fill="#333333" d="M 1870.5,332.5 C 1876.78,331.661 1882.45,333.161 1887.5,337C 1926.83,359 1966.17,381 2005.5,403C 2011.94,406.771 2016.1,412.271 2018,419.5C 2018.67,623.5 2018.67,827.5 2018,1031.5C 2017.05,1036.06 2015.05,1040.06 2012,1043.5C 1941.05,1085.39 1869.88,1126.89 1798.5,1168C 1791.85,1171.23 1784.85,1172.23 1777.5,1171C 1705.7,1130.27 1634.04,1089.27 1562.5,1048C 1556.85,1044.21 1553.02,1039.05 1551,1032.5C 1550.33,947.833 1550.33,863.167 1551,778.5C 1552.54,772.588 1555.7,767.755 1560.5,764C 1631.83,723 1703.17,682 1774.5,641C 1781.17,639 1787.83,639 1794.5,641C 1813.17,651.667 1831.83,662.333 1850.5,673C 1854.18,674.027 1857.35,673.194 1860,670.5C 1861.33,561.581 1862,452.581 1862,343.5C 1862.93,338.283 1865.76,334.616 1870.5,332.5 Z M 1782.5,816.5 C 1784.18,816.892 1785.85,817.392 1787.5,818C 1811.78,832.054 1835.95,846.221 1860,860.5C 1861.15,875.41 1861.65,890.41 1861.5,905.5C 1861.33,919.833 1861.17,934.167 1861,948.5C 1859.13,950.709 1856.96,952.542 1854.5,954C 1831.18,967.574 1807.68,980.74 1784,993.5C 1758.45,979.629 1733.11,965.296 1708,950.5C 1706.85,935.59 1706.35,920.59 1706.5,905.5C 1706.35,890.41 1706.85,875.41 1708,860.5C 1732.74,845.571 1757.58,830.905 1782.5,816.5 Z"/></g>
<g><path style="opacity:0.992" fill="#333333" d="M 641.5,632.5 C 647.87,632.54 653.87,634.04 659.5,637C 729.997,677.414 800.33,718.081 870.5,759C 874.423,762.677 876.923,767.177 878,772.5C 878.331,865.358 878.831,957.858 879.5,1050C 878.674,1068.09 878.174,1086.26 878,1104.5C 876.36,1110.14 872.693,1113.81 867,1115.5C 859.549,1113.03 852.382,1109.86 845.5,1106C 808.695,1084.43 771.695,1063.09 734.5,1042C 730.113,1039.32 727.113,1035.98 725.5,1032C 723.332,1028.49 722.165,1024.66 722,1020.5C 721.987,966.775 721.321,913.109 720,859.5C 717.378,853.598 713.212,849.098 707.5,846C 689.329,835.413 670.995,825.08 652.5,815C 643.896,812.481 635.896,813.815 628.5,819C 610.241,829.711 592.075,840.545 574,851.5C 571.938,853.901 570.271,856.567 569,859.5C 567.679,913.775 567.013,968.109 567,1022.5C 565.688,1031.12 561.355,1037.79 554,1042.5C 511.757,1066.35 469.924,1090.18 428.5,1114C 420.756,1116.1 415.256,1113.6 412,1106.5C 410.946,1097.98 410.112,1089.48 409.5,1081C 410.516,1014.08 410.516,946.75 409.5,879C 410.022,842.525 410.856,806.025 412,769.5C 415.112,762.721 419.945,757.555 426.5,754C 494.997,714.919 563.33,675.586 631.5,636C 634.85,634.514 638.184,633.347 641.5,632.5 Z"/></g>
<g><path style="opacity:0.993" fill="#333333" d="M 2351.5,635.5 C 2358.24,635.269 2364.58,636.769 2370.5,640C 2437.17,678.667 2503.83,717.333 2570.5,756C 2579.59,760.09 2585.43,766.923 2588,776.5C 2588.67,799.5 2588.67,822.5 2588,845.5C 2587.1,849.538 2585.43,853.205 2583,856.5C 2576.76,861.37 2570.26,865.87 2563.5,870C 2525.1,891.706 2486.77,913.706 2448.5,936C 2440.87,937.933 2435.37,935.433 2432,928.5C 2431.67,906.833 2431.33,885.167 2431,863.5C 2430.59,859.509 2428.75,856.342 2425.5,854C 2403.5,841.333 2381.5,828.667 2359.5,816C 2356.59,814.682 2353.59,814.348 2350.5,815C 2347.81,816.368 2345.15,817.701 2342.5,819C 2321.33,831.5 2300.17,844 2279,856.5C 2278.33,857.833 2277.67,859.167 2277,860.5C 2276.33,888.167 2276.33,915.833 2277,943.5C 2277.67,944.833 2278.33,946.167 2279,947.5C 2350.24,989.066 2421.74,1030.23 2493.5,1071C 2495.62,1072.73 2497.12,1074.9 2498,1077.5C 2500.09,1084.98 2497.92,1090.48 2491.5,1094C 2447.89,1118.05 2404.39,1142.22 2361,1166.5C 2357.24,1166.31 2353.57,1166.31 2350,1166.5C 2345.68,1165.09 2341.52,1163.26 2337.5,1161C 2268.48,1121.51 2199.81,1082.18 2131.5,1043C 2126.42,1039.01 2123.25,1033.84 2122,1027.5C 2121.33,943.833 2121.33,860.167 2122,776.5C 2124.97,766.193 2131.47,759.026 2141.5,755C 2208.66,716.586 2275.66,677.919 2342.5,639C 2345.57,637.704 2348.57,636.538 2351.5,635.5 Z"/></g>
<g><path style="opacity:1" fill="#75ac63" d="M 1209.5,637.5 C 1210.06,638.79 1211.06,639.623 1212.5,640C 1211.84,810.714 1211.17,981.548 1210.5,1152.5C 1206.83,1145.83 1203.17,1139.17 1199.5,1132.5C 1200.33,969.667 1200.83,806.667 1201,643.5C 1201.51,642.473 1202.01,641.473 1202.5,640.5C 1204.51,638.935 1206.84,637.935 1209.5,637.5 Z"/></g>
<g><path style="opacity:1" fill="#72a962" d="M 1209.5,637.5 C 1213.17,637.5 1216.83,637.5 1220.5,637.5C 1220.39,638.117 1220.06,638.617 1219.5,639C 1225.82,648.48 1231.49,658.313 1236.5,668.5C 1236.83,831.903 1236.5,995.237 1235.5,1158.5C 1231.48,1161.27 1227.32,1163.93 1223,1166.5C 1222.62,1165.94 1222.12,1165.61 1221.5,1165.5C 1219.86,1165.71 1218.36,1165.38 1217,1164.5C 1215.08,1160.31 1212.91,1156.31 1210.5,1152.5C 1211.17,981.548 1211.84,810.714 1212.5,640C 1211.06,639.623 1210.06,638.79 1209.5,637.5 Z"/></g>
<g><path style="opacity:1" fill="#75ad62" d="M 1202.5,640.5 C 1202.01,641.473 1201.51,642.473 1201,643.5C 1200.83,806.667 1200.33,969.667 1199.5,1132.5C 1197.49,1128.47 1195.49,1124.47 1193.5,1120.5C 1194.17,962.431 1194.83,804.264 1195.5,646C 1194.91,645.536 1194.24,645.369 1193.5,645.5C 1196.01,643.076 1199.01,641.41 1202.5,640.5 Z"/></g>
<g><path style="opacity:1" fill="#77b261" d="M 1193.5,645.5 C 1194.24,645.369 1194.91,645.536 1195.5,646C 1194.83,804.264 1194.17,962.431 1193.5,1120.5C 1179.92,1096.33 1166.58,1072 1153.5,1047.5C 1153.33,921.833 1153.5,796.166 1154,670.5C 1156.17,669.178 1156,668.511 1153.5,668.5C 1166.5,660.331 1179.83,652.665 1193.5,645.5 Z"/></g>
<g><path style="opacity:1" fill="#639a58" d="M 1220.5,637.5 C 1242.16,648.995 1263.49,660.995 1284.5,673.5C 1283.81,675.464 1283.81,677.298 1284.5,679C 1323.31,731.479 1361.98,783.979 1400.5,836.5C 1395.02,848.123 1389.02,859.456 1382.5,870.5C 1381.5,870.586 1380.67,870.252 1380,869.5C 1342.05,817.219 1303.72,765.219 1265,713.5C 1264.6,713.728 1264.43,714.062 1264.5,714.5C 1255.17,699.167 1245.83,683.833 1236.5,668.5C 1231.49,658.313 1225.82,648.48 1219.5,639C 1220.06,638.617 1220.39,638.117 1220.5,637.5 Z"/></g>
<g><path style="opacity:1" fill="#6da55f" d="M 1236.5,668.5 C 1245.83,683.833 1255.17,699.167 1264.5,714.5C 1268.83,722.5 1273.17,730.5 1277.5,738.5C 1277.17,870.334 1277.5,1002 1278.5,1133.5C 1275.57,1135.65 1272.57,1137.81 1269.5,1140C 1258.02,1146 1246.68,1152.17 1235.5,1158.5C 1236.5,995.237 1236.83,831.903 1236.5,668.5 Z"/></g>
<g><path style="opacity:1" fill="#76b55c" d="M 1153.5,668.5 C 1156,668.511 1156.17,669.178 1154,670.5C 1153.5,796.166 1153.33,921.833 1153.5,1047.5C 1151.85,1044.87 1150.18,1042.2 1148.5,1039.5C 1149.17,917.098 1149.83,794.598 1150.5,672C 1149.91,671.536 1149.24,671.369 1148.5,671.5C 1149.9,670.11 1151.57,669.11 1153.5,668.5 Z"/></g>
<g><path style="opacity:1" fill="#74b659" d="M 1148.5,671.5 C 1149.24,671.369 1149.91,671.536 1150.5,672C 1149.83,794.598 1149.17,917.098 1148.5,1039.5C 1141.53,1026.89 1134.53,1014.23 1127.5,1001.5C 1128.18,895.938 1128.85,790.771 1129.5,686C 1128.44,684.812 1127.1,684.312 1125.5,684.5C 1133,679.917 1140.66,675.584 1148.5,671.5 Z"/></g>
<g><path style="opacity:1" fill="#669d5a" d="M 1284.5,673.5 C 1316.37,691.596 1348.03,709.929 1379.5,728.5C 1378.06,729.509 1377.23,730.843 1377,732.5C 1376.67,731.5 1376.33,730.5 1376,729.5C 1375.67,729.833 1375.33,730.167 1375,730.5C 1374.28,728.041 1372.94,727.041 1371,727.5C 1370.82,730.026 1371.99,731.859 1374.5,733C 1372.29,733.936 1370.96,735.602 1370.5,738C 1371.75,739.824 1372.92,739.657 1374,737.5C 1374.72,740.135 1375.39,742.802 1376,745.5C 1379.22,748.721 1382.05,751.554 1384.5,754C 1383.83,755 1383.17,756 1382.5,757C 1384,758.5 1385.5,760 1387,761.5C 1389.07,758.972 1389.91,759.139 1389.5,762C 1392.17,763.333 1392.17,764.667 1389.5,766C 1390.33,766.833 1391.17,767.667 1392,768.5C 1392.84,766.993 1394,766.493 1395.5,767C 1395.17,767.333 1394.83,767.667 1394.5,768C 1396.67,770.833 1398.83,773.667 1401,776.5C 1401.33,775.833 1401.67,775.167 1402,774.5C 1402.71,776.367 1402.21,777.867 1400.5,779C 1402.91,782.318 1404.41,781.818 1405,777.5C 1404.77,781.079 1404.6,784.245 1404.5,787C 1406.67,789.167 1408.83,791.333 1411,793.5C 1411.67,792.833 1412.33,792.167 1413,791.5C 1412.55,793.454 1412.38,795.287 1412.5,797C 1413.92,799.826 1415.42,799.993 1417,797.5C 1418.11,798.76 1418.28,799.927 1417.5,801C 1418.04,801.717 1418.71,802.217 1419.5,802.5C 1413.66,814.191 1407.32,825.525 1400.5,836.5C 1361.98,783.979 1323.31,731.479 1284.5,679C 1283.81,677.298 1283.81,675.464 1284.5,673.5 Z"/></g>
<g><path style="opacity:1" fill="#72b954" d="M 1125.5,684.5 C 1127.1,684.312 1128.44,684.812 1129.5,686C 1128.85,790.771 1128.18,895.938 1127.5,1001.5C 1120.82,988.806 1114.15,976.14 1107.5,963.5C 1108.17,874.431 1108.83,785.264 1109.5,696C 1108.55,695.517 1107.55,695.351 1106.5,695.5C 1112.63,691.596 1118.97,687.929 1125.5,684.5 Z"/></g>
<g><path style="opacity:1" fill="#70ba50" d="M 1106.5,695.5 C 1107.55,695.351 1108.55,695.517 1109.5,696C 1108.83,785.264 1108.17,874.431 1107.5,963.5C 1104.26,958.701 1101.26,953.701 1098.5,948.5C 1099.17,866.098 1099.83,783.598 1100.5,701C 1099.91,700.536 1099.24,700.369 1098.5,700.5C 1100.79,698.347 1103.46,696.68 1106.5,695.5 Z"/></g>
<g><path style="opacity:1" fill="#6ebc4c" d="M 1098.5,700.5 C 1099.24,700.369 1099.91,700.536 1100.5,701C 1099.83,783.598 1099.17,866.098 1098.5,948.5C 1092.5,937.5 1086.5,926.5 1080.5,915.5C 1081.17,847.627 1081.84,779.627 1082.5,711.5C 1081.77,710.913 1080.77,710.913 1079.5,711.5C 1085.33,707.079 1091.67,703.412 1098.5,700.5 Z"/></g>
<g><path style="opacity:1" fill="#6bbe47" d="M 1080.5,915.5 C 1077.17,909.5 1073.83,903.5 1070.5,897.5C 1059.07,876.304 1047.4,855.304 1035.5,834.5C 1022.17,809.5 1008.83,784.5 995.5,759.5C 1023.2,742.982 1051.2,726.982 1079.5,711.5C 1080.77,710.913 1081.77,710.913 1082.5,711.5C 1081.84,779.627 1081.17,847.627 1080.5,915.5 Z"/></g>
<g><path style="opacity:1" fill="#609956" d="M 1382.5,870.5 C 1382.5,870.833 1382.5,871.167 1382.5,871.5C 1379.47,875.887 1376.8,880.554 1374.5,885.5C 1358.21,865.404 1343.05,845.071 1329,824.5C 1328.17,918.001 1328.33,1011.33 1329.5,1104.5C 1324.85,1107.47 1320.19,1110.47 1315.5,1113.5C 1314.67,1009.24 1314.17,904.903 1314,800.5C 1302.06,779.606 1289.89,758.939 1277.5,738.5C 1273.17,730.5 1268.83,722.5 1264.5,714.5C 1264.43,714.062 1264.6,713.728 1265,713.5C 1303.72,765.219 1342.05,817.219 1380,869.5C 1380.67,870.252 1381.5,870.586 1382.5,870.5 Z"/></g>
<g><path style="opacity:1" fill="#6aa15c" d="M 1379.5,728.5 C 1398.28,738.777 1416.95,749.277 1435.5,760C 1437.04,761.371 1438.37,762.871 1439.5,764.5C 1433.38,777.413 1426.71,790.08 1419.5,802.5C 1418.71,802.217 1418.04,801.717 1417.5,801C 1418.28,799.927 1418.11,798.76 1417,797.5C 1415.42,799.993 1413.92,799.826 1412.5,797C 1412.38,795.287 1412.55,793.454 1413,791.5C 1412.33,792.167 1411.67,792.833 1411,793.5C 1408.83,791.333 1406.67,789.167 1404.5,787C 1404.6,784.245 1404.77,781.079 1405,777.5C 1404.41,781.818 1402.91,782.318 1400.5,779C 1402.21,777.867 1402.71,776.367 1402,774.5C 1401.67,775.167 1401.33,775.833 1401,776.5C 1398.83,773.667 1396.67,770.833 1394.5,768C 1394.83,767.667 1395.17,767.333 1395.5,767C 1394,766.493 1392.84,766.993 1392,768.5C 1391.17,767.667 1390.33,766.833 1389.5,766C 1392.17,764.667 1392.17,763.333 1389.5,762C 1389.91,759.139 1389.07,758.972 1387,761.5C 1385.5,760 1384,758.5 1382.5,757C 1383.17,756 1383.83,755 1384.5,754C 1382.05,751.554 1379.22,748.721 1376,745.5C 1375.39,742.802 1374.72,740.135 1374,737.5C 1372.92,739.657 1371.75,739.824 1370.5,738C 1370.96,735.602 1372.29,733.936 1374.5,733C 1371.99,731.859 1370.82,730.026 1371,727.5C 1372.94,727.041 1374.28,728.041 1375,730.5C 1375.33,730.167 1375.67,729.833 1376,729.5C 1376.33,730.5 1376.67,731.5 1377,732.5C 1377.23,730.843 1378.06,729.509 1379.5,728.5 Z"/></g>
<g><path style="opacity:1" fill="#67a05b" d="M 1277.5,738.5 C 1289.89,758.939 1302.06,779.606 1314,800.5C 1314.17,904.903 1314.67,1009.24 1315.5,1113.5C 1303.15,1120.2 1290.81,1126.87 1278.5,1133.5C 1277.5,1002 1277.17,870.334 1277.5,738.5 Z"/></g>
<g><path style="opacity:1" fill="#54934d" d="M 995.5,759.5 C 1008.83,784.5 1022.17,809.5 1035.5,834.5C 1018,827.765 1000.67,819.765 983.5,810.5C 982.833,800.008 982.167,789.674 981.5,779.5C 982.75,770.3 987.416,763.634 995.5,759.5 Z"/></g>
<g><path style="opacity:1" fill="#3f863d" d="M 1439.5,764.5 C 1443.52,767.852 1446.02,772.185 1447,777.5C 1447.5,831.832 1447.67,886.166 1447.5,940.5C 1447.17,940.5 1446.83,940.5 1446.5,940.5C 1446.67,927.829 1446.5,915.162 1446,902.5C 1424.89,892.027 1403.72,881.694 1382.5,871.5C 1382.5,871.167 1382.5,870.833 1382.5,870.5C 1389.02,859.456 1395.02,848.123 1400.5,836.5C 1407.32,825.525 1413.66,814.191 1419.5,802.5C 1426.71,790.08 1433.38,777.413 1439.5,764.5 Z"/></g>
<g><path style="opacity:0.985" fill="#56994c" d="M 981.5,779.5 C 982.167,789.674 982.833,800.008 983.5,810.5C 1000.67,819.765 1018,827.765 1035.5,834.5C 1047.4,855.304 1059.07,876.304 1070.5,897.5C 1069.5,897.414 1068.67,897.748 1068,898.5C 1066.03,902.939 1063.53,906.939 1060.5,910.5C 1035.08,897.29 1009.41,884.29 983.5,871.5C 982.505,877.128 982.171,882.794 982.5,888.5C 982.5,891.5 982.5,894.5 982.5,897.5C 982.167,897.5 981.833,897.5 981.5,897.5C 981.5,858.167 981.5,818.833 981.5,779.5 Z"/></g>
<g><path style="opacity:1" fill="#5a9752" d="M 1374.5,885.5 C 1372.58,888.339 1370.91,891.339 1369.5,894.5C 1365.7,886.905 1361.37,879.572 1356.5,872.5C 1352.26,865.027 1347.76,857.694 1343,850.5C 1342.17,932.57 1342.34,1014.57 1343.5,1096.5C 1338.81,1099.18 1334.14,1101.85 1329.5,1104.5C 1328.33,1011.33 1328.17,918.001 1329,824.5C 1343.05,845.071 1358.21,865.404 1374.5,885.5 Z"/></g>
<g><path style="opacity:0.979" fill="#679e62" d="M 2352.5,849.5 C 2355.79,849.259 2358.79,850.092 2361.5,852C 2374.75,859.206 2387.58,867.039 2400,875.5C 2400.67,892.5 2400.67,909.5 2400,926.5C 2385.25,936.13 2370.08,945.13 2354.5,953.5C 2339.42,944.877 2324.58,935.877 2310,926.5C 2309.33,909.5 2309.33,892.5 2310,875.5C 2323.98,866.431 2338.15,857.765 2352.5,849.5 Z"/></g>
<g><path style="opacity:1" fill="#54934d" d="M 1356.5,872.5 C 1355.5,944.665 1355.17,1017 1355.5,1089.5C 1351.55,1091.83 1347.55,1094.17 1343.5,1096.5C 1342.34,1014.57 1342.17,932.57 1343,850.5C 1347.76,857.694 1352.26,865.027 1356.5,872.5 Z"/></g>
<g><path style="opacity:1" fill="#569d4a" d="M 1060.5,910.5 C 1058.96,915.024 1056.62,919.024 1053.5,922.5C 1029.47,911.988 1005.81,900.655 982.5,888.5C 982.171,882.794 982.505,877.128 983.5,871.5C 1009.41,884.29 1035.08,897.29 1060.5,910.5 Z"/></g>
<g><path style="opacity:1" fill="#4e9049" d="M 1356.5,872.5 C 1361.37,879.572 1365.7,886.905 1369.5,894.5C 1370.51,896.372 1371.34,898.372 1372,900.5C 1372.17,960.237 1372.67,1019.9 1373.5,1079.5C 1368.5,1083.14 1363,1086.81 1357,1090.5C 1356.62,1089.94 1356.12,1089.61 1355.5,1089.5C 1355.17,1017 1355.5,944.665 1356.5,872.5 Z"/></g>
<g><path style="opacity:1" fill="#488b44" d="M 1382.5,871.5 C 1403.72,881.694 1424.89,892.027 1446,902.5C 1446.5,915.162 1446.67,927.829 1446.5,940.5C 1446.83,949.192 1446.5,957.859 1445.5,966.5C 1430.62,958.895 1415.62,951.561 1400.5,944.5C 1399.89,944.624 1399.56,944.957 1399.5,945.5C 1395.94,939.395 1392.11,933.395 1388,927.5C 1387.83,951.167 1387.67,974.833 1387.5,998.5C 1387.51,1022.72 1388.18,1046.72 1389.5,1070.5C 1383.83,1073 1378.49,1076 1373.5,1079.5C 1372.67,1019.9 1372.17,960.237 1372,900.5C 1371.34,898.372 1370.51,896.372 1369.5,894.5C 1370.91,891.339 1372.58,888.339 1374.5,885.5C 1376.8,880.554 1379.47,875.887 1382.5,871.5 Z"/></g>
<g><path style="opacity:0.969" fill="#58a547" d="M 981.5,897.5 C 981.833,897.5 982.167,897.5 982.5,897.5C 982.334,906.173 982.5,914.84 983,923.5C 1001.13,932.48 1018.96,941.813 1036.5,951.5C 1029.25,965.667 1021.25,979.334 1012.5,992.5C 1012.63,991.624 1012.3,990.957 1011.5,990.5C 1002.17,985.833 992.833,981.167 983.5,976.5C 982.501,993.153 982.167,1009.82 982.5,1026.5C 981.501,983.67 981.168,940.67 981.5,897.5 Z"/></g>
<g><path style="opacity:1" fill="#57a049" d="M 982.5,888.5 C 1005.81,900.655 1029.47,911.988 1053.5,922.5C 1048.22,932.431 1042.56,942.098 1036.5,951.5C 1018.96,941.813 1001.13,932.48 983,923.5C 982.5,914.84 982.334,906.173 982.5,897.5C 982.5,894.5 982.5,891.5 982.5,888.5 Z"/></g>
<g><path style="opacity:1" fill="#3e863d" d="M 1070.5,897.5 C 1073.83,903.5 1077.17,909.5 1080.5,915.5C 1086.5,926.5 1092.5,937.5 1098.5,948.5C 1101.26,953.701 1104.26,958.701 1107.5,963.5C 1114.15,976.14 1120.82,988.806 1127.5,1001.5C 1134.53,1014.23 1141.53,1026.89 1148.5,1039.5C 1150.18,1042.2 1151.85,1044.87 1153.5,1047.5C 1166.58,1072 1179.92,1096.33 1193.5,1120.5C 1195.49,1124.47 1197.49,1128.47 1199.5,1132.5C 1203.17,1139.17 1206.83,1145.83 1210.5,1152.5C 1212.91,1156.31 1215.08,1160.31 1217,1164.5C 1218.36,1165.38 1219.86,1165.71 1221.5,1165.5C 1213.98,1167.25 1206.65,1166.42 1199.5,1163C 1155.27,1137.08 1111.27,1111.58 1067.5,1086.5C 1045.95,1074.05 1024.61,1061.55 1003.5,1049C 1001.78,1048.65 1000.12,1048.15 998.5,1047.5C 994.279,1044.56 990.279,1041.4 986.5,1038C 985.663,1036.99 985.33,1035.82 985.5,1034.5C 986.222,1034.92 986.722,1035.58 987,1036.5C 995.776,1021.94 1004.28,1007.28 1012.5,992.5C 1021.25,979.334 1029.25,965.667 1036.5,951.5C 1042.56,942.098 1048.22,932.431 1053.5,922.5C 1056.62,919.024 1058.96,915.024 1060.5,910.5C 1063.53,906.939 1066.03,902.939 1068,898.5C 1068.67,897.748 1069.5,897.414 1070.5,897.5 Z"/></g>
<g><path style="opacity:0.915" fill="#4f904a" d="M 1446.5,940.5 C 1446.83,940.5 1447.17,940.5 1447.5,940.5C 1447.83,969.005 1447.5,997.338 1446.5,1025.5C 1430.34,999.198 1414.68,972.531 1399.5,945.5C 1399.56,944.957 1399.89,944.624 1400.5,944.5C 1415.62,951.561 1430.62,958.895 1445.5,966.5C 1446.5,957.859 1446.83,949.192 1446.5,940.5 Z"/></g>
<g><path style="opacity:1" fill="#3f863d" d="M 1399.5,945.5 C 1414.68,972.531 1430.34,999.198 1446.5,1025.5C 1445.59,1033.32 1442.09,1039.65 1436,1044.5C 1435.67,1044.17 1435.33,1043.83 1435,1043.5C 1432.68,1044.82 1430.68,1046.49 1429,1048.5C 1428.67,1048.17 1428.33,1047.83 1428,1047.5C 1421.16,1051.73 1413.99,1056.06 1406.5,1060.5C 1404.97,1060.43 1403.97,1061.09 1403.5,1062.5C 1398.59,1064.62 1393.92,1067.29 1389.5,1070.5C 1388.18,1046.72 1387.51,1022.72 1387.5,998.5C 1387.67,974.833 1387.83,951.167 1388,927.5C 1392.11,933.395 1395.94,939.395 1399.5,945.5 Z"/></g>
<g><path style="opacity:1" fill="#59aa45" d="M 1012.5,992.5 C 1004.28,1007.28 995.776,1021.94 987,1036.5C 986.722,1035.58 986.222,1034.92 985.5,1034.5C 983.415,1032.32 982.415,1029.65 982.5,1026.5C 982.167,1009.82 982.501,993.153 983.5,976.5C 992.833,981.167 1002.17,985.833 1011.5,990.5C 1012.3,990.957 1012.63,991.624 1012.5,992.5 Z"/></g>
<g><path style="opacity:0.008" fill="#4a604a" d="M 1406.5,1060.5 C 1406.03,1061.91 1405.03,1062.57 1403.5,1062.5C 1403.97,1061.09 1404.97,1060.43 1406.5,1060.5 Z"/></g>
<g><path style="opacity:0.008" fill="#4d674d" d="M 1067.5,1086.5 C 1066.83,1087.17 1066.83,1087.17 1067.5,1086.5 Z"/></g>
<g><path style="opacity:0.978" fill="#679e62" d="M 1478.5,1129.5 C 1489.44,1128.18 1499.78,1130.01 1509.5,1135C 1575,1173.25 1640.67,1211.25 1706.5,1249C 1717.09,1256 1723.26,1265.84 1725,1278.5C 1725.67,1358.17 1725.67,1437.83 1725,1517.5C 1722.52,1531.64 1715.02,1542.14 1702.5,1549C 1636.04,1587.51 1569.37,1625.84 1502.5,1664C 1491.03,1667.56 1479.7,1667.23 1468.5,1663C 1444.5,1648.67 1420.5,1634.33 1396.5,1620C 1394.4,1618.27 1394.07,1616.27 1395.5,1614C 1407.67,1609.91 1419.34,1604.75 1430.5,1598.5C 1447.79,1607.81 1464.79,1617.65 1481.5,1628C 1483.65,1629.59 1485.98,1630.26 1488.5,1630C 1555.25,1591.88 1621.75,1553.38 1688,1514.5C 1689.66,1437.58 1689.99,1360.58 1689,1283.5C 1687.5,1280.67 1685.33,1278.5 1682.5,1277C 1619.13,1241.42 1556.13,1205.09 1493.5,1168C 1490.72,1166.06 1487.89,1165.23 1485,1165.5C 1419.81,1203.69 1354.31,1241.53 1288.5,1279C 1286.51,1280.32 1285.35,1282.15 1285,1284.5C 1284.33,1360.17 1284.33,1435.83 1285,1511.5C 1285.4,1514.23 1286.9,1516.07 1289.5,1517C 1306.43,1526.27 1323.09,1535.93 1339.5,1546C 1351.06,1553.09 1363.06,1554.09 1375.5,1549C 1381.61,1545.55 1385.44,1540.38 1387,1533.5C 1387.33,1456.5 1387.67,1379.5 1388,1302.5C 1388.11,1300.15 1389.28,1298.65 1391.5,1298C 1401.5,1297.33 1411.5,1297.33 1421.5,1298C 1423.33,1298.5 1424.5,1299.67 1425,1301.5C 1425.47,1381.76 1425.64,1461.92 1425.5,1542C 1422.74,1551.1 1419.07,1559.93 1414.5,1568.5C 1404.86,1580.54 1392.53,1587.21 1377.5,1588.5C 1362.09,1591.01 1347.09,1589.18 1332.5,1583C 1309.9,1571.03 1287.56,1558.53 1265.5,1545.5C 1256.54,1538.16 1251.04,1529.16 1249,1518.5C 1248.33,1438.17 1248.33,1357.83 1249,1277.5C 1251.11,1263.79 1258.28,1253.62 1270.5,1247C 1335.17,1209.67 1399.83,1172.33 1464.5,1135C 1469.16,1132.84 1473.83,1131.01 1478.5,1129.5 Z"/></g>
<g><path style="opacity:0.879" fill="#669c61" d="M 1788.5,1233.5 C 1820.59,1235.59 1834.59,1252.42 1830.5,1284C 1821.56,1303.88 1806.39,1312.71 1785,1310.5C 1760.09,1301.59 1750.76,1284.25 1757,1258.5C 1763.26,1244.73 1773.76,1236.39 1788.5,1233.5 Z M 1789.5,1240.5 C 1809.86,1241.36 1821.52,1251.86 1824.5,1272C 1822.33,1290.83 1811.83,1301.33 1793,1303.5C 1773.94,1301.27 1763.44,1290.61 1761.5,1271.5C 1763.91,1254.76 1773.24,1244.43 1789.5,1240.5 Z M 1787.5,1259.5 C 1790.64,1258.36 1793.97,1258.19 1797.5,1259C 1800.39,1262.42 1800.06,1265.42 1796.5,1268C 1793.52,1268.5 1790.52,1268.66 1787.5,1268.5C 1787.66,1265.19 1787.66,1262.19 1787.5,1259.5 Z"/></g>
<g><path style="opacity:0.902" fill="#679e62" d="M 1778.5,1250.5 C 1785.84,1250.33 1793.17,1250.5 1800.5,1251C 1804.02,1251.5 1806.52,1253.34 1808,1256.5C 1808.97,1261.37 1808.47,1266.04 1806.5,1270.5C 1805.5,1271 1804.5,1271.5 1803.5,1272C 1805.05,1273.21 1806.22,1274.71 1807,1276.5C 1807.62,1282.16 1808.78,1287.66 1810.5,1293C 1807.17,1293.67 1803.83,1293.67 1800.5,1293C 1799.55,1288.23 1798.71,1283.4 1798,1278.5C 1794.76,1276.74 1791.26,1276.07 1787.5,1276.5C 1787.5,1282.17 1787.5,1287.83 1787.5,1293.5C 1784.5,1293.5 1781.5,1293.5 1778.5,1293.5C 1778.5,1279.17 1778.5,1264.83 1778.5,1250.5 Z M 1787.5,1259.5 C 1787.66,1262.19 1787.66,1265.19 1787.5,1268.5C 1790.52,1268.66 1793.52,1268.5 1796.5,1268C 1800.06,1265.42 1800.39,1262.42 1797.5,1259C 1793.97,1258.19 1790.64,1258.36 1787.5,1259.5 Z"/></g>
<g><path style="opacity:0.977" fill="#679e62" d="M 1527.5,1291.5 C 1547.42,1290.74 1567.09,1292.58 1586.5,1297C 1618.23,1306.24 1635.56,1327.4 1638.5,1360.5C 1638.55,1363.21 1637.55,1365.38 1635.5,1367C 1624.83,1367.67 1614.17,1367.67 1603.5,1367C 1602.67,1366.17 1601.83,1365.33 1601,1364.5C 1599.52,1355.03 1595.35,1346.53 1588.5,1339C 1580.58,1332.71 1572.08,1329.54 1563,1329.5C 1560.58,1328.65 1558.08,1327.98 1555.5,1327.5C 1546.6,1327.64 1537.43,1327.64 1528,1327.5C 1523.48,1327.92 1519.15,1328.92 1515,1330.5C 1502.41,1330.98 1494.08,1337.32 1490,1349.5C 1488.02,1358.59 1491.19,1365.09 1499.5,1369C 1506.6,1371.81 1513.94,1373.81 1521.5,1375C 1539.13,1377.91 1556.8,1380.58 1574.5,1383C 1591.72,1385.19 1608.06,1390.19 1623.5,1398C 1635.39,1405.24 1642.56,1415.74 1645,1429.5C 1649.32,1457.42 1640.66,1478.76 1619,1493.5C 1611.64,1498.26 1603.81,1502.1 1595.5,1505C 1560.93,1513.2 1526.26,1512.53 1491.5,1503C 1458.39,1491.6 1442.55,1468.43 1444,1433.5C 1444.5,1433 1445,1432.5 1445.5,1432C 1456.5,1431.33 1467.5,1431.33 1478.5,1432C 1479.89,1433.17 1480.73,1434.67 1481,1436.5C 1483.24,1456.74 1494.4,1468.57 1514.5,1472C 1534.45,1474.89 1554.45,1475.23 1574.5,1473C 1584.71,1471.65 1593.54,1467.48 1601,1460.5C 1605.95,1453.1 1607.28,1445.1 1605,1436.5C 1601.94,1431.21 1597.44,1427.71 1591.5,1426C 1578.03,1421.44 1564.2,1418.94 1550,1418.5C 1546.42,1416.62 1542.76,1416.29 1539,1417.5C 1532.12,1415.81 1525.12,1414.47 1518,1413.5C 1502.98,1412.02 1488.14,1407.85 1473.5,1401C 1455.14,1388.13 1447.31,1370.63 1450,1348.5C 1453.14,1325.72 1465.31,1309.88 1486.5,1301C 1499.84,1295.84 1513.51,1292.67 1527.5,1291.5 Z"/></g>
</svg>
