<?xml version="1.0" encoding="UTF-8"?>
<!DOCTYPE svg PUBLIC "-//W3C//DTD SVG 1.1//EN" "http://www.w3.org/Graphics/SVG/1.1/DTD/svg11.dtd">
<svg xmlns="http://www.w3.org/2000/svg" version="1.1" width="512px" height="512px" style="shape-rendering:geometricPrecision; text-rendering:geometricPrecision; image-rendering:optimizeQuality; fill-rule:evenodd; clip-rule:evenodd" xmlns:xlink="http://www.w3.org/1999/xlink">
<g><path style="opacity:0.967" fill="#00abe6" d="M 255.5,7.5 C 255.389,8.11742 255.056,8.61742 254.5,9C 259.703,14.0354 264.703,19.202 269.5,24.5C 260.543,24.0728 251.543,24.4062 242.5,25.5C 239.102,20.5937 235.102,16.0937 230.5,12C 231.056,11.6174 231.389,11.1174 231.5,10.5C 239.368,8.56673 247.368,7.56673 255.5,7.5 Z"/></g>
<g><path style="opacity:0.974" fill="#00a5e6" d="M 255.5,7.5 C 263.84,7.3336 272.173,7.50027 280.5,8C 283.365,8.1829 286.031,8.6829 288.5,9.5C 287.448,9.35055 286.448,9.51722 285.5,10C 292.369,16.7018 299.036,23.5351 305.5,30.5C 293.787,26.8243 281.787,24.8243 269.5,24.5C 264.703,19.202 259.703,14.0354 254.5,9C 255.056,8.61742 255.389,8.11742 255.5,7.5 Z"/></g>
<g><path style="opacity:0.964" fill="#009fe8" d="M 288.5,9.5 C 299.791,10.6531 310.458,13.6531 320.5,18.5C 347.127,46.6332 374.627,74.6332 403,102.5C 403.278,101.584 403.778,100.918 404.5,100.5C 406.828,107.149 409.161,113.815 411.5,120.5C 417.41,121.723 423.077,123.39 428.5,125.5C 427.761,125.369 427.094,125.536 426.5,126C 450,149.5 473.5,173 497,196.5C 497.464,195.906 497.631,195.239 497.5,194.5C 501.749,205.66 503.749,217.326 503.5,229.5C 497.778,223.773 491.778,218.44 485.5,213.5C 473.484,168.657 444.484,142.49 398.5,135C 397.299,134.097 396.465,132.931 396,131.5C 383.781,81.7148 353.614,48.0481 305.5,30.5C 299.036,23.5351 292.369,16.7018 285.5,10C 286.448,9.51722 287.448,9.35055 288.5,9.5 Z"/></g>
<g><path style="opacity:0.954" fill="#01b1e5" d="M 231.5,10.5 C 231.389,11.1174 231.056,11.6174 230.5,12C 235.102,16.0937 239.102,20.5937 242.5,25.5C 234.129,27.3427 225.796,29.3427 217.5,31.5C 213.69,26.3465 209.024,22.3465 203.5,19.5C 212.357,15.3266 221.69,12.3266 231.5,10.5 Z"/></g>
<g><path style="opacity:0.962" fill="#009ae8" d="M 320.5,18.5 C 359.324,34.6566 387.324,61.9899 404.5,100.5C 403.778,100.918 403.278,101.584 403,102.5C 374.627,74.6332 347.127,46.6332 320.5,18.5 Z"/></g>
<g><path style="opacity:0.958" fill="#00bce3" d="M 203.5,19.5 C 209.024,22.3465 213.69,26.3465 217.5,31.5C 205.137,36.5245 193.47,42.8579 182.5,50.5C 178.441,46.4349 174.107,42.7683 169.5,39.5C 179.527,30.8485 190.86,24.1818 203.5,19.5 Z"/></g>
<g><path style="opacity:0.96" fill="#00c8e1" d="M 169.5,39.5 C 174.107,42.7683 178.441,46.4349 182.5,50.5C 172.5,58.5 163.5,67.5 155.5,77.5C 150.893,74.2317 146.559,70.5651 142.5,66.5C 150.5,56.5 159.5,47.5 169.5,39.5 Z"/></g>
<g><path style="opacity:0.973" fill="#00d2dd" d="M 142.5,66.5 C 146.559,70.5651 150.893,74.2317 155.5,77.5C 148.279,88.103 141.945,99.2696 136.5,111C 134.541,111.931 132.541,112.764 130.5,113.5C 125.565,112.552 120.565,112.219 115.5,112.5C 111.563,107.224 107.229,102.224 102.5,97.5C 110.054,96.0713 117.721,95.0713 125.5,94.5C 130.173,84.4729 135.84,75.1396 142.5,66.5 Z"/></g>
<g><path style="opacity:0.976" fill="#00c6d5" d="M 102.5,97.5 C 107.229,102.224 111.563,107.224 115.5,112.5C 103.68,113.412 93.6799,118.078 85.5,126.5C 81.8333,122.167 77.8333,118.167 73.5,114.5C 81.4254,106.031 91.0921,100.365 102.5,97.5 Z"/></g>
<g><path style="opacity:0.965" fill="#009ae8" d="M 428.5,125.5 C 462.5,137.5 485.5,160.5 497.5,194.5C 497.631,195.239 497.464,195.906 497,196.5C 473.5,173 450,149.5 426.5,126C 427.094,125.536 427.761,125.369 428.5,125.5 Z"/></g>
<g><path style="opacity:0.959" fill="#00b5cc" d="M 73.5,114.5 C 77.8333,118.167 81.8333,122.167 85.5,126.5C 74.2029,139.662 69.7029,154.995 72,172.5C 71.7216,173.416 71.2216,174.082 70.5,174.5C 65.2243,170.563 60.2243,166.229 55.5,161.5C 54.5632,143.062 60.5632,127.395 73.5,114.5 Z"/></g>
<g><path style="opacity:0.961" fill="#00a7c4" d="M 55.5,161.5 C 60.2243,166.229 65.2243,170.563 70.5,174.5C 61.6319,179.693 53.2986,185.693 45.5,192.5C 42.1053,188.102 38.1053,184.436 33.5,181.5C 39.1751,174.825 45.8417,169.325 53.5,165C 54.8228,164.184 55.4894,163.017 55.5,161.5 Z"/></g>
<g><path style="opacity:0.956" fill="#009bbd" d="M 33.5,181.5 C 38.1053,184.436 42.1053,188.102 45.5,192.5C 42.3426,196.804 39.1759,201.137 36,205.5C 33.4541,210.592 30.9541,215.592 28.5,220.5C 24.8972,215.558 20.8972,210.892 16.5,206.5C 20.2189,196.792 25.8855,188.458 33.5,181.5 Z"/></g>
<g><path style="opacity:0.972" fill="#00a7e6" d="M 485.5,213.5 C 491.778,218.44 497.778,223.773 503.5,229.5C 504.323,245.717 501.323,261.05 494.5,275.5C 490.167,271.5 485.833,267.5 481.5,263.5C 486.919,247.143 488.252,230.476 485.5,213.5 Z"/></g>
<g><path style="opacity:0.965" fill="#0089b3" d="M 16.5,206.5 C 20.8972,210.892 24.8972,215.558 28.5,220.5C 21.8055,242.557 23.4722,263.891 33.5,284.5C 25.2552,277.76 17.4218,270.427 10,262.5C 9.61742,263.056 9.11742,263.389 8.5,263.5C 5.07945,243.594 7.74612,224.594 16.5,206.5 Z"/></g>
<g><path style="opacity:0.967" fill="#00b1e4" d="M 481.5,263.5 C 485.833,267.5 490.167,271.5 494.5,275.5C 492.117,283.204 488.45,290.204 483.5,296.5C 479.167,292.833 475.167,288.833 471.5,284.5C 475.092,277.648 478.426,270.648 481.5,263.5 Z"/></g>
<g><path style="opacity:0.972" fill="#0080ae" d="M 33.5,284.5 C 47.4307,309.484 68.764,323.484 97.5,326.5C 97.0825,327.222 96.4158,327.722 95.5,328C 100.703,333.035 105.703,338.202 110.5,343.5C 64.0632,344.534 31.5632,323.868 13,281.5C 10.8692,275.644 9.36922,269.644 8.5,263.5C 9.11742,263.389 9.61742,263.056 10,262.5C 17.4218,270.427 25.2552,277.76 33.5,284.5 Z"/></g>
<g><path style="opacity:0.957" fill="#00bce3" d="M 471.5,284.5 C 475.167,288.833 479.167,292.833 483.5,296.5C 475.789,307.878 466.122,317.212 454.5,324.5C 451.232,319.893 447.565,315.559 443.5,311.5C 454.154,303.845 463.488,294.845 471.5,284.5 Z"/></g>
<g><path style="opacity:0.967" fill="#00c8e1" d="M 443.5,311.5 C 447.565,315.559 451.232,319.893 454.5,324.5C 442.955,332.468 430.288,338.135 416.5,341.5C 412.563,336.224 408.229,331.224 403.5,326.5C 417.908,324.254 431.242,319.254 443.5,311.5 Z"/></g>
<g><path style="opacity:1" fill="#0090b7" d="M 97.5,326.5 C 110.811,327.382 124.144,327.715 137.5,327.5C 142.5,332.833 147.5,338.167 152.5,343.5C 138.5,343.5 124.5,343.5 110.5,343.5C 105.703,338.202 100.703,333.035 95.5,328C 96.4158,327.722 97.0825,327.222 97.5,326.5 Z"/></g>
<g><path style="opacity:1" fill="#009ebf" d="M 137.5,327.5 C 159.167,327.5 180.833,327.5 202.5,327.5C 207.5,332.833 212.5,338.167 217.5,343.5C 214.167,343.5 210.833,343.5 207.5,343.5C 207.667,360.837 207.5,378.17 207,395.5C 206.722,396.416 206.222,397.082 205.5,397.5C 201.561,391.892 196.894,386.892 191.5,382.5C 191.5,369.5 191.5,356.5 191.5,343.5C 178.5,343.5 165.5,343.5 152.5,343.5C 147.5,338.167 142.5,332.833 137.5,327.5 Z"/></g>
<g><path style="opacity:1" fill="#00afc8" d="M 202.5,327.5 C 217.167,327.5 231.833,327.5 246.5,327.5C 251.833,333.5 257.5,339.167 263.5,344.5C 263.5,359.167 263.5,373.833 263.5,388.5C 258.167,383.5 252.833,378.5 247.5,373.5C 247.5,363.5 247.5,353.5 247.5,343.5C 237.5,343.5 227.5,343.5 217.5,343.5C 212.5,338.167 207.5,332.833 202.5,327.5 Z"/></g>
<g><path style="opacity:1" fill="#00d1dd" d="M 403.5,326.5 C 408.229,331.224 412.563,336.224 416.5,341.5C 413.161,341.89 409.827,342.39 406.5,343C 378.835,343.5 351.169,343.667 323.5,343.5C 318.5,338.167 313.5,332.833 308.5,327.5C 340.178,327.746 371.845,327.413 403.5,326.5 Z"/></g>
<g><path style="opacity:0.964" fill="#00bdd0" d="M 246.5,327.5 C 267.167,327.5 287.833,327.5 308.5,327.5C 313.5,332.833 318.5,338.167 323.5,343.5C 322.167,343.5 320.833,343.5 319.5,343.5C 319.333,357.504 319.5,371.504 320,385.5C 335.961,392.755 351.794,400.088 367.5,407.5C 379.798,420.298 392.298,432.965 405,445.5C 405.464,446.094 405.631,446.761 405.5,447.5C 390.217,449.528 379.883,443.362 374.5,429C 351.14,418.903 327.973,408.403 305,397.5C 303.527,379.594 303.027,361.594 303.5,343.5C 289.99,343.171 276.656,343.504 263.5,344.5C 257.5,339.167 251.833,333.5 246.5,327.5 Z"/></g>
<g><path style="opacity:0.97" fill="#008eb5" d="M 191.5,382.5 C 196.894,386.892 201.561,391.892 205.5,397.5C 196.476,402.343 187.142,406.677 177.5,410.5C 173.5,406.167 169.5,401.833 165.5,397.5C 173.743,393.716 182.076,389.882 190.5,386C 191.337,384.989 191.67,383.822 191.5,382.5 Z"/></g>
<g><path style="opacity:1" fill="#00a1c1" d="M 247.5,373.5 C 252.833,378.5 258.167,383.5 263.5,388.5C 263.5,402.5 263.5,416.5 263.5,430.5C 258.822,424.823 253.489,419.823 247.5,415.5C 247.5,401.5 247.5,387.5 247.5,373.5 Z"/></g>
<g><path style="opacity:0.969" fill="#0078aa" d="M 134.5,411.5 C 138.631,415.13 142.631,418.963 146.5,423C 145.944,423.383 145.611,423.883 145.5,424.5C 142.648,426.076 139.648,427.576 136.5,429C 135.219,430.409 134.219,431.909 133.5,433.5C 128.535,429.037 123.702,424.37 119,419.5C 118.601,419.728 118.435,420.062 118.5,420.5C 117.5,418.833 116.167,417.5 114.5,416.5C 111.407,411.864 107.407,407.364 102.5,403C 101.552,402.517 100.552,402.351 99.5,402.5C 100.842,401.207 102.509,400.374 104.5,400C 111.871,398.69 118.871,399.69 125.5,403C 128.416,406.087 131.416,408.921 134.5,411.5 Z"/></g>
<g><path style="opacity:0.975" fill="#00c9d7" d="M 405.5,447.5 C 405.631,446.761 405.464,446.094 405,445.5C 392.298,432.965 379.798,420.298 367.5,407.5C 371.037,408.267 374.371,409.6 377.5,411.5C 385.512,400.107 396.179,396.607 409.5,401C 422.499,408.317 426.665,419.151 422,433.5C 418.465,440.538 412.965,445.205 405.5,447.5 Z M 396.5,416.5 C 405.85,416.365 408.517,420.532 404.5,429C 395.956,432.322 392.123,429.489 393,420.5C 393.69,418.65 394.856,417.316 396.5,416.5 Z"/></g>
<g><path style="opacity:0.948" fill="#0081ae" d="M 165.5,397.5 C 169.5,401.833 173.5,406.167 177.5,410.5C 167.072,415.714 156.405,420.381 145.5,424.5C 145.611,423.883 145.944,423.383 146.5,423C 142.631,418.963 138.631,415.13 134.5,411.5C 144.588,406.463 154.921,401.796 165.5,397.5 Z"/></g>
<g><path style="opacity:0.974" fill="#006ea4" d="M 99.5,402.5 C 100.552,402.351 101.552,402.517 102.5,403C 107.407,407.364 111.407,411.864 114.5,416.5C 105.524,416.114 102.691,420.114 106,428.5C 114.468,432.517 118.635,429.85 118.5,420.5C 118.435,420.062 118.601,419.728 119,419.5C 123.702,424.37 128.535,429.037 133.5,433.5C 127.525,445.483 117.858,449.983 104.5,447C 90.5184,441.543 85.0184,431.376 88,416.5C 89.8657,410.142 93.699,405.475 99.5,402.5 Z"/></g>
<g><path style="opacity:0.987" fill="#0094b9" d="M 247.5,415.5 C 253.489,419.823 258.822,424.823 263.5,430.5C 263.169,439.192 263.502,447.859 264.5,456.5C 278.482,463.791 282.816,474.791 277.5,489.5C 272.776,483.773 267.442,478.773 261.5,474.5C 260.833,474.5 260.5,474.167 260.5,473.5C 256.433,467.925 251.766,462.759 246.5,458C 247.056,457.617 247.389,457.117 247.5,456.5C 247.5,442.833 247.5,429.167 247.5,415.5 Z"/></g>
<g><path style="opacity:0.974" fill="#0088b3" d="M 247.5,456.5 C 247.389,457.117 247.056,457.617 246.5,458C 251.766,462.759 256.433,467.925 260.5,473.5C 250.297,470.869 246.797,474.536 250,484.5C 260.118,488.516 263.951,485.183 261.5,474.5C 267.442,478.773 272.776,483.773 277.5,489.5C 274.587,496.243 269.587,500.743 262.5,503C 247.624,505.982 237.457,500.482 232,486.5C 229.024,472.115 234.19,462.115 247.5,456.5 Z"/></g>
</svg>
