<svg width="48" height="48" viewBox="0 0 48 48" fill="none" xmlns="http://www.w3.org/2000/svg">
<path d="M24.1688 43.9563C13.2405 43.9563 4.38184 35.0977 4.38184 24.1693C4.38184 13.241 13.2405 4.38232 24.1688 4.38232C35.0972 4.38232 43.9558 13.241 43.9558 24.1693C43.9558 35.0977 35.0972 43.9563 24.1688 43.9563ZM33.073 15.2652L20.2114 20.2119L15.2647 33.0735L28.1262 28.1267L33.073 15.2652ZM24.1688 26.148C23.644 26.148 23.1407 25.9395 22.7697 25.5685C22.3986 25.1974 22.1901 24.6941 22.1901 24.1693C22.1901 23.6445 22.3986 23.1412 22.7697 22.7702C23.1407 22.3991 23.644 22.1906 24.1688 22.1906C24.6936 22.1906 25.1969 22.3991 25.568 22.7702C25.939 23.1412 26.1475 23.6445 26.1475 24.1693C26.1475 24.6941 25.939 25.1974 25.568 25.5685C25.1969 25.9395 24.6936 26.148 24.1688 26.148Z" fill="#EE6E24"/>
</svg>
