<svg width="36" height="36" viewBox="0 0 36 36" fill="none" xmlns="http://www.w3.org/2000/svg">
<g filter="url(#filter0_d_3321_7676)">
<path d="M18 33C9.7155 33 3 26.2845 3 18C3 9.7155 9.7155 3 18 3C26.2845 3 33 9.7155 33 18C33 26.2845 26.2845 33 18 33ZM18 30C21.1826 30 24.2348 28.7357 26.4853 26.4853C28.7357 24.2348 30 21.1826 30 18C30 14.8174 28.7357 11.7652 26.4853 9.51472C24.2348 7.26428 21.1826 6 18 6C14.8174 6 11.7652 7.26428 9.51472 9.51472C7.26428 11.7652 6 14.8174 6 18C6 21.1826 7.26428 24.2348 9.51472 26.4853C11.7652 28.7357 14.8174 30 18 30V30ZM10.5 22.98C13.7326 22.7477 16.7725 21.3559 19.0605 19.0605C21.3559 16.7725 22.7477 13.7326 22.98 10.5C24.0883 11.2384 25.019 12.2136 25.7048 13.3552C26.3907 14.4969 26.8146 15.7765 26.946 17.1018C27.0775 18.4271 26.9131 19.765 26.4649 21.0191C26.0166 22.2732 25.2956 23.4122 24.3539 24.3539C23.4122 25.2956 22.2732 26.0166 21.0191 26.4649C19.765 26.9131 18.4271 27.0775 17.1018 26.946C15.7765 26.8146 14.4969 26.3907 13.3552 25.7048C12.2136 25.019 11.2384 24.0883 10.5 22.98V22.98Z" fill="url(#paint0_linear_3321_7676)" shape-rendering="crispEdges"/>
</g>
<defs>
<filter id="filter0_d_3321_7676" x="2.25" y="2.625" width="31.5" height="31.5" filterUnits="userSpaceOnUse" color-interpolation-filters="sRGB">
<feFlood flood-opacity="0" result="BackgroundImageFix"/>
<feColorMatrix in="SourceAlpha" type="matrix" values="0 0 0 0 0 0 0 0 0 0 0 0 0 0 0 0 0 0 127 0" result="hardAlpha"/>
<feOffset dy="0.375"/>
<feGaussianBlur stdDeviation="0.375"/>
<feComposite in2="hardAlpha" operator="out"/>
<feColorMatrix type="matrix" values="0 0 0 0 0 0 0 0 0 0 0 0 0 0 0 0 0 0 0.2 0"/>
<feBlend mode="normal" in2="BackgroundImageFix" result="effect1_dropShadow_3321_7676"/>
<feBlend mode="normal" in="SourceGraphic" in2="effect1_dropShadow_3321_7676" result="shape"/>
</filter>
<linearGradient id="paint0_linear_3321_7676" x1="18" y1="3" x2="18" y2="33" gradientUnits="userSpaceOnUse">
<stop stop-color="white"/>
<stop offset="1" stop-color="white" stop-opacity="0.7"/>
</linearGradient>
</defs>
</svg>
