<svg width="30" height="34" viewBox="0 0 30 34" fill="none" xmlns="http://www.w3.org/2000/svg">
<path d="M30 27H5C4.55797 27 4.13405 27.1756 3.82149 27.4882C3.50893 27.8008 3.33333 28.2247 3.33333 28.6667C3.33333 29.1087 3.50893 29.5327 3.82149 29.8452C4.13405 30.1578 4.55797 30.3334 5 30.3334H30V33.6667H5C3.67392 33.6667 2.40215 33.1399 1.46447 32.2022C0.526784 31.2646 0 29.9928 0 28.6667V3.66671C0 2.78265 0.351189 1.93481 0.976311 1.30968C1.60143 0.684563 2.44928 0.333374 3.33333 0.333374H30V27ZM21.6667 12V8.66671H8.33333V12H21.6667Z" fill="url(#paint0_linear_623_478)"/>
<defs>
<linearGradient id="paint0_linear_623_478" x1="15" y1="0.333374" x2="15" y2="33.6667" gradientUnits="userSpaceOnUse">
<stop stop-color="white"/>
<stop offset="1" stop-color="white" stop-opacity="0.7"/>
</linearGradient>
</defs>
</svg>
