<?xml version="1.0" encoding="UTF-8"?>
<!DOCTYPE svg PUBLIC "-//W3C//DTD SVG 1.1//EN" "http://www.w3.org/Graphics/SVG/1.1/DTD/svg11.dtd">
<svg xmlns="http://www.w3.org/2000/svg" version="1.1" width="1985px" height="911px" style="shape-rendering:geometricPrecision; text-rendering:geometricPrecision; image-rendering:optimizeQuality; fill-rule:evenodd; clip-rule:evenodd" xmlns:xlink="http://www.w3.org/1999/xlink">
<g><path style="opacity:1" fill="#FFFFFF" d="M 427.5,-0.5 C 447.167,-0.5 466.833,-0.5 486.5,-0.5C 496.355,0.495142 506.355,1.49514 516.5,2.5C 517.552,4.25605 519.219,4.92271 521.5,4.5C 534.022,5.57385 546.355,7.57385 558.5,10.5C 559.183,12.1765 560.517,12.8432 562.5,12.5C 572.652,14.2048 582.652,16.5381 592.5,19.5C 592.821,21.0481 593.821,21.7148 595.5,21.5C 609.057,24.7861 622.057,29.4527 634.5,35.5C 634.821,37.0481 635.821,37.7148 637.5,37.5C 642.812,39.4866 648.146,41.4866 653.5,43.5C 672.905,53.862 691.905,64.6953 710.5,76C 711.93,77.886 713.597,79.5527 715.5,81C 727.375,88.2126 738.375,96.5459 748.5,106C 749.5,106.333 750.5,106.667 751.5,107C 756.554,111.211 761.221,115.877 765.5,121C 767.167,122 768.833,123 770.5,124C 805.669,158.009 835.002,196.509 858.5,239.5C 864.092,249.76 868.759,260.426 872.5,271.5C 872.5,272.833 873.167,273.5 874.5,273.5C 876.782,280.73 879.616,287.73 883,294.5C 885.145,301.099 886.978,307.765 888.5,314.5C 888.5,315.833 889.167,316.5 890.5,316.5C 893.469,326.677 895.802,337.01 897.5,347.5C 897.5,348.833 898.167,349.5 899.5,349.5C 902.259,363.052 904.259,376.719 905.5,390.5C 905.157,392.483 905.824,393.817 907.5,394.5C 911.5,434.5 911.5,474.5 907.5,514.5C 905.824,515.183 905.157,516.517 905.5,518.5C 904.469,531.684 902.469,544.684 899.5,557.5C 897.952,557.821 897.285,558.821 897.5,560.5C 896.054,571.065 893.721,581.398 890.5,591.5C 889.167,591.5 888.5,592.167 888.5,593.5C 885.786,607.908 881.119,621.575 874.5,634.5C 872.952,634.821 872.285,635.821 872.5,637.5C 870.772,642.515 868.939,647.515 867,652.5C 841.516,703.299 808.349,748.466 767.5,788C 747.566,805.724 726.399,821.891 704,836.5C 702.605,836.22 701.438,835.553 700.5,834.5C 686.867,812.722 672.7,791.388 658,770.5C 645.67,749.842 632.336,729.842 618,710.5C 616.333,707.167 614.667,703.833 613,700.5C 612,698.833 610.667,697.5 609,696.5C 596.409,676.311 583.576,656.311 570.5,636.5C 570.5,635.167 569.833,634.5 568.5,634.5C 552.049,611.042 536.383,587.042 521.5,562.5C 521.5,561.167 520.833,560.5 519.5,560.5C 514.829,553.166 510.162,545.833 505.5,538.5C 505.5,537.167 504.833,536.5 503.5,536.5C 495.167,523.169 486.334,510.169 477,497.5C 475.489,494.478 473.989,491.478 472.5,488.5C 472.5,487.167 471.833,486.5 470.5,486.5C 456.839,465.183 442.672,444.183 428,423.5C 426.489,420.478 424.989,417.478 423.5,414.5C 423.5,413.167 422.833,412.5 421.5,412.5C 390.281,364.734 358.781,317.067 327,269.5C 322.648,264.324 317.148,260.99 310.5,259.5C 310.5,258.167 309.833,257.5 308.5,257.5C 300.492,256.261 292.492,256.261 284.5,257.5C 282.821,257.285 281.821,257.952 281.5,259.5C 274.294,261.038 269.627,265.371 267.5,272.5C 266.167,340.33 265.5,408.497 265.5,477C 265.5,545.503 266.167,613.67 267.5,681.5C 268.736,692.28 274.736,698.614 285.5,700.5C 285.5,701.833 286.167,702.5 287.5,702.5C 294.829,703.76 302.163,703.76 309.5,702.5C 310.833,702.5 311.5,701.833 311.5,700.5C 315.602,699.248 319.268,697.248 322.5,694.5C 323.833,694.5 324.5,693.833 324.5,692.5C 327.676,688.801 329.176,684.468 329,679.5C 329.5,580.501 329.667,481.501 329.5,382.5C 329.328,381.508 329.662,380.842 330.5,380.5C 330.5,381.833 331.167,382.5 332.5,382.5C 342.386,398.495 352.719,414.161 363.5,429.5C 363.5,430.833 364.167,431.5 365.5,431.5C 444.558,548.679 524.058,665.346 604,781.5C 611.496,793.157 618.996,804.824 626.5,816.5C 635.758,830.019 645.258,843.352 655,856.5C 655.454,858.536 656.287,860.37 657.5,862C 656.644,863.595 655.311,864.428 653.5,864.5C 651.821,864.285 650.821,864.952 650.5,866.5C 638.479,872.507 626.146,878.007 613.5,883C 602.944,885.741 592.611,889.074 582.5,893C 575.288,895.137 567.955,896.637 560.5,897.5C 558.821,897.285 557.821,897.952 557.5,899.5C 544.683,902.469 531.683,904.469 518.5,905.5C 516.821,905.285 515.821,905.952 515.5,907.5C 505.355,908.505 495.355,909.505 485.5,910.5C 465.833,910.5 446.167,910.5 426.5,910.5C 417.632,909.552 408.632,908.552 399.5,907.5C 398.082,905.692 396.082,905.025 393.5,905.5C 380.064,904.149 366.73,902.149 353.5,899.5C 353.5,898.167 352.833,897.5 351.5,897.5C 341.004,895.776 330.67,893.443 320.5,890.5C 320.5,889.167 319.833,888.5 318.5,888.5C 311.345,886.962 304.345,884.962 297.5,882.5C 297.5,881.167 296.833,880.5 295.5,880.5C 289.685,879.173 284.019,877.34 278.5,875C 272.421,871.628 266.087,868.794 259.5,866.5C 259.5,865.167 258.833,864.5 257.5,864.5C 242.685,857.595 228.352,849.928 214.5,841.5C 214.5,840.167 213.833,839.5 212.5,839.5C 205.401,835.417 198.401,831.25 191.5,827C 180.14,818.44 168.807,809.606 157.5,800.5C 143.485,786.651 129.319,772.985 115,759.5C 114.667,758.5 114.333,757.5 114,756.5C 109.439,752.36 105.105,748.027 101,743.5C 88.6396,727.783 76.973,711.45 66,694.5C 50.4958,668.299 37.1625,640.966 26,612.5C 24.3396,606.858 22.8396,601.191 21.5,595.5C 21.7148,593.821 21.0481,592.821 19.5,592.5C 16.4069,582.705 14.0735,572.705 12.5,562.5C 12.7148,560.821 12.0481,559.821 10.5,559.5C 7.66325,546.977 5.66325,534.311 4.5,521.5C 5.01017,518.612 4.34351,516.279 2.5,514.5C 1.49491,505.025 0.494906,495.692 -0.5,486.5C -0.5,466.167 -0.5,445.833 -0.5,425.5C 0.495142,415.645 1.49514,405.645 2.5,395.5C 4.17649,394.817 4.84316,393.483 4.5,391.5C 5.47584,378.002 7.47584,364.669 10.5,351.5C 11.8333,351.5 12.5,350.833 12.5,349.5C 13.9455,338.935 16.2788,328.602 19.5,318.5C 20.8333,318.5 21.5,317.833 21.5,316.5C 22.7271,309.255 24.7271,302.255 27.5,295.5C 28.8333,295.5 29.5,294.833 29.5,293.5C 30.8991,287.303 32.8991,281.303 35.5,275.5C 36.8333,275.5 37.5,274.833 37.5,273.5C 38.031,270.763 38.8644,268.096 40,265.5C 44.3694,258.094 48.2028,250.428 51.5,242.5C 52.8333,242.5 53.5,241.833 53.5,240.5C 55.4505,235.653 57.7838,230.986 60.5,226.5C 61.8333,226.5 62.5,225.833 62.5,224.5C 66.05,215.995 70.7167,208.328 76.5,201.5C 77.8333,201.5 78.5,200.833 78.5,199.5C 90.9298,179.357 105.763,161.024 123,144.5C 123.333,143.5 123.667,142.5 124,141.5C 133.163,133.336 141.997,124.836 150.5,116C 154.082,114.754 156.749,112.42 158.5,109C 161.974,107.021 165.307,104.855 168.5,102.5C 172.833,98.6667 177.167,94.8333 181.5,91C 189.304,85.9257 196.971,80.5924 204.5,75C 213.327,70.0431 221.993,64.7098 230.5,59C 234.859,57.1517 239.192,55.3183 243.5,53.5C 244.833,53.5 245.5,52.8333 245.5,51.5C 249.877,48.9822 254.544,46.9822 259.5,45.5C 260.833,45.5 261.5,44.8333 261.5,43.5C 272.54,37.5097 284.207,32.843 296.5,29.5C 297.833,29.5 298.5,28.8333 298.5,27.5C 305.355,25.0359 312.355,23.0359 319.5,21.5C 320.833,21.5 321.5,20.8333 321.5,19.5C 331.67,16.5569 342.004,14.2236 352.5,12.5C 353.833,12.5 354.5,11.8333 354.5,10.5C 367.737,7.84936 381.07,5.84936 394.5,4.5C 396.781,4.92271 398.448,4.25605 399.5,2.5C 408.986,1.6096 418.319,0.609603 427.5,-0.5 Z M 628.5,248.5 C 628.5,249.833 629.167,250.5 630.5,250.5C 637.36,252.032 642.026,256.032 644.5,262.5C 645.165,383.838 644.498,504.838 642.5,625.5C 640.669,620.503 637.836,616.17 634,612.5C 630.586,606.003 626.919,599.67 623,593.5C 608.751,573.292 595.084,552.626 582,531.5C 581.333,441.833 581.333,352.167 582,262.5C 584.015,255.85 588.515,251.85 595.5,250.5C 596.833,250.5 597.5,249.833 597.5,248.5C 607.829,247.197 618.162,247.197 628.5,248.5 Z"/></g>
<g><path style="opacity:1" fill="#000000" d="M 931.5,-0.5 C 934.833,-0.5 938.167,-0.5 941.5,-0.5C 941.5,303.167 941.5,606.833 941.5,910.5C 938.167,910.5 934.833,910.5 931.5,910.5C 931.5,606.833 931.5,303.167 931.5,-0.5 Z"/></g>
<g><path style="opacity:0.004" fill="#d2f8ff" d="M 1689.5,-0.5 C 1692.17,-0.5 1694.83,-0.5 1697.5,-0.5C 1699.17,0.166667 1700.83,0.833333 1702.5,1.5C 1697.95,1.37554 1693.62,0.708878 1689.5,-0.5 Z"/></g>
<g><path style="opacity:0.442" fill="#a0efff" d="M 1255.5,-0.5 C 1260.83,-0.5 1266.17,-0.5 1271.5,-0.5C 1274.83,0.166667 1278.17,0.833333 1281.5,1.5C 1268.15,1.33393 1254.82,1.66726 1241.5,2.5C 1246.11,1.21049 1250.78,0.210488 1255.5,-0.5 Z"/></g>
<g><path style="opacity:0.533" fill="#8decff" d="M 1662.5,-0.5 C 1666.83,-0.5 1671.17,-0.5 1675.5,-0.5C 1667.69,0.907503 1659.69,1.9075 1651.5,2.5C 1655.14,1.39341 1658.81,0.393406 1662.5,-0.5 Z"/></g>
<g><path style="opacity:1" fill="#1bd8ff" d="M 1675.5,-0.5 C 1680.17,-0.5 1684.83,-0.5 1689.5,-0.5C 1693.62,0.708878 1697.95,1.37554 1702.5,1.5C 1723.08,5.86746 1739.92,16.2008 1753,32.5C 1769.36,55.5713 1779.36,81.238 1783,109.5C 1787.46,141.818 1787.62,174.151 1783.5,206.5C 1781.62,213.245 1780.62,220.245 1780.5,227.5C 1778.34,246.653 1774.67,265.486 1769.5,284C 1825.77,298.64 1877.43,322.64 1924.5,356C 1944.48,371.318 1960.98,389.818 1974,411.5C 1978.28,420.991 1981.78,430.657 1984.5,440.5C 1984.5,449.5 1984.5,458.5 1984.5,467.5C 1979.53,488.441 1970.03,507.107 1956,523.5C 1927.8,553.512 1894.97,577.012 1857.5,594C 1829.96,606.773 1801.63,617.273 1772.5,625.5C 1780.97,659.654 1785.97,694.321 1787.5,729.5C 1787.13,748.511 1786.47,767.511 1785.5,786.5C 1783.27,817.694 1773.77,846.361 1757,872.5C 1742.95,891.946 1724.11,903.946 1700.5,908.5C 1684.79,909.952 1669.12,909.618 1653.5,907.5C 1638.73,904.854 1624.4,900.687 1610.5,895C 1576.92,880.062 1545.92,861.062 1517.5,838C 1502.65,825.481 1488.15,812.647 1474,799.5C 1433.74,839.883 1387.57,871.717 1335.5,895C 1320.92,900.694 1305.92,904.861 1290.5,907.5C 1278.55,908.964 1266.55,909.631 1254.5,909.5C 1222.79,906.617 1198.62,891.617 1182,864.5C 1168.67,839.525 1161,812.858 1159,784.5C 1155.85,732.006 1161.02,680.339 1174.5,629.5C 1136.34,617.919 1099.67,602.753 1064.5,584C 1032.53,566.448 1005.03,543.614 982,515.5C 971.868,501.669 964.868,486.336 961,469.5C 958.49,451.127 960.823,433.46 968,416.5C 975.341,401.836 984.674,388.502 996,376.5C 1022.78,350.677 1053.28,330.177 1087.5,315C 1116.02,302.074 1145.35,291.408 1175.5,283C 1169.84,263.523 1165.84,243.689 1163.5,223.5C 1163.77,218.566 1163.1,213.9 1161.5,209.5C 1155.55,170.353 1156.39,131.353 1164,92.5C 1169.21,65.8131 1181.04,42.6465 1199.5,23C 1211.52,12.1582 1225.52,5.32484 1241.5,2.5C 1254.82,1.66726 1268.15,1.33393 1281.5,1.5C 1287.25,2.02127 1292.92,3.02127 1298.5,4.5C 1300.51,5.92381 1302.85,6.59047 1305.5,6.5C 1335.45,15.3137 1363.45,28.1471 1389.5,45C 1419.4,64.5655 1447.23,86.7322 1473,111.5C 1512.53,72.3253 1557.36,40.492 1607.5,16C 1621.74,10.0436 1636.41,5.54359 1651.5,2.5C 1659.69,1.9075 1667.69,0.907503 1675.5,-0.5 Z M 1326.5,254.5 C 1318.24,254.532 1310.24,255.532 1302.5,257.5C 1274.35,261.264 1246.35,265.93 1218.5,271.5C 1213.61,251.345 1209.61,231.012 1206.5,210.5C 1206.48,204.288 1205.81,198.288 1204.5,192.5C 1204.5,192.167 1204.5,191.833 1204.5,191.5C 1202.69,172.184 1202.36,152.85 1203.5,133.5C 1204.65,108.89 1211.15,85.8905 1223,64.5C 1232.92,50.8969 1246.42,44.2302 1263.5,44.5C 1292.37,47.6019 1319.37,56.4353 1344.5,71C 1379.66,91.4886 1412,115.822 1441.5,144C 1410.24,177.159 1381.57,212.493 1355.5,250C 1345.84,251.582 1336.17,253.082 1326.5,254.5 Z M 1733.5,93.5 C 1733.41,96.1522 1734.08,98.4855 1735.5,100.5C 1736.76,106.454 1737.76,112.454 1738.5,118.5C 1738.78,124.021 1739.45,129.354 1740.5,134.5C 1740.91,145.831 1741.24,157.164 1741.5,168.5C 1740.45,177.321 1739.78,186.321 1739.5,195.5C 1737.99,211.231 1735.82,226.898 1733,242.5C 1730.79,252.663 1728.29,262.663 1725.5,272.5C 1704.74,267.215 1683.74,263.215 1662.5,260.5C 1651.04,258.315 1639.37,256.649 1627.5,255.5C 1619.32,254.429 1610.98,253.429 1602.5,252.5C 1597.82,252.114 1593.32,251.114 1589,249.5C 1563.43,212.264 1535.26,177.097 1504.5,144C 1541.51,106.667 1583.85,77.0008 1631.5,55C 1640.92,51.2275 1650.59,48.2275 1660.5,46C 1671.45,44.4543 1682.45,44.1209 1693.5,45C 1706.36,49.1637 1716.2,56.9971 1723,68.5C 1727.19,76.5777 1730.69,84.911 1733.5,93.5 Z M 1530.5,245.5 C 1491.83,245.5 1453.17,245.5 1414.5,245.5C 1432.56,221.457 1452.06,198.457 1473,176.5C 1493.48,198.472 1512.65,221.472 1530.5,245.5 Z M 1528.5,291.5 C 1537.98,292.698 1547.65,293.364 1557.5,293.5C 1560.9,293.907 1564.06,294.907 1567,296.5C 1600.81,347.104 1631.31,399.771 1658.5,454.5C 1630.89,509.727 1600.23,563.061 1566.5,614.5C 1563.02,615.167 1559.69,615.834 1556.5,616.5C 1534.68,617.473 1513.01,618.473 1491.5,619.5C 1460.82,619.25 1430.16,618.583 1399.5,617.5C 1394.35,616.673 1389.02,616.173 1383.5,616C 1381.19,615.764 1379.19,614.931 1377.5,613.5C 1344.02,562.728 1313.68,509.895 1286.5,455C 1313.66,399.338 1344.66,346.005 1379.5,295C 1429.08,290.558 1478.75,289.391 1528.5,291.5 Z M 1320.5,300.5 C 1300.33,333.494 1281.16,367.16 1263,401.5C 1251.46,374.681 1241.12,347.348 1232,319.5C 1231.22,318.056 1231.39,316.723 1232.5,315.5C 1261.52,308.695 1290.86,303.695 1320.5,300.5 Z M 1623.5,301.5 C 1624.62,300.844 1625.95,300.511 1627.5,300.5C 1656.37,304.475 1685.04,309.475 1713.5,315.5C 1704.88,344.846 1694.38,373.512 1682,401.5C 1663.76,367.347 1644.26,334.014 1623.5,301.5 Z M 1186.5,326.5 C 1201.05,370.102 1217.71,412.936 1236.5,455C 1217.32,497.543 1200.48,541.043 1186,585.5C 1141.71,572.434 1100.21,553.6 1061.5,529C 1044,516.831 1028.83,502.331 1016,485.5C 1001.71,463.938 1002.05,442.605 1017,421.5C 1029.6,405.605 1044.43,392.105 1061.5,381C 1100.63,357.118 1142.3,338.952 1186.5,326.5 Z M 1757.5,327.5 C 1804,339.924 1847.33,359.091 1887.5,385C 1902.61,395.774 1916.11,408.274 1928,422.5C 1942.94,442.909 1943.28,463.576 1929,484.5C 1917.24,499.261 1903.74,512.428 1888.5,524C 1849.17,550.075 1806.67,569.575 1761,582.5C 1760.05,582.095 1759.39,581.428 1759,580.5C 1745.09,537.171 1728.25,495.004 1708.5,454C 1727.89,412.994 1744.22,370.827 1757.5,327.5 Z M 1682.5,506.5 C 1695.09,535.095 1706.42,564.262 1716.5,594C 1686.09,600.982 1655.43,606.482 1624.5,610.5C 1623.48,609.998 1623.31,609.332 1624,608.5C 1645.02,575.328 1664.52,541.328 1682.5,506.5 Z M 1298.5,608.5 C 1292.09,606.656 1285.42,605.656 1278.5,605.5C 1262.51,602.476 1246.51,599.309 1230.5,596C 1240.08,566.351 1250.91,537.184 1263,508.5C 1280.97,543.116 1300.47,576.783 1321.5,609.5C 1320,609.833 1318.5,610.167 1317,610.5C 1310.84,609.709 1304.67,609.042 1298.5,608.5 Z M 1738.5,687.5 C 1738.69,692.37 1739.36,697.036 1740.5,701.5C 1740.5,702.167 1740.5,702.833 1740.5,703.5C 1741.45,713.985 1742.45,724.318 1743.5,734.5C 1744.62,765.604 1740.45,795.938 1731,825.5C 1725.81,839.657 1717.31,851.157 1705.5,860C 1693.34,865.213 1680.68,866.88 1667.5,865C 1643.71,860.474 1621.38,852.14 1600.5,840C 1565.94,819.764 1534.6,795.431 1506.5,767C 1535.89,733.277 1563.39,698.111 1589,661.5C 1589.9,660.299 1591.07,659.465 1592.5,659C 1638.21,654.887 1683.37,647.72 1728,637.5C 1732.31,653.988 1735.81,670.654 1738.5,687.5 Z M 1255.5,646.5 C 1263.55,648.786 1271.89,650.119 1280.5,650.5C 1280.83,650.5 1281.17,650.5 1281.5,650.5C 1289.59,652.562 1297.92,653.896 1306.5,654.5C 1322.8,656.367 1339.13,658.2 1355.5,660C 1382.26,697.431 1411.26,733.098 1442.5,767C 1405.19,804.632 1362.19,833.965 1313.5,855C 1295.14,862.072 1276.14,865.405 1256.5,865C 1238.58,862.424 1225.75,852.924 1218,836.5C 1210.05,819.036 1205.38,800.703 1204,781.5C 1202.06,759.153 1202.23,736.82 1204.5,714.5C 1205.72,709.71 1206.39,704.71 1206.5,699.5C 1209.17,684.492 1211.84,669.492 1214.5,654.5C 1215.77,652.095 1216.43,649.428 1216.5,646.5C 1216.83,644.5 1217.17,642.5 1217.5,640.5C 1230.13,642.626 1242.8,644.626 1255.5,646.5 Z M 1528.5,662.5 C 1532.2,661.874 1533.03,662.874 1531,665.5C 1522.76,675.653 1514.76,685.986 1507,696.5C 1496.36,709.637 1485.2,722.304 1473.5,734.5C 1452.89,711.731 1433.23,688.231 1414.5,664C 1433.83,663.833 1453.16,664 1472.5,664.5C 1491.35,664.523 1510.02,663.856 1528.5,662.5 Z"/></g>
<g><path style="opacity:0.216" fill="#959595" d="M 399.5,2.5 C 398.448,4.25605 396.781,4.92271 394.5,4.5C 395.552,2.74395 397.219,2.07729 399.5,2.5 Z"/></g>
<g><path style="opacity:0.008" fill="#cfcfcf" d="M 516.5,2.5 C 518.781,2.07729 520.448,2.74395 521.5,4.5C 519.219,4.92271 517.552,4.25605 516.5,2.5 Z"/></g>
<g><path style="opacity:0.016" fill="#cdf7ff" d="M 1298.5,4.5 C 1301.15,4.40953 1303.49,5.07619 1305.5,6.5C 1302.85,6.59047 1300.51,5.92381 1298.5,4.5 Z"/></g>
<g><path style="opacity:0.114" fill="#b7b7b7" d="M 354.5,10.5 C 354.5,11.8333 353.833,12.5 352.5,12.5C 352.5,11.1667 353.167,10.5 354.5,10.5 Z"/></g>
<g><path style="opacity:0.027" fill="#b2b2b2" d="M 558.5,10.5 C 560.483,10.1568 561.817,10.8235 562.5,12.5C 560.517,12.8432 559.183,12.1765 558.5,10.5 Z"/></g>
<g><path style="opacity:0.216" fill="#a7a7a7" d="M 321.5,19.5 C 321.5,20.8333 320.833,21.5 319.5,21.5C 319.5,20.1667 320.167,19.5 321.5,19.5 Z"/></g>
<g><path style="opacity:0.008" fill="#d8d8d8" d="M 592.5,19.5 C 594.179,19.2852 595.179,19.9519 595.5,21.5C 593.821,21.7148 592.821,21.0481 592.5,19.5 Z"/></g>
<g><path style="opacity:0.349" fill="#848484" d="M 298.5,27.5 C 298.5,28.8333 297.833,29.5 296.5,29.5C 296.5,28.1667 297.167,27.5 298.5,27.5 Z"/></g>
<g><path style="opacity:0.349" fill="#868686" d="M 634.5,35.5 C 636.179,35.2852 637.179,35.9519 637.5,37.5C 635.821,37.7148 634.821,37.0481 634.5,35.5 Z"/></g>
<g><path style="opacity:0.522" fill="#797979" d="M 261.5,43.5 C 261.5,44.8333 260.833,45.5 259.5,45.5C 259.5,44.1667 260.167,43.5 261.5,43.5 Z"/></g>
<g><path style="opacity:0.522" fill="#797979" d="M 245.5,51.5 C 245.5,52.8333 244.833,53.5 243.5,53.5C 243.5,52.1667 244.167,51.5 245.5,51.5 Z"/></g>
<g><path style="opacity:0.02" fill="#ccf7ff" d="M 1733.5,93.5 C 1734.92,95.5145 1735.59,97.8478 1735.5,100.5C 1734.08,98.4855 1733.41,96.1522 1733.5,93.5 Z"/></g>
<g><path style="opacity:0.09" fill="#c5f5ff" d="M 1738.5,118.5 C 1740.18,123.568 1740.84,128.902 1740.5,134.5C 1739.45,129.354 1738.78,124.021 1738.5,118.5 Z"/></g>
<g><path style="opacity:0.678" fill="#74e6ff" d="M 1203.5,133.5 C 1202.36,152.85 1202.69,172.184 1204.5,191.5C 1203.71,190.391 1203.21,189.058 1203,187.5C 1201.64,170.518 1201.31,153.518 1202,136.5C 1202.23,135.263 1202.73,134.263 1203.5,133.5 Z"/></g>
<g><path style="opacity:0.569" fill="#9ceeff" d="M 1741.5,168.5 C 1741.67,175.841 1741.5,183.174 1741,190.5C 1740.8,192.382 1740.3,194.048 1739.5,195.5C 1739.78,186.321 1740.45,177.321 1741.5,168.5 Z"/></g>
<g><path style="opacity:0.216" fill="#888988" d="M 78.5,199.5 C 78.5,200.833 77.8333,201.5 76.5,201.5C 76.5,200.167 77.1667,199.5 78.5,199.5 Z"/></g>
<g><path style="opacity:0.439" fill="#a6f0ff" d="M 1204.5,192.5 C 1205.81,198.288 1206.48,204.288 1206.5,210.5C 1204.94,204.739 1204.28,198.739 1204.5,192.5 Z"/></g>
<g><path style="opacity:0.098" fill="#b1f2ff" d="M 1783.5,206.5 C 1783.32,213.749 1782.32,220.749 1780.5,227.5C 1780.62,220.245 1781.62,213.245 1783.5,206.5 Z"/></g>
<g><path style="opacity:0.169" fill="#adf1ff" d="M 1161.5,209.5 C 1163.1,213.9 1163.77,218.566 1163.5,223.5C 1162.2,219.057 1161.53,214.391 1161.5,209.5 Z"/></g>
<g><path style="opacity:0.216" fill="#888988" d="M 62.5,224.5 C 62.5,225.833 61.8333,226.5 60.5,226.5C 60.5,225.167 61.1667,224.5 62.5,224.5 Z"/></g>
<g><path style="opacity:0.114" fill="#a8a9a8" d="M 53.5,240.5 C 53.5,241.833 52.8333,242.5 51.5,242.5C 51.5,241.167 52.1667,240.5 53.5,240.5 Z"/></g>
<g><path style="opacity:0.745" fill="#85e9ff" d="M 1414.5,245.5 C 1453.17,245.5 1491.83,245.5 1530.5,245.5C 1531.29,245.783 1531.96,246.283 1532.5,247C 1492.5,247.667 1452.5,247.667 1412.5,247C 1413.04,246.283 1413.71,245.783 1414.5,245.5 Z"/></g>
<g><path style="opacity:0.063" fill="#a1a1a1" d="M 597.5,248.5 C 597.5,249.833 596.833,250.5 595.5,250.5C 595.5,249.167 596.167,248.5 597.5,248.5 Z"/></g>
<g><path style="opacity:0.216" fill="#a7a7a7" d="M 628.5,248.5 C 629.833,248.5 630.5,249.167 630.5,250.5C 630.5,249.167 629.833,248.5 628.5,248.5 Z"/></g>
<g><path style="opacity:0.678" fill="#8aeaff" d="M 1602.5,252.5 C 1610.98,253.429 1619.32,254.429 1627.5,255.5C 1618.85,255.96 1610.52,254.96 1602.5,252.5 Z"/></g>
<g><path style="opacity:0.451" fill="#97edff" d="M 1326.5,254.5 C 1318.73,256.227 1310.73,257.227 1302.5,257.5C 1310.24,255.532 1318.24,254.532 1326.5,254.5 Z"/></g>
<g><path style="opacity:0.114" fill="#b8b8b8" d="M 284.5,257.5 C 284.179,259.048 283.179,259.715 281.5,259.5C 281.821,257.952 282.821,257.285 284.5,257.5 Z"/></g>
<g><path style="opacity:0.216" fill="#a1a1a1" d="M 308.5,257.5 C 309.833,257.5 310.5,258.167 310.5,259.5C 309.167,259.5 308.5,258.833 308.5,257.5 Z"/></g>
<g><path style="opacity:0.757" fill="#8eebff" d="M 1627.5,255.5 C 1639.37,256.649 1651.04,258.315 1662.5,260.5C 1650.51,260.215 1638.84,258.549 1627.5,255.5 Z"/></g>
<g><path style="opacity:0.114" fill="#a8a8a8" d="M 644.5,262.5 C 645.666,384.333 645.833,506.333 645,628.5C 644.302,627.309 643.469,626.309 642.5,625.5C 644.498,504.838 645.165,383.838 644.5,262.5 Z"/></g>
<g><path style="opacity:0.522" fill="#737373" d="M 872.5,271.5 C 873.833,271.5 874.5,272.167 874.5,273.5C 874.5,272.167 873.833,271.5 872.5,271.5 Z"/></g>
<g><path style="opacity:0.114" fill="#a8a9a8" d="M 37.5,273.5 C 37.5,274.833 36.8333,275.5 35.5,275.5C 35.5,274.167 36.1667,273.5 37.5,273.5 Z"/></g>
<g><path style="opacity:0.063" fill="#bfbfbf" d="M 267.5,272.5 C 267.5,408.833 267.5,545.167 267.5,681.5C 266.167,613.67 265.5,545.503 265.5,477C 265.5,408.497 266.167,340.33 267.5,272.5 Z"/></g>
<g><path style="opacity:0.448" fill="#9eefff" d="M 1528.5,291.5 C 1538.39,291.142 1548.05,291.808 1557.5,293.5C 1547.65,293.364 1537.98,292.698 1528.5,291.5 Z"/></g>
<g><path style="opacity:0.522" fill="#6c6c6c" d="M 29.5,293.5 C 29.5,294.833 28.8333,295.5 27.5,295.5C 27.5,294.167 28.1667,293.5 29.5,293.5 Z"/></g>
<g><path style="opacity:0.114" fill="#a8a9a8" d="M 888.5,314.5 C 889.833,314.5 890.5,315.167 890.5,316.5C 890.5,315.167 889.833,314.5 888.5,314.5 Z"/></g>
<g><path style="opacity:0.349" fill="#848484" d="M 21.5,316.5 C 21.5,317.833 20.8333,318.5 19.5,318.5C 19.5,317.167 20.1667,316.5 21.5,316.5 Z"/></g>
<g><path style="opacity:0.063" fill="#bfc0bf" d="M 897.5,347.5 C 898.833,347.5 899.5,348.167 899.5,349.5C 899.5,348.167 898.833,347.5 897.5,347.5 Z"/></g>
<g><path style="opacity:0.349" fill="#848484" d="M 12.5,349.5 C 12.5,350.833 11.8333,351.5 10.5,351.5C 10.5,350.167 11.1667,349.5 12.5,349.5 Z"/></g>
<g><path style="opacity:1" fill="#13d8ff" d="M 1468.5,361.5 C 1513.21,362.737 1543.71,384.07 1560,425.5C 1571.55,472.541 1557.05,509.041 1516.5,535C 1472.51,554.976 1434.01,547.476 1401,512.5C 1379.02,483.002 1374.69,451.002 1388,416.5C 1404.67,383.336 1431.5,365.003 1468.5,361.5 Z"/></g>
<g><path style="opacity:0.008" fill="#d1d1d1" d="M 330.5,380.5 C 329.662,380.842 329.328,381.508 329.5,382.5C 328.224,381.614 328.224,380.614 329.5,379.5C 330.107,379.624 330.44,379.957 330.5,380.5 Z"/></g>
<g><path style="opacity:0.008" fill="#e8e9e8" d="M 330.5,380.5 C 331.833,380.5 332.5,381.167 332.5,382.5C 332.5,381.167 331.833,380.5 330.5,380.5 Z"/></g>
<g><path style="opacity:0.349" fill="#8f8f8f" d="M 905.5,390.5 C 907.176,391.183 907.843,392.517 907.5,394.5C 905.824,393.817 905.157,392.483 905.5,390.5 Z"/></g>
<g><path style="opacity:0.349" fill="#8d8d8d" d="M 4.5,391.5 C 4.84316,393.483 4.17649,394.817 2.5,395.5C 2.15684,393.517 2.82351,392.183 4.5,391.5 Z"/></g>
<g><path style="opacity:0.216" fill="#888988" d="M 421.5,412.5 C 422.833,412.5 423.5,413.167 423.5,414.5C 422.167,414.5 421.5,413.833 421.5,412.5 Z"/></g>
<g><path style="opacity:0.063" fill="#bfc0bf" d="M 363.5,429.5 C 364.833,429.5 365.5,430.167 365.5,431.5C 365.5,430.167 364.833,429.5 363.5,429.5 Z"/></g>
<g><path style="opacity:0.216" fill="#888988" d="M 470.5,486.5 C 471.833,486.5 472.5,487.167 472.5,488.5C 471.167,488.5 470.5,487.833 470.5,486.5 Z"/></g>
<g><path style="opacity:0.114" fill="#b3b3b3" d="M 907.5,514.5 C 907.843,516.483 907.176,517.817 905.5,518.5C 905.157,516.517 905.824,515.183 907.5,514.5 Z"/></g>
<g><path style="opacity:0.114" fill="#a2a2a2" d="M 2.5,514.5 C 4.34351,516.279 5.01017,518.612 4.5,521.5C 2.65649,519.721 1.98983,517.388 2.5,514.5 Z"/></g>
<g><path style="opacity:0.063" fill="#bfc0bf" d="M 503.5,536.5 C 504.833,536.5 505.5,537.167 505.5,538.5C 504.167,538.5 503.5,537.833 503.5,536.5 Z"/></g>
<g><path style="opacity:0.216" fill="#898989" d="M 899.5,557.5 C 899.715,559.179 899.048,560.179 897.5,560.5C 897.285,558.821 897.952,557.821 899.5,557.5 Z"/></g>
<g><path style="opacity:0.063" fill="#a9a9a9" d="M 10.5,559.5 C 12.0481,559.821 12.7148,560.821 12.5,562.5C 10.9519,562.179 10.2852,561.179 10.5,559.5 Z"/></g>
<g><path style="opacity:0.114" fill="#a8a9a8" d="M 519.5,560.5 C 520.833,560.5 521.5,561.167 521.5,562.5C 520.167,562.5 519.5,561.833 519.5,560.5 Z"/></g>
<g><path style="opacity:0.063" fill="#a1a1a1" d="M 890.5,591.5 C 890.5,592.833 889.833,593.5 888.5,593.5C 888.5,592.167 889.167,591.5 890.5,591.5 Z"/></g>
<g><path style="opacity:0.063" fill="#a9a9a9" d="M 19.5,592.5 C 21.0481,592.821 21.7148,593.821 21.5,595.5C 19.9519,595.179 19.2852,594.179 19.5,592.5 Z"/></g>
<g><path style="opacity:0.004" fill="#c1f5ff" d="M 1278.5,605.5 C 1285.42,605.656 1292.09,606.656 1298.5,608.5C 1291.58,608.344 1284.91,607.344 1278.5,605.5 Z"/></g>
<g><path style="opacity:0.886" fill="#a3efff" d="M 1377.5,613.5 C 1379.19,614.931 1381.19,615.764 1383.5,616C 1389.02,616.173 1394.35,616.673 1399.5,617.5C 1392.47,617.83 1385.47,617.497 1378.5,616.5C 1377.87,615.583 1377.54,614.583 1377.5,613.5 Z"/></g>
<g><path style="opacity:0.863" fill="#7be8ff" d="M 1556.5,616.5 C 1550.66,617.417 1544.66,618.25 1538.5,619C 1522.84,619.5 1507.17,619.667 1491.5,619.5C 1513.01,618.473 1534.68,617.473 1556.5,616.5 Z"/></g>
<g><path style="opacity:0.063" fill="#bfc0bf" d="M 568.5,634.5 C 569.833,634.5 570.5,635.167 570.5,636.5C 569.167,636.5 568.5,635.833 568.5,634.5 Z"/></g>
<g><path style="opacity:0.349" fill="#868686" d="M 874.5,634.5 C 874.715,636.179 874.048,637.179 872.5,637.5C 872.285,635.821 872.952,634.821 874.5,634.5 Z"/></g>
<g><path style="opacity:0.69" fill="#94ecff" d="M 1255.5,646.5 C 1264.08,647.087 1272.41,648.42 1280.5,650.5C 1271.89,650.119 1263.55,648.786 1255.5,646.5 Z"/></g>
<g><path style="opacity:0.725" fill="#89eaff" d="M 1281.5,650.5 C 1290.12,650.828 1298.45,652.161 1306.5,654.5C 1297.92,653.896 1289.59,652.562 1281.5,650.5 Z"/></g>
<g><path style="opacity:0.027" fill="#cdf7ff" d="M 1216.5,646.5 C 1216.43,649.428 1215.77,652.095 1214.5,654.5C 1214.29,651.505 1214.96,648.838 1216.5,646.5 Z"/></g>
<g><path style="opacity:0.008" fill="#e8e9e8" d="M 324.5,692.5 C 324.5,693.833 323.833,694.5 322.5,694.5C 322.5,693.167 323.167,692.5 324.5,692.5 Z"/></g>
<g><path style="opacity:0.094" fill="#c0f5ff" d="M 1738.5,687.5 C 1740.1,691.9 1740.77,696.566 1740.5,701.5C 1739.36,697.036 1738.69,692.37 1738.5,687.5 Z"/></g>
<g><path style="opacity:0.008" fill="#d3d3d3" d="M 285.5,700.5 C 286.833,700.5 287.5,701.167 287.5,702.5C 287.5,701.167 286.833,700.5 285.5,700.5 Z"/></g>
<g><path style="opacity:0.349" fill="#848484" d="M 311.5,700.5 C 311.5,701.833 310.833,702.5 309.5,702.5C 309.5,701.167 310.167,700.5 311.5,700.5 Z"/></g>
<g><path style="opacity:0.098" fill="#bef5ff" d="M 1206.5,699.5 C 1206.39,704.71 1205.72,709.71 1204.5,714.5C 1204.3,709.25 1204.97,704.25 1206.5,699.5 Z"/></g>
<g><path style="opacity:0.673" fill="#8eebff" d="M 1740.5,703.5 C 1741.29,704.609 1741.79,705.942 1742,707.5C 1743.04,716.472 1743.54,725.472 1743.5,734.5C 1742.45,724.318 1741.45,713.985 1740.5,703.5 Z"/></g>
<g><path style="opacity:0.427" fill="#abf0ff" d="M 1787.5,729.5 C 1788.66,741.326 1788.83,753.326 1788,765.5C 1787.75,772.715 1786.91,779.715 1785.5,786.5C 1786.47,767.511 1787.13,748.511 1787.5,729.5 Z"/></g>
<g><path style="opacity:0.522" fill="#797979" d="M 212.5,839.5 C 213.833,839.5 214.5,840.167 214.5,841.5C 213.167,841.5 212.5,840.833 212.5,839.5 Z"/></g>
<g><path style="opacity:0.008" fill="#e8e9e8" d="M 257.5,864.5 C 258.833,864.5 259.5,865.167 259.5,866.5C 258.167,866.5 257.5,865.833 257.5,864.5 Z"/></g>
<g><path style="opacity:0.522" fill="#6c6c6c" d="M 653.5,864.5 C 653.179,866.048 652.179,866.715 650.5,866.5C 650.821,864.952 651.821,864.285 653.5,864.5 Z"/></g>
<g><path style="opacity:0.349" fill="#8a8a8a" d="M 295.5,880.5 C 296.833,880.5 297.5,881.167 297.5,882.5C 296.167,882.5 295.5,881.833 295.5,880.5 Z"/></g>
<g><path style="opacity:0.216" fill="#a7a7a7" d="M 318.5,888.5 C 319.833,888.5 320.5,889.167 320.5,890.5C 319.167,890.5 318.5,889.833 318.5,888.5 Z"/></g>
<g><path style="opacity:0.216" fill="#a1a1a1" d="M 351.5,897.5 C 352.833,897.5 353.5,898.167 353.5,899.5C 352.167,899.5 351.5,898.833 351.5,897.5 Z"/></g>
<g><path style="opacity:0.216" fill="#898989" d="M 560.5,897.5 C 560.179,899.048 559.179,899.715 557.5,899.5C 557.821,897.952 558.821,897.285 560.5,897.5 Z"/></g>
<g><path style="opacity:0.349" fill="#7f7f7f" d="M 393.5,905.5 C 396.082,905.025 398.082,905.692 399.5,907.5C 396.918,907.975 394.918,907.308 393.5,905.5 Z"/></g>
<g><path style="opacity:0.114" fill="#ababab" d="M 518.5,905.5 C 518.179,907.048 517.179,907.715 515.5,907.5C 515.821,905.952 516.821,905.285 518.5,905.5 Z"/></g>
<g><path style="opacity:0.016" fill="#d4f8ff" d="M 1290.5,907.5 C 1285.54,908.718 1280.54,909.718 1275.5,910.5C 1268.5,910.5 1261.5,910.5 1254.5,910.5C 1254.5,910.167 1254.5,909.833 1254.5,909.5C 1266.55,909.631 1278.55,908.964 1290.5,907.5 Z"/></g>
<g><path style="opacity:0.141" fill="#aff1ff" d="M 1653.5,907.5 C 1669.12,909.618 1684.79,909.952 1700.5,908.5C 1698.5,909.167 1696.5,909.833 1694.5,910.5C 1684.83,910.5 1675.17,910.5 1665.5,910.5C 1661.46,909.684 1657.46,908.684 1653.5,907.5 Z"/></g>
</svg>
