<?xml version="1.0" encoding="utf-8"?>
<svg xmlns="http://www.w3.org/2000/svg" viewBox="0 0 720 419.99996">
  <defs>
    <style>.cls-1,.cls-2,.cls-3,.cls-5,.cls-7{fill:none;}.cls-2{stroke:#183a9e;}.cls-2,.cls-3,.cls-5,.cls-6,.cls-7{stroke-miterlimit:10;stroke-width:2px;}.cls-3{stroke:#204ecf;}.cls-4,.cls-6{fill:#204ecf;}.cls-4{opacity:0.2;}.cls-5{stroke:#25a9ef;}.cls-6,.cls-7{stroke:#00cc83;}.cls-6{opacity:0.5;}.cls-8{fill:#00cc83;}</style>
  </defs>
  <g data-name="Layer 2" id="Layer_2">
    <g id="Illustrations">
      <rect class="cls-1" height="419.99996" width="720"/>
      <path class="cls-2" d="M527.19536,240.28784,391.06017,148.72242c-17.15423-11.538-44.96611-11.538-62.12034,0L192.80468,240.28781"/>
      <path class="cls-3" d="M192.80468,240.28781l-13.97025,9.39648c-17.15392,11.53785-17.15392,30.2445,0,41.78255l150.1054,100.96188c17.15423,11.53784,44.96611,11.53784,62.12034,0l150.1054-100.96188c17.15392-11.538,17.15392-30.2447,0-41.78255l-13.97021-9.39645"/>
      <path class="cls-4" d="M541.16557,189.10878,391.06017,88.14691c-17.15423-11.538-44.96611-11.538-62.12034,0L178.83443,189.10878c-17.15392,11.53784-17.15392,30.2445,0,41.78255l150.1054,100.96188c17.15423,11.53784,44.96611,11.53784,62.12034,0l150.1054-100.96188C558.31949,219.35328,558.31949,200.64662,541.16557,189.10878Z"/>
      <path class="cls-5" d="M192.80468,179.7123l-13.97025,9.39648c-17.15392,11.53784-17.15392,30.2445,0,41.78255l150.1054,100.96188c17.15423,11.53784,44.96611,11.53784,62.12034,0l150.1054-100.96188c17.15392-11.538,17.15392-30.24471,0-41.78255l-13.97028-9.3965"/>
      <path class="cls-3" d="M527.19529,179.71228,391.06017,88.14691c-17.15423-11.538-44.96611-11.538-62.12034,0L192.80468,179.7123"/>
      <path class="cls-6" d="M541.16557,128.53327,391.06017,27.57139c-17.15423-11.53805-44.96611-11.53805-62.12034,0L178.83443,128.53327c-17.15392,11.53784-17.15392,30.2445,0,41.78255L328.93983,271.2777c17.15423,11.53784,44.96611,11.53784,62.12034,0l150.1054-100.96188C558.31949,158.77777,558.31949,140.07111,541.16557,128.53327Z"/>
      <path class="cls-7" d="M541.16557,128.53327,391.06017,27.57139c-17.15423-11.53805-44.96611-11.53805-62.12034,0L178.83443,128.53327c-17.15392,11.53784-17.15392,30.2445,0,41.78255L328.93983,271.2777c17.15423,11.53784,44.96611,11.53784,62.12034,0l150.1054-100.96188C558.31949,158.77777,558.31949,140.07111,541.16557,128.53327Z"/>
      <polygon class="cls-8" points="335.922 163.656 317.729 149.424 335.922 135.192 327.865 128.889 301.614 149.424 327.865 169.959 335.922 163.656"/>
      <polygon class="cls-8" points="372.013 113.149 339.191 178.819 347.987 185.7 380.809 120.029 372.013 113.149"/>
      <polygon class="cls-8" points="384.078 135.192 402.271 149.424 384.078 163.656 392.135 169.959 418.386 149.424 392.135 128.889 384.078 135.192"/>
    </g>
  </g>
</svg>