<svg width="46" height="36" viewBox="0 0 46 36" fill="none" xmlns="http://www.w3.org/2000/svg">
<path fill-rule="evenodd" clip-rule="evenodd" d="M4.37672 14.7712C4.70036 15.3026 4.53196 15.9957 4.00059 16.3193C3.50108 16.6236 3.103 17.0691 2.85669 17.5995C2.61039 18.13 2.52692 18.7216 2.61684 19.2995C2.70676 19.8775 2.96603 20.4157 3.36187 20.8463C3.7577 21.2768 4.27233 21.5804 4.84066 21.7184C5.44524 21.8653 5.81627 22.4745 5.66938 23.0791C5.52249 23.6837 4.91331 24.0547 4.30873 23.9078C3.30738 23.6645 2.40066 23.1298 1.70323 22.3712C1.00581 21.6125 0.548993 20.6642 0.390562 19.6459C0.232132 18.6277 0.3792 17.5854 0.813168 16.6507C1.24714 15.7161 1.94851 14.9311 2.82861 14.3951C3.35997 14.0714 4.05309 14.2398 4.37672 14.7712Z" fill="url(#paint0_linear_168_3190)"/>
<path fill-rule="evenodd" clip-rule="evenodd" d="M10.3583 6.04124C10.1579 6.01649 9.95456 6.03511 9.76204 6.09584C9.56951 6.15657 9.39229 6.25798 9.2424 6.39321C9.0925 6.52843 8.97344 6.69431 8.89327 6.87958C8.8131 7.06486 8.77371 7.26521 8.77776 7.46704C8.79025 8.08908 8.2961 8.60347 7.67406 8.61596C7.05202 8.62844 6.53764 8.1343 6.52515 7.51226C6.51462 6.98749 6.61704 6.46658 6.82548 5.98487C7.03391 5.50315 7.34349 5.07188 7.73322 4.72029C8.12294 4.36871 8.58371 4.10503 9.08428 3.94714C9.58484 3.78925 10.1135 3.74083 10.6344 3.80517C11.2519 3.88143 11.6906 4.44382 11.6144 5.06129C11.5381 5.67877 10.9757 6.1175 10.3583 6.04124Z" fill="url(#paint1_linear_168_3190)"/>
<path fill-rule="evenodd" clip-rule="evenodd" d="M7.51649 9.63585C7.04693 9.44109 6.53509 9.37067 6.03038 9.43138C5.52567 9.49209 5.04513 9.68189 4.63515 9.98245C4.22517 10.283 3.89959 10.6842 3.68985 11.1472C3.4801 11.6103 3.39327 12.1196 3.43774 12.626C3.4822 13.1324 3.65646 13.6188 3.9437 14.0382C4.23093 14.4577 4.62144 14.796 5.07752 15.0205C5.53361 15.245 6.03987 15.3481 6.54744 15.32C7.16865 15.2855 7.70019 15.7611 7.73467 16.3823C7.76915 17.0035 7.29351 17.5351 6.67231 17.5696C5.77802 17.6192 4.88603 17.4375 4.08245 17.0419C3.27888 16.6463 2.59084 16.0503 2.08476 15.3113C1.57869 14.5723 1.27166 13.7153 1.19331 12.8231C1.11497 11.9309 1.26795 11.0335 1.6375 10.2176C2.00706 9.40176 2.58069 8.69493 3.30303 8.16537C4.02538 7.63581 4.87204 7.30141 5.7613 7.19444C6.65055 7.08747 7.55237 7.21155 8.37969 7.5547C9.20701 7.89785 9.9319 8.44848 10.4844 9.15344C10.8682 9.64313 10.7823 10.3512 10.2926 10.735C9.80293 11.1188 9.09484 11.0329 8.71106 10.5432C8.39748 10.1431 7.98605 9.83061 7.51649 9.63585Z" fill="url(#paint2_linear_168_3190)"/>
<path fill-rule="evenodd" clip-rule="evenodd" d="M10.7637 11.3912C10.4803 11.3562 10.1935 11.4179 9.94959 11.5663C9.7057 11.7146 9.51905 11.941 9.41988 12.2087C9.32071 12.4764 9.31482 12.7698 9.40318 13.0412C9.49153 13.3127 9.66895 13.5464 9.90669 13.7044C10.4248 14.0488 10.5656 14.7481 10.2212 15.2662C9.87676 15.7843 9.17752 15.9251 8.65939 15.5807C7.999 15.1417 7.50617 14.4926 7.26074 13.7385C7.01531 12.9845 7.03166 12.1696 7.30714 11.426C7.58262 10.6824 8.10109 10.0536 8.77856 9.64144C9.45603 9.22928 10.2528 9.05792 11.0398 9.15512C11.6573 9.23139 12.096 9.79378 12.0198 10.4112C11.9435 11.0287 11.3811 11.4675 10.7637 11.3912Z" fill="url(#paint3_linear_168_3190)"/>
<path fill-rule="evenodd" clip-rule="evenodd" d="M15.4392 14.1463C15.7628 14.6777 15.5944 15.3708 15.063 15.6944C14.742 15.8899 14.4684 16.1544 14.2622 16.4687C14.056 16.783 13.9223 17.1392 13.8708 17.5116C13.8192 17.8839 13.8511 18.2631 13.9642 18.6216C14.0773 18.9801 14.2686 19.3089 14.5245 19.5843C14.7803 19.8597 15.0942 20.0748 15.4434 20.2139C15.7926 20.353 16.1684 20.4127 16.5436 20.3887C16.9187 20.3647 17.2838 20.2575 17.6124 20.075C17.941 19.8924 18.2249 19.6391 18.4435 19.3333C18.8053 18.8271 19.5089 18.7101 20.0151 19.072C20.5212 19.4338 20.6382 20.1374 20.2764 20.6436C19.8634 21.2212 19.3272 21.6997 18.7065 22.0445C18.0858 22.3893 17.3962 22.5918 16.6876 22.6372C15.979 22.6825 15.2692 22.5698 14.6096 22.307C13.95 22.0442 13.3571 21.638 12.8738 21.1178C12.3905 20.5976 12.029 19.9764 11.8155 19.2993C11.6019 18.6221 11.5416 17.9059 11.639 17.2026C11.7364 16.4993 11.9889 15.8264 12.3784 15.2328C12.768 14.6391 13.2846 14.1395 13.891 13.7702C14.4224 13.4465 15.1155 13.6149 15.4392 14.1463Z" fill="#12A47F"/>
<path fill-rule="evenodd" clip-rule="evenodd" d="M19.7613 4.82843C20.3835 4.82843 20.8878 5.33279 20.8878 5.95496L20.8878 30.1102C20.8878 30.7324 20.3835 31.2367 19.7613 31.2367C19.1391 31.2367 18.6348 30.7324 18.6348 30.1102L18.6348 5.95496C18.6348 5.3328 19.1391 4.82843 19.7613 4.82843Z" fill="url(#paint4_linear_168_3190)"/>
<path fill-rule="evenodd" clip-rule="evenodd" d="M16.0525 2.66077C15.5426 2.61825 15.0308 2.71542 14.5721 2.94182C14.1133 3.16823 13.7248 3.51532 13.4485 3.94584C13.1721 4.37635 13.0182 4.87402 13.0033 5.38541C12.9884 5.89679 13.1131 6.40257 13.364 6.84843C13.6148 7.2943 13.9824 7.6634 14.4273 7.91611L14.4366 7.92147L23.5658 13.2238C24.1038 13.5363 24.2867 14.2258 23.9742 14.7638C23.6617 15.3018 22.9723 15.4846 22.4343 15.1721L13.3094 9.87228C12.5109 9.41748 11.8511 8.75418 11.4004 7.9533C10.9488 7.15075 10.7244 6.24034 10.7512 5.31985C10.778 4.39936 11.055 3.50355 11.5525 2.72863C12.05 1.9537 12.7492 1.32893 13.575 0.921396C14.4008 0.513866 15.322 0.338974 16.2397 0.415501C17.1574 0.492028 18.0369 0.817084 18.7838 1.35576C19.5307 1.89444 20.1167 2.62639 20.479 3.47301C20.8593 4.36158 20.8878 5.31905 20.8878 6.03062C20.8878 6.65278 20.3834 7.15715 19.7613 7.15715C19.1391 7.15715 18.6347 6.65278 18.6347 6.03062C18.6347 5.33402 18.591 4.7878 18.4076 4.35939C18.2064 3.88904 17.8808 3.4824 17.4658 3.18314C17.0509 2.88387 16.5623 2.70328 16.0525 2.66077Z" fill="url(#paint5_linear_168_3190)"/>
<path fill-rule="evenodd" clip-rule="evenodd" d="M7.07974 20.8205C7.36861 21.3715 7.15609 22.0524 6.60505 22.3413C6.21932 22.5435 5.90046 22.8531 5.68707 23.2328C5.47368 23.6125 5.37489 24.0458 5.40267 24.4805C5.43045 24.9151 5.5836 25.3323 5.84359 25.6817C6.10358 26.0311 6.45927 26.2977 6.8676 26.4492C7.45093 26.6655 7.74842 27.3138 7.53205 27.8972C7.31568 28.4805 6.66739 28.778 6.08406 28.5616C5.2674 28.2587 4.55603 27.7256 4.03604 27.0268C3.51606 26.328 3.20976 25.4934 3.1542 24.6242C3.09864 23.7549 3.29621 22.8882 3.72299 22.1288C4.14978 21.3695 4.78749 20.7502 5.55895 20.3458C6.10999 20.0569 6.79087 20.2694 7.07974 20.8205Z" fill="url(#paint6_linear_168_3190)"/>
<path fill-rule="evenodd" clip-rule="evenodd" d="M9.61511 26.3943C9.93874 26.9256 9.77034 27.6188 9.23898 27.9424C9.06525 28.0482 8.91406 28.1872 8.79405 28.3514C8.67404 28.5157 8.58755 28.7019 8.53953 28.8996C8.4915 29.0973 8.48288 29.3025 8.51415 29.5035C8.54543 29.7045 8.61598 29.8973 8.7218 30.071C8.82761 30.2448 8.9666 30.396 9.13084 30.516C9.29508 30.636 9.48135 30.7225 9.67901 30.7705C9.87668 30.8185 10.0819 30.8271 10.2829 30.7959C10.4839 30.7646 10.6767 30.694 10.8505 30.5882C11.3818 30.2646 12.0749 30.433 12.3986 30.9644C12.7222 31.4957 12.5538 32.1888 12.0224 32.5125C11.596 32.7722 11.1226 32.9454 10.6293 33.0221C10.1359 33.0989 9.63226 33.0777 9.14708 32.9599C8.66191 32.842 8.2047 32.6297 7.80156 32.3351C7.39843 32.0406 7.05726 31.6695 6.79755 31.243C6.53783 30.8166 6.36464 30.3432 6.28788 29.8498C6.21112 29.3565 6.23228 28.8529 6.35016 28.3677C6.46804 27.8825 6.68032 27.4253 6.9749 27.0222C7.26947 26.619 7.64057 26.2779 8.06699 26.0181C8.59836 25.6945 9.29147 25.8629 9.61511 26.3943Z" fill="url(#paint7_linear_168_3190)"/>
<path fill-rule="evenodd" clip-rule="evenodd" d="M16.0525 33.3392C15.5426 33.3818 15.0308 33.2846 14.5721 33.0582C14.1133 32.8318 13.7248 32.4847 13.4485 32.0542C13.1721 31.6237 13.0182 31.126 13.0033 30.6146C12.9884 30.1032 13.1131 29.5974 13.364 29.1516C13.6148 28.7057 13.9824 28.3366 14.4273 28.0839L14.4366 28.0785L23.5658 22.7762C24.1038 22.4637 24.2867 21.7743 23.9742 21.2363C23.6617 20.6983 22.9723 20.5154 22.4343 20.8279L13.3094 26.1277C12.5109 26.5825 11.8511 27.2458 11.4004 28.0467C10.9488 28.8493 10.7244 29.7597 10.7512 30.6802C10.778 31.6007 11.055 32.4965 11.5525 33.2714C12.05 34.0463 12.7492 34.6711 13.575 35.0786C14.4008 35.4861 15.322 35.661 16.2397 35.5845C17.1574 35.508 18.0369 35.1829 18.7838 34.6443C19.5307 34.1056 20.1167 33.3736 20.479 32.527C20.8593 31.6384 20.8878 30.681 20.8878 29.9694C20.8878 29.3472 20.3834 28.8429 19.7613 28.8429C19.1391 28.8429 18.6347 29.3472 18.6347 29.9694C18.6347 30.666 18.591 31.2122 18.4076 31.6406C18.2064 32.111 17.8808 32.5176 17.4658 32.8169C17.0509 33.1161 16.5623 33.2967 16.0525 33.3392Z" fill="url(#paint8_linear_168_3190)"/>
<path fill-rule="evenodd" clip-rule="evenodd" d="M8.90552 18.268C9.22915 18.7994 9.06075 19.4925 8.52939 19.8161C8.32407 19.9412 8.14539 20.1055 8.00356 20.2996C7.86173 20.4937 7.75952 20.7138 7.70276 20.9474C7.646 21.181 7.63582 21.4235 7.67278 21.661C7.70974 21.8986 7.79312 22.1265 7.91817 22.3318C8.04322 22.5372 8.20748 22.7158 8.40159 22.8577C8.59569 22.9995 8.81583 23.1017 9.04943 23.1585C9.28303 23.2152 9.52553 23.2254 9.76307 23.1884C10.0006 23.1515 10.2285 23.0681 10.4339 22.943C10.9652 22.6194 11.6583 22.7878 11.982 23.3192C12.3056 23.8505 12.1372 24.5437 11.6058 24.8673C11.1478 25.1463 10.6394 25.3323 10.1095 25.4147C9.57956 25.4972 9.03861 25.4744 8.5175 25.3478C7.99638 25.2212 7.50531 24.9932 7.07231 24.6768C6.63932 24.3604 6.27288 23.9618 5.99392 23.5038C5.71496 23.0458 5.52895 22.5373 5.4465 22.0074C5.36405 21.4775 5.38678 20.9366 5.51339 20.4155C5.64 19.8944 5.86802 19.4033 6.18441 18.9703C6.50081 18.5373 6.89939 18.1709 7.3574 17.8919C7.88877 17.5683 8.58188 17.7367 8.90552 18.268Z" fill="url(#paint9_linear_168_3190)"/>
<path fill-rule="evenodd" clip-rule="evenodd" d="M41.6233 14.7712C41.2996 15.3026 41.468 15.9957 41.9994 16.3193C42.4989 16.6236 42.897 17.0691 43.1433 17.5995C43.3896 18.13 43.4731 18.7216 43.3832 19.2995C43.2932 19.8775 43.034 20.4157 42.6381 20.8463C42.2423 21.2768 41.7277 21.5804 41.1593 21.7184C40.5548 21.8653 40.1837 22.4745 40.3306 23.0791C40.4775 23.6837 41.0867 24.0547 41.6913 23.9078C42.6926 23.6645 43.5993 23.1298 44.2968 22.3712C44.9942 21.6125 45.451 20.6642 45.6094 19.6459C45.7679 18.6277 45.6208 17.5854 45.1868 16.6507C44.7529 15.7161 44.0515 14.9311 43.1714 14.3951C42.64 14.0714 41.9469 14.2398 41.6233 14.7712Z" fill="url(#paint10_linear_168_3190)"/>
<path fill-rule="evenodd" clip-rule="evenodd" d="M35.6417 6.04124C35.8421 6.01649 36.0454 6.03511 36.238 6.09584C36.4305 6.15657 36.6077 6.25798 36.7576 6.39321C36.9075 6.52843 37.0266 6.69431 37.1067 6.87958C37.1869 7.06486 37.2263 7.26521 37.2222 7.46704C37.2098 8.08908 37.7039 8.60347 38.3259 8.61596C38.948 8.62844 39.4624 8.1343 39.4748 7.51226C39.4854 6.98749 39.383 6.46658 39.1745 5.98487C38.9661 5.50315 38.6565 5.07188 38.2668 4.72029C37.8771 4.36871 37.4163 4.10503 36.9157 3.94714C36.4152 3.78925 35.8865 3.74083 35.3656 3.80517C34.7481 3.88143 34.3094 4.44382 34.3856 5.06129C34.4619 5.67877 35.0243 6.1175 35.6417 6.04124Z" fill="url(#paint11_linear_168_3190)"/>
<path fill-rule="evenodd" clip-rule="evenodd" d="M38.4835 9.63585C38.9531 9.44109 39.4649 9.37067 39.9696 9.43138C40.4743 9.49209 40.9549 9.68189 41.3649 9.98245C41.7748 10.283 42.1004 10.6842 42.3102 11.1472C42.5199 11.6103 42.6067 12.1196 42.5623 12.626C42.5178 13.1324 42.3435 13.6188 42.0563 14.0382C41.7691 14.4577 41.3786 14.796 40.9225 15.0205C40.4664 15.245 39.9601 15.3481 39.4526 15.32C38.8314 15.2855 38.2998 15.7611 38.2653 16.3823C38.2308 17.0035 38.7065 17.5351 39.3277 17.5696C40.222 17.6192 41.114 17.4375 41.9175 17.0419C42.7211 16.6463 43.4092 16.0503 43.9152 15.3113C44.4213 14.5723 44.7283 13.7153 44.8067 12.8231C44.885 11.9309 44.732 11.0335 44.3625 10.2176C43.9929 9.40176 43.4193 8.69493 42.697 8.16537C41.9746 7.63581 41.128 7.30141 40.2387 7.19444C39.3494 7.08747 38.4476 7.21155 37.6203 7.5547C36.793 7.89785 36.0681 8.44848 35.5156 9.15344C35.1318 9.64313 35.2177 10.3512 35.7074 10.735C36.1971 11.1188 36.9052 11.0329 37.2889 10.5432C37.6025 10.1431 38.0139 9.83061 38.4835 9.63585Z" fill="url(#paint12_linear_168_3190)"/>
<path fill-rule="evenodd" clip-rule="evenodd" d="M35.2363 11.3912C35.5197 11.3562 35.8065 11.4179 36.0504 11.5663C36.2943 11.7146 36.4809 11.941 36.5801 12.2087C36.6793 12.4764 36.6852 12.7698 36.5968 13.0412C36.5085 13.3127 36.331 13.5464 36.0933 13.7044C35.5752 14.0488 35.4344 14.7481 35.7788 15.2662C36.1232 15.7843 36.8225 15.9251 37.3406 15.5807C38.001 15.1417 38.4938 14.4926 38.7393 13.7385C38.9847 12.9845 38.9683 12.1696 38.6929 11.426C38.4174 10.6824 37.8989 10.0536 37.2214 9.64144C36.544 9.22928 35.7472 9.05792 34.9602 9.15512C34.3427 9.23139 33.904 9.79378 33.9802 10.4112C34.0565 11.0287 34.6189 11.4675 35.2363 11.3912Z" fill="url(#paint13_linear_168_3190)"/>
<path fill-rule="evenodd" clip-rule="evenodd" d="M30.5608 14.1463C30.2372 14.6777 30.4056 15.3708 30.937 15.6944C31.258 15.8899 31.5316 16.1544 31.7378 16.4687C31.944 16.783 32.0777 17.1392 32.1292 17.5116C32.1808 17.8839 32.1489 18.2631 32.0358 18.6216C31.9227 18.9801 31.7314 19.3089 31.4755 19.5843C31.2197 19.8597 30.9058 20.0748 30.5566 20.2139C30.2074 20.353 29.8316 20.4127 29.4564 20.3887C29.0813 20.3647 28.7162 20.2575 28.3876 20.075C28.059 19.8924 27.7751 19.6391 27.5565 19.3333C27.1947 18.8271 26.4911 18.7101 25.9849 19.072C25.4788 19.4338 25.3618 20.1374 25.7236 20.6436C26.1366 21.2212 26.6728 21.6997 27.2935 22.0445C27.9142 22.3893 28.6038 22.5918 29.3124 22.6372C30.021 22.6825 30.7308 22.5698 31.3904 22.307C32.05 22.0442 32.6429 21.638 33.1262 21.1178C33.6095 20.5976 33.971 19.9764 34.1845 19.2993C34.3981 18.6221 34.4584 17.9059 34.361 17.2026C34.2636 16.4993 34.0111 15.8264 33.6216 15.2328C33.232 14.6391 32.7154 14.1395 32.109 13.7702C31.5776 13.4465 30.8845 13.6149 30.5608 14.1463Z" fill="#12A47F"/>
<path fill-rule="evenodd" clip-rule="evenodd" d="M26.2387 4.82843C25.6165 4.82843 25.1122 5.33279 25.1122 5.95496L25.1122 30.1102C25.1122 30.7324 25.6165 31.2367 26.2387 31.2367C26.8609 31.2367 27.3652 30.7324 27.3652 30.1102L27.3652 5.95496C27.3652 5.3328 26.8609 4.82843 26.2387 4.82843Z" fill="url(#paint14_linear_168_3190)"/>
<path fill-rule="evenodd" clip-rule="evenodd" d="M29.9475 2.66077C30.4574 2.61825 30.9692 2.71542 31.4279 2.94182C31.8867 3.16823 32.2752 3.51532 32.5515 3.94584C32.8279 4.37635 32.9818 4.87402 32.9967 5.38541C33.0116 5.89679 32.8869 6.40257 32.636 6.84843C32.3852 7.2943 32.0176 7.6634 31.5727 7.91611L31.5634 7.92147L22.4342 13.2238C21.8962 13.5363 21.7133 14.2258 22.0258 14.7638C22.3383 15.3018 23.0277 15.4846 23.5657 15.1721L32.6906 9.87228C33.4891 9.41748 34.1489 8.75418 34.5996 7.9533C35.0512 7.15075 35.2756 6.24034 35.2488 5.31985C35.222 4.39936 34.945 3.50355 34.4475 2.72863C33.95 1.9537 33.2508 1.32893 32.425 0.921396C31.5992 0.513866 30.678 0.338974 29.7603 0.415501C28.8426 0.492028 27.9631 0.817084 27.2162 1.35576C26.4693 1.89444 25.8833 2.62639 25.521 3.47301C25.1407 4.36158 25.1122 5.31905 25.1122 6.03062C25.1122 6.65278 25.6166 7.15715 26.2387 7.15715C26.8609 7.15715 27.3653 6.65278 27.3653 6.03062C27.3653 5.33402 27.409 4.7878 27.5924 4.35939C27.7936 3.88904 28.1192 3.4824 28.5342 3.18314C28.9491 2.88387 29.4377 2.70328 29.9475 2.66077Z" fill="url(#paint15_linear_168_3190)"/>
<path fill-rule="evenodd" clip-rule="evenodd" d="M38.9203 20.8205C38.6314 21.3715 38.8439 22.0524 39.395 22.3413C39.7807 22.5435 40.0995 22.8531 40.3129 23.2328C40.5263 23.6125 40.6251 24.0458 40.5973 24.4805C40.5696 24.9151 40.4164 25.3323 40.1564 25.6817C39.8964 26.0311 39.5407 26.2977 39.1324 26.4492C38.5491 26.6655 38.2516 27.3138 38.468 27.8972C38.6843 28.4805 39.3326 28.778 39.9159 28.5616C40.7326 28.2587 41.444 27.7256 41.964 27.0268C42.4839 26.328 42.7902 25.4934 42.8458 24.6242C42.9014 23.7549 42.7038 22.8882 42.277 22.1288C41.8502 21.3695 41.2125 20.7502 40.441 20.3458C39.89 20.0569 39.2091 20.2694 38.9203 20.8205Z" fill="url(#paint16_linear_168_3190)"/>
<path fill-rule="evenodd" clip-rule="evenodd" d="M36.3849 26.3943C36.0613 26.9256 36.2297 27.6188 36.761 27.9424C36.9348 28.0482 37.0859 28.1872 37.2059 28.3514C37.326 28.5157 37.4124 28.7019 37.4605 28.8996C37.5085 29.0973 37.5171 29.3025 37.4858 29.5035C37.4546 29.7045 37.384 29.8973 37.2782 30.071C37.1724 30.2448 37.0334 30.396 36.8692 30.516C36.7049 30.636 36.5187 30.7225 36.321 30.7705C36.1233 30.8185 35.9181 30.8271 35.7171 30.7959C35.5161 30.7646 35.3233 30.694 35.1495 30.5882C34.6182 30.2646 33.9251 30.433 33.6014 30.9644C33.2778 31.4957 33.4462 32.1888 33.9776 32.5125C34.404 32.7722 34.8774 32.9454 35.3707 33.0221C35.8641 33.0989 36.3677 33.0777 36.8529 32.9599C37.3381 32.842 37.7953 32.6297 38.1984 32.3351C38.6016 32.0406 38.9427 31.6695 39.2025 31.243C39.4622 30.8166 39.6354 30.3432 39.7121 29.8498C39.7889 29.3565 39.7677 28.8529 39.6498 28.3677C39.532 27.8825 39.3197 27.4253 39.0251 27.0222C38.7305 26.619 38.3594 26.2779 37.933 26.0181C37.4016 25.6945 36.7085 25.8629 36.3849 26.3943Z" fill="url(#paint17_linear_168_3190)"/>
<path fill-rule="evenodd" clip-rule="evenodd" d="M29.9475 33.3392C30.4574 33.3818 30.9692 33.2846 31.4279 33.0582C31.8867 32.8318 32.2752 32.4847 32.5515 32.0542C32.8279 31.6237 32.9818 31.126 32.9967 30.6146C33.0116 30.1032 32.8869 29.5974 32.636 29.1516C32.3852 28.7057 32.0176 28.3366 31.5727 28.0839L31.5634 28.0785L22.4342 22.7762C21.8962 22.4637 21.7133 21.7743 22.0258 21.2363C22.3383 20.6983 23.0277 20.5154 23.5657 20.8279L32.6906 26.1277C33.4891 26.5825 34.1489 27.2458 34.5996 28.0467C35.0512 28.8493 35.2756 29.7597 35.2488 30.6802C35.222 31.6007 34.945 32.4965 34.4475 33.2714C33.95 34.0463 33.2508 34.6711 32.425 35.0786C31.5992 35.4861 30.678 35.661 29.7603 35.5845C28.8426 35.508 27.9631 35.1829 27.2162 34.6443C26.4693 34.1056 25.8833 33.3736 25.521 32.527C25.1407 31.6384 25.1122 30.681 25.1122 29.9694C25.1122 29.3472 25.6166 28.8429 26.2387 28.8429C26.8609 28.8429 27.3653 29.3472 27.3653 29.9694C27.3653 30.666 27.409 31.2122 27.5924 31.6406C27.7936 32.111 28.1192 32.5176 28.5342 32.8169C28.9491 33.1161 29.4377 33.2967 29.9475 33.3392Z" fill="url(#paint18_linear_168_3190)"/>
<path fill-rule="evenodd" clip-rule="evenodd" d="M37.0945 18.268C36.7708 18.7994 36.9392 19.4925 37.4706 19.8161C37.6759 19.9412 37.8546 20.1055 37.9964 20.2996C38.1383 20.4937 38.2405 20.7138 38.2972 20.9474C38.354 21.181 38.3642 21.4235 38.3272 21.661C38.2903 21.8986 38.2069 22.1265 38.0818 22.3318C37.9568 22.5372 37.7925 22.7158 37.5984 22.8577C37.4043 22.9995 37.1842 23.1017 36.9506 23.1585C36.717 23.2152 36.4745 23.2254 36.2369 23.1884C35.9994 23.1515 35.7715 23.0681 35.5661 22.943C35.0348 22.6194 34.3417 22.7878 34.018 23.3192C33.6944 23.8505 33.8628 24.5437 34.3942 24.8673C34.8522 25.1463 35.3606 25.3323 35.8905 25.4147C36.4204 25.4972 36.9614 25.4744 37.4825 25.3478C38.0036 25.2212 38.4947 24.9932 38.9277 24.6768C39.3607 24.3604 39.7271 23.9618 40.0061 23.5038C40.285 23.0458 40.471 22.5373 40.5535 22.0074C40.6359 21.4775 40.6132 20.9366 40.4866 20.4155C40.36 19.8944 40.132 19.4033 39.8156 18.9703C39.4992 18.5373 39.1006 18.1709 38.6426 17.8919C38.1112 17.5683 37.4181 17.7367 37.0945 18.268Z" fill="url(#paint19_linear_168_3190)"/>
<defs>
<linearGradient id="paint0_linear_168_3190" x1="4.03002" y1="23.5447" x2="1.4393" y2="14.5582" gradientUnits="userSpaceOnUse">
<stop stop-color="#00CED1"/>
<stop offset="0.83973" stop-color="#12A47F"/>
</linearGradient>
<linearGradient id="paint1_linear_168_3190" x1="11.6769" y1="4.85009" x2="7.25418" y2="7.43878" gradientUnits="userSpaceOnUse">
<stop stop-color="#12A47F"/>
<stop offset="1" stop-color="#00CED1"/>
</linearGradient>
<linearGradient id="paint2_linear_168_3190" x1="8.50574" y1="8.68345" x2="2.21185" y2="12.3674" gradientUnits="userSpaceOnUse">
<stop stop-color="#12A47F"/>
<stop offset="1" stop-color="#00CED1"/>
</linearGradient>
<linearGradient id="paint3_linear_168_3190" x1="9.85898" y1="15.6707" x2="11.4656" y2="9.74694" gradientUnits="userSpaceOnUse">
<stop stop-color="#12A47F"/>
<stop offset="1" stop-color="#00CED1"/>
</linearGradient>
<linearGradient id="paint4_linear_168_3190" x1="19.7613" y1="5.95496" x2="19.9021" y2="30.1102" gradientUnits="userSpaceOnUse">
<stop offset="0.0678706" stop-color="#00CED1"/>
<stop offset="0.198838" stop-color="#12A47F"/>
<stop offset="0.614894" stop-color="#12A47F"/>
<stop offset="0.812388" stop-color="#12A47F"/>
<stop offset="0.941499" stop-color="#00CED1"/>
</linearGradient>
<linearGradient id="paint5_linear_168_3190" x1="19.8591" y1="6.78981" x2="21.2916" y2="12.9169" gradientUnits="userSpaceOnUse">
<stop stop-color="#00CED1"/>
<stop offset="1" stop-color="#12A47F"/>
</linearGradient>
<linearGradient id="paint6_linear_168_3190" x1="6.69201" y1="28.2045" x2="8.74854" y2="20.6221" gradientUnits="userSpaceOnUse">
<stop stop-color="#12A47F"/>
<stop offset="1" stop-color="#00CED1"/>
</linearGradient>
<linearGradient id="paint7_linear_168_3190" x1="11.61" y1="31.8536" x2="6.4442" y2="28.0611" gradientUnits="userSpaceOnUse">
<stop stop-color="#12A47F"/>
<stop offset="1" stop-color="#00CED1"/>
</linearGradient>
<linearGradient id="paint8_linear_168_3190" x1="19.8842" y1="29.5343" x2="21.2916" y2="23.0831" gradientUnits="userSpaceOnUse">
<stop stop-color="#00CED1"/>
<stop offset="1" stop-color="#12A47F"/>
</linearGradient>
<linearGradient id="paint9_linear_168_3190" x1="8.61241" y1="24.8847" x2="10.4761" y2="18.0132" gradientUnits="userSpaceOnUse">
<stop stop-color="#12A47F"/>
<stop offset="1" stop-color="#00CED1"/>
</linearGradient>
<linearGradient id="paint10_linear_168_3190" x1="41.97" y1="23.5447" x2="44.5607" y2="14.5582" gradientUnits="userSpaceOnUse">
<stop stop-color="#00CED1"/>
<stop offset="0.83973" stop-color="#12A47F"/>
</linearGradient>
<linearGradient id="paint11_linear_168_3190" x1="34.3231" y1="4.85009" x2="38.7458" y2="7.43878" gradientUnits="userSpaceOnUse">
<stop stop-color="#12A47F"/>
<stop offset="1" stop-color="#00CED1"/>
</linearGradient>
<linearGradient id="paint12_linear_168_3190" x1="37.4943" y1="8.68345" x2="43.7882" y2="12.3674" gradientUnits="userSpaceOnUse">
<stop stop-color="#12A47F"/>
<stop offset="1" stop-color="#00CED1"/>
</linearGradient>
<linearGradient id="paint13_linear_168_3190" x1="36.141" y1="15.6707" x2="34.5344" y2="9.74694" gradientUnits="userSpaceOnUse">
<stop stop-color="#12A47F"/>
<stop offset="1" stop-color="#00CED1"/>
</linearGradient>
<linearGradient id="paint14_linear_168_3190" x1="26.2387" y1="5.95496" x2="26.0979" y2="30.1102" gradientUnits="userSpaceOnUse">
<stop offset="0.0678706" stop-color="#00CED1"/>
<stop offset="0.198838" stop-color="#12A47F"/>
<stop offset="0.614894" stop-color="#12A47F"/>
<stop offset="0.812388" stop-color="#12A47F"/>
<stop offset="0.941499" stop-color="#00CED1"/>
</linearGradient>
<linearGradient id="paint15_linear_168_3190" x1="26.1409" y1="6.78981" x2="24.7084" y2="12.9169" gradientUnits="userSpaceOnUse">
<stop stop-color="#00CED1"/>
<stop offset="1" stop-color="#12A47F"/>
</linearGradient>
<linearGradient id="paint16_linear_168_3190" x1="39.308" y1="28.2045" x2="37.2515" y2="20.6221" gradientUnits="userSpaceOnUse">
<stop stop-color="#12A47F"/>
<stop offset="1" stop-color="#00CED1"/>
</linearGradient>
<linearGradient id="paint17_linear_168_3190" x1="34.39" y1="31.8536" x2="39.5558" y2="28.0611" gradientUnits="userSpaceOnUse">
<stop stop-color="#12A47F"/>
<stop offset="1" stop-color="#00CED1"/>
</linearGradient>
<linearGradient id="paint18_linear_168_3190" x1="26.1409" y1="29.2102" x2="24.7084" y2="23.0831" gradientUnits="userSpaceOnUse">
<stop stop-color="#00CED1"/>
<stop offset="1" stop-color="#12A47F"/>
</linearGradient>
<linearGradient id="paint19_linear_168_3190" x1="37.3876" y1="24.8847" x2="35.5239" y2="18.0132" gradientUnits="userSpaceOnUse">
<stop stop-color="#12A47F"/>
<stop offset="1" stop-color="#00CED1"/>
</linearGradient>
</defs>
</svg>
