<svg width="40" height="40" viewBox="0 0 40 40" fill="none" xmlns="http://www.w3.org/2000/svg">
<path fill-rule="evenodd" clip-rule="evenodd" d="M20 0C8.954 0 0 8.968 0 20.034C0 28.884 5.73 36.394 13.678 39.042C14.678 39.226 15.042 38.608 15.042 38.076C15.042 37.602 15.026 36.34 15.016 34.67C9.452 35.88 8.278 31.984 8.278 31.984C7.37 29.668 6.058 29.052 6.058 29.052C4.242 27.812 6.196 27.836 6.196 27.836C8.202 27.976 9.258 29.9 9.258 29.9C11.042 32.96 13.94 32.076 15.078 31.564C15.262 30.27 15.778 29.388 16.35 28.888C11.91 28.382 7.24 26.662 7.24 18.986C7.24 16.8 8.02 15.01 9.298 13.61C9.092 13.104 8.406 11.066 9.494 8.31C9.494 8.31 11.174 7.77 14.994 10.362C16.6255 9.91703 18.3089 9.69038 20 9.688C21.7 9.696 23.41 9.918 25.008 10.362C28.826 7.77 30.502 8.308 30.502 8.308C31.594 11.066 30.906 13.104 30.702 13.61C31.982 15.01 32.758 16.8 32.758 18.986C32.758 26.682 28.08 28.376 23.626 28.872C24.344 29.49 24.982 30.712 24.982 32.582C24.982 35.258 24.958 37.42 24.958 38.076C24.958 38.612 25.318 39.236 26.334 39.04C30.3166 37.7042 33.7787 35.1506 36.231 31.7401C38.6832 28.3296 40.0017 24.2346 40 20.034C40 8.968 31.044 0 20 0Z" fill="white"/>
</svg>
