<svg width="34" height="34" viewBox="0 0 34 34" fill="none" xmlns="http://www.w3.org/2000/svg">
<path d="M23.6654 0.666626C24.5854 0.666626 25.332 1.41329 25.332 2.33329V7.33329H31.9987C32.9187 7.33329 33.6654 8.07996 33.6654 8.99996V32.3333C33.6654 33.2533 32.9187 34 31.9987 34H1.9987C1.0787 34 0.332031 33.2533 0.332031 32.3333V8.99996C0.332031 8.07996 1.0787 7.33329 1.9987 7.33329H8.66536V2.33329C8.66536 1.41329 9.41203 0.666626 10.332 0.666626H23.6654ZM18.6654 14H15.332V19H10.332V22.3333H15.3304L15.332 27.3333H18.6654L18.6637 22.3333H23.6654V19H18.6654V14ZM21.9987 3.99996H11.9987V7.33329H21.9987V3.99996Z" fill="url(#paint0_linear_623_475)"/>
<defs>
<linearGradient id="paint0_linear_623_475" x1="16.9987" y1="0.666626" x2="16.9987" y2="34" gradientUnits="userSpaceOnUse">
<stop stop-color="white"/>
<stop offset="1" stop-color="white" stop-opacity="0.7"/>
</linearGradient>
</defs>
</svg>
