<svg width="36" height="33" viewBox="0 0 36 33" fill="none" xmlns="http://www.w3.org/2000/svg">
<path d="M21.5387 13.4667C21.2261 13.1542 20.8023 12.9787 20.3603 12.9787C19.9184 12.9787 19.4946 13.1542 19.182 13.4667L18.0037 14.6434C17.6962 14.9617 17.3284 15.2157 16.9217 15.3904C16.515 15.5651 16.0776 15.657 15.635 15.6609C15.1924 15.6647 14.7535 15.5804 14.3438 15.4128C13.9342 15.2452 13.562 14.9976 13.249 14.6847C12.9361 14.3717 12.6885 13.9995 12.5209 13.5899C12.3533 13.1802 12.269 12.7413 12.2728 12.2987C12.2767 11.8561 12.3686 11.4187 12.5433 11.012C12.718 10.6053 12.972 10.2375 13.2903 9.93002L22.6737 0.543355C24.8952 0.0380656 27.2195 0.246019 29.3161 1.13765C31.4126 2.02927 33.1747 3.55918 34.3518 5.50984C35.5289 7.4605 36.061 9.7326 35.8726 12.0031C35.6841 14.2735 34.7846 16.4268 33.302 18.1567L29.7887 21.715L21.5387 13.465V13.4667ZM3.27201 3.44669C4.99661 1.72232 7.25238 0.629987 9.67461 0.346299C12.0968 0.0626107 14.544 0.604147 16.6203 1.88335L10.932 7.57335C9.70001 8.8029 8.99773 10.4655 8.97524 12.206C8.95275 13.9464 9.61183 15.6266 10.8116 16.8876C12.0115 18.1485 13.6569 18.8903 15.3963 18.9543C17.1357 19.0182 18.8311 18.3994 20.1203 17.23L20.3603 17.0017L27.432 24.0717L20.3603 31.1434C19.7353 31.7683 18.8876 32.1193 18.0037 32.1193C17.1198 32.1193 16.2721 31.7683 15.647 31.1434L3.27034 18.7667C1.2389 16.7351 0.0976562 13.9797 0.0976562 11.1067C0.0976562 8.23367 1.2389 5.47831 3.27034 3.44669H3.27201Z" fill="url(#paint0_linear_623_467)"/>
<defs>
<linearGradient id="paint0_linear_623_467" x1="18.0037" y1="0.272705" x2="18.0037" y2="32.1193" gradientUnits="userSpaceOnUse">
<stop stop-color="white"/>
<stop offset="1" stop-color="white" stop-opacity="0.7"/>
</linearGradient>
</defs>
</svg>
