<svg width="54" height="54" viewBox="0 0 54 54" fill="none" xmlns="http://www.w3.org/2000/svg">
<path d="M24.8038 40.437H17.9771C17.3143 37.5961 14.3239 35.2729 13.0965 33.742C10.9946 31.116 9.67741 27.9496 9.2965 24.6077C8.91559 21.2657 9.4865 17.8842 10.9435 14.8525C12.4004 11.8209 14.6842 9.26244 17.5316 7.47199C20.379 5.68154 23.6744 4.73188 27.0379 4.73242C30.4015 4.73296 33.6965 5.68367 36.5434 7.47503C39.3903 9.2664 41.6732 11.8255 43.1292 14.8577C44.5852 17.8898 45.155 21.2715 44.773 24.6134C44.391 27.9552 43.0728 31.1211 40.9701 33.7465C39.7427 35.2752 36.7567 37.5983 36.0939 40.437H29.2672V29.2786H24.8038V40.437ZM35.9622 44.9004V47.1321C35.9622 48.3158 35.492 49.4511 34.6549 50.2881C33.8179 51.1252 32.6826 51.5954 31.4989 51.5954H22.5722C21.3884 51.5954 20.2531 51.1252 19.4161 50.2881C18.5791 49.4511 18.1088 48.3158 18.1088 47.1321V44.9004H35.9622Z" fill="#EE6E24"/>
</svg>
