<svg width="38" height="25" viewBox="0 0 38 25" fill="none" xmlns="http://www.w3.org/2000/svg">
<path d="M5.28605 4.51838C5.41729 4.515 5.54781 4.5389 5.66934 4.58857C5.79087 4.63824 5.90077 4.7126 5.99208 4.80694C6.08237 4.89998 6.15329 5.01004 6.20072 5.13071C6.24814 5.25138 6.27113 5.38027 6.26835 5.5099C6.27354 5.64029 6.25168 5.77033 6.20415 5.89186C6.15662 6.01339 6.08445 6.12376 5.99218 6.21603C5.89991 6.3083 5.78953 6.38048 5.66801 6.42801C5.54648 6.47554 5.41643 6.49739 5.28605 6.4922C4.50634 6.4922 4.11648 6.88308 4.11648 7.66484V12.1773C4.15922 12.9422 3.94294 13.6992 3.50254 14.3261C3.9436 14.9527 4.15995 15.7099 4.11648 16.4749V20.9935C4.11648 21.7732 4.50634 22.1631 5.28605 22.1631C5.4162 22.1588 5.54584 22.1813 5.66695 22.2292C5.78806 22.277 5.89806 22.3492 5.99014 22.4413C6.08222 22.5334 6.15443 22.6434 6.20228 22.7645C6.25014 22.8856 6.27262 23.0153 6.26835 23.1454C6.27196 23.2761 6.24937 23.4061 6.20192 23.5279C6.15447 23.6497 6.08312 23.7607 5.99208 23.8545C5.90002 23.9474 5.78985 24.0205 5.66839 24.069C5.54694 24.1176 5.4168 24.1407 5.28605 24.1369C3.18841 24.1369 2.14061 23.0891 2.14266 20.9935V16.4841C2.14266 15.7044 1.75587 15.3146 0.982307 15.3146C0.721783 15.3146 0.471929 15.2111 0.287711 15.0269C0.103492 14.8426 0 14.5928 0 14.3322C0 14.0717 0.103492 13.8219 0.287711 13.6377C0.471929 13.4534 0.721783 13.3499 0.982307 13.3499C1.75587 13.3499 2.14266 12.9591 2.14266 12.1773V7.66484C2.14266 5.5672 3.19046 4.51838 5.28605 4.51838Z" fill="white"/>
<path d="M35.8574 7.6649V12.1774C35.8574 12.9591 36.2442 13.35 37.0177 13.35C37.2782 13.35 37.5281 13.4535 37.7123 13.6377C37.8965 13.8219 38 14.0718 38 14.3323C38 14.5928 37.8965 14.8427 37.7123 15.0269C37.5281 15.2111 37.2782 15.3146 37.0177 15.3146C36.2442 15.3146 35.8574 15.7045 35.8574 16.4842V20.9936C35.8574 23.0912 34.8085 24.139 32.7109 24.137C32.5806 24.1407 32.451 24.1176 32.33 24.069C32.2091 24.0204 32.0994 23.9474 32.0079 23.8546C31.9165 23.7609 31.8447 23.65 31.7967 23.5282C31.7487 23.4064 31.7256 23.2763 31.7286 23.1455C31.725 23.0155 31.7479 22.8861 31.7959 22.7652C31.844 22.6444 31.9161 22.5346 32.0079 22.4425C32.0996 22.3501 32.2093 22.2775 32.3303 22.2295C32.4512 22.1814 32.5808 22.1588 32.7109 22.1631C33.4927 22.1631 33.8835 21.7733 33.8835 20.9936V16.4842C33.8384 15.719 34.0549 14.9612 34.4975 14.3354C34.0549 13.7096 33.8384 12.9518 33.8835 12.1866V7.6741C33.8835 6.89031 33.4927 6.49943 32.7109 6.50147C32.5808 6.50574 32.4511 6.48326 32.33 6.4354C32.2089 6.38755 32.0989 6.31535 32.0068 6.22327C31.9147 6.13118 31.8425 6.02118 31.7947 5.90007C31.7468 5.77896 31.7243 5.64932 31.7286 5.51917C31.7264 5.38935 31.7499 5.26038 31.7979 5.13972C31.8458 5.01906 31.9172 4.9091 32.0079 4.8162C32.0987 4.72195 32.208 4.64761 32.3291 4.59793C32.4501 4.54825 32.5801 4.52432 32.7109 4.52765C34.8085 4.52151 35.8574 5.56726 35.8574 7.6649Z" fill="white"/>
<path d="M18.8481 5.3014C18.8498 5.45993 18.8174 5.61697 18.753 5.76185C18.6935 5.89983 18.6092 6.02573 18.5043 6.13329C18.3976 6.24146 18.2703 6.32706 18.1298 6.385C17.9866 6.44364 17.8333 6.47387 17.6786 6.47402C17.5399 6.47595 17.4024 6.44974 17.2742 6.39698C17.1459 6.34421 17.0298 6.266 16.9326 6.16705C16.7168 5.95484 16.5429 5.70386 16.42 5.42725C16.288 5.13295 16.1921 4.82372 16.1345 4.50634C16.0757 4.21836 16.0449 3.92538 16.0424 3.63147C16.0424 2.51819 16.5182 1.39263 17.4698 0.254787C17.5432 0.174754 17.6324 0.110791 17.7317 0.0669392C17.831 0.0230871 17.9384 0.000296486 18.0469 0C18.2589 0.00160608 18.4618 0.086533 18.6117 0.236439C18.7616 0.386346 18.8465 0.589202 18.8481 0.801195C18.8473 0.914734 18.8254 1.02713 18.7837 1.13272C18.5131 1.75624 18.3681 2.42696 18.357 3.10655C18.3576 3.70106 18.4897 4.28808 18.7438 4.82559C18.8133 4.97452 18.849 5.13703 18.8481 5.3014ZM21.9547 5.3014C21.9564 5.45993 21.9239 5.61697 21.8595 5.76185C21.8001 5.89983 21.7158 6.02573 21.6109 6.13329C21.5047 6.24212 21.3772 6.32783 21.2364 6.385C21.0931 6.44364 20.9399 6.47387 20.7851 6.47402C20.6465 6.47595 20.5089 6.44974 20.3807 6.39698C20.2525 6.34421 20.1363 6.266 20.0392 6.16705C19.8215 5.95694 19.6464 5.70679 19.5235 5.43032C19.3904 5.13616 19.2935 4.82692 19.2349 4.50941C19.177 4.22135 19.1472 3.92835 19.1459 3.63454C19.1459 2.52126 19.6207 1.3957 20.5702 0.257855C20.6436 0.177822 20.7328 0.113864 20.8321 0.0700119C20.9314 0.0261598 21.0388 0.00336451 21.1473 0.00306803C21.3593 0.00467411 21.5622 0.089601 21.7121 0.239508C21.862 0.389414 21.9469 0.59227 21.9485 0.804263C21.9477 0.917802 21.9258 1.0302 21.8841 1.13579C21.6136 1.75931 21.4686 2.43004 21.4574 3.10962C21.4581 3.70414 21.5901 4.29115 21.8442 4.82866C21.9154 4.97616 21.9531 5.1376 21.9547 5.3014Z" fill="white"/>
<path d="M24.7941 9.06818C25.9143 9.04722 27.0243 9.28351 28.0388 9.75886C28.9448 10.1842 29.7167 10.8499 30.2705 11.6836C30.82 12.5407 31.102 13.542 31.0809 14.5599C31.1097 15.5479 30.8528 16.5233 30.341 17.3689C29.8291 18.2146 29.0841 18.8945 28.1954 19.3272C27.2297 19.8016 26.1646 20.0384 25.0888 20.0178C24.0247 20.0446 22.9742 19.7735 22.056 19.2351C21.198 18.7057 20.5107 17.9406 20.076 17.031C19.5874 15.9879 19.3468 14.8458 19.373 13.6942H29.1961V15.5207H20.5702L21.7674 14.8362C21.7849 15.4573 21.9523 16.065 22.2555 16.6074C22.5313 17.0852 22.9339 17.4772 23.4189 17.7401C23.9504 18.0152 24.5428 18.1514 25.141 18.1361C25.7808 18.152 26.4143 18.0063 26.9829 17.7125C27.4963 17.4407 27.9221 17.0287 28.2107 16.5245C28.5171 15.9689 28.6697 15.3415 28.6528 14.7072C28.667 14.0031 28.4818 13.3093 28.1186 12.7058C27.7614 12.1336 27.2421 11.6805 26.6268 11.4042C25.9035 11.0879 25.1198 10.9338 24.3306 10.953C23.498 10.9578 22.6705 11.085 21.8748 11.3306C21.0846 11.5602 20.3377 11.9191 19.6647 12.3927V10.6583C20.3658 10.1356 21.1549 9.74258 21.9946 9.49794C22.9008 9.21474 23.8447 9.06986 24.7941 9.06818Z" fill="#EE6E24"/>
<path d="M16.4721 9.49165C17.3118 9.73629 18.1009 10.1293 18.802 10.652V12.3987C18.129 11.9251 17.3821 11.5662 16.5918 11.3365C15.7962 11.091 14.9687 10.9638 14.1361 10.959C13.3469 10.9395 12.5631 11.0936 11.8399 11.4102C11.2246 11.6865 10.7053 12.1396 10.348 12.7118C9.987 13.318 9.805 14.014 9.82312 14.7194C9.80621 15.3537 9.95881 15.981 10.2652 16.5366C10.5538 17.0409 10.9796 17.4528 11.493 17.7246C12.0615 18.0188 12.695 18.1645 13.3349 18.1482C13.9331 18.1636 14.5255 18.0273 15.057 17.7522C15.5413 17.4884 15.9438 17.0966 16.2204 16.6195C16.5236 16.0771 16.691 15.4694 16.7085 14.8483L17.9057 15.5328H9.27058V13.7064H19.0937C19.1209 14.8577 18.8813 15.9998 18.3938 17.0431C17.9591 17.9527 17.2717 18.7179 16.4138 19.2472C15.4955 19.7856 14.4451 20.0567 13.3809 20.03C12.3052 20.0505 11.2401 19.8137 10.2744 19.3393C9.38563 18.9066 8.64063 18.2267 8.12879 17.3811C7.61695 16.5354 7.36002 15.5601 7.38884 14.572C7.36771 13.5541 7.6498 12.5529 8.19925 11.6957C8.75234 10.8614 9.52445 10.1955 10.4309 9.77099C11.449 9.28879 12.5647 9.04821 13.691 9.06803C14.634 9.06957 15.5714 9.21236 16.4721 9.49165Z" fill="#EE6E24"/>
</svg>
