<svg width="270" height="368" viewBox="0 0 270 368" fill="none" xmlns="http://www.w3.org/2000/svg">
<g filter="url(#filter0_b_3628_5373)">
<path d="M101.03 332.722L115.569 88.6755C116.917 66.0649 146.281 52.1071 164.666 65.3378L363.094 208.153C379.19 219.737 374.652 244.145 354.631 253.661L141.664 354.893C121.643 364.409 99.8505 352.518 101.03 332.722Z" fill="white" fill-opacity="0.08"/>
<path d="M101.529 332.751L116.068 88.7052C116.729 77.621 124.261 68.6198 133.943 64.0177C143.625 59.4156 155.361 59.2576 164.374 65.7436L362.802 208.558C370.679 214.227 373.508 223.024 371.915 231.591C370.32 240.166 364.289 248.517 354.417 253.21L141.449 354.441C131.577 359.134 121.293 358.538 113.636 354.361C105.987 350.187 100.952 342.439 101.529 332.751Z" stroke="#EB7424"/>
</g>
<path d="M171.868 143.803L197.294 197.295" stroke="#EB7424" stroke-width="16" stroke-linecap="round" stroke-linejoin="round"/>
<path d="M222.845 251.047L222.721 250.786" stroke="#EB7424" stroke-width="16" stroke-linecap="round" stroke-linejoin="round"/>
<defs>
<filter id="filter0_b_3628_5373" x="76.9844" y="36.2017" width="319.857" height="346.031" filterUnits="userSpaceOnUse" color-interpolation-filters="sRGB">
<feFlood flood-opacity="0" result="BackgroundImageFix"/>
<feGaussianBlur in="BackgroundImageFix" stdDeviation="12"/>
<feComposite in2="SourceAlpha" operator="in" result="effect1_backgroundBlur_3628_5373"/>
<feBlend mode="normal" in="SourceGraphic" in2="effect1_backgroundBlur_3628_5373" result="shape"/>
</filter>
</defs>
</svg>
