<svg width="64" height="65" viewBox="0 0 64 65" fill="none" xmlns="http://www.w3.org/2000/svg">
<path d="M22.6617 53.3454H41.339C39.5748 57.5649 36.2198 60.9199 32.0003 62.6841C27.7808 60.9199 24.4258 57.5649 22.6617 53.3454ZM48.0003 39.4921L53.3337 45.5401V50.6788H10.667V45.5401L16.0003 39.4921V24.0121C16.0003 14.7241 22.6777 6.82009 32.0003 3.89209C41.323 6.82009 48.0003 14.7241 48.0003 24.0121V39.4921ZM32.0003 29.3454C33.4148 29.3454 34.7714 28.7835 35.7716 27.7833C36.7718 26.7831 37.3337 25.4266 37.3337 24.0121C37.3337 22.5976 36.7718 21.241 35.7716 20.2409C34.7714 19.2407 33.4148 18.6788 32.0003 18.6788C30.5858 18.6788 29.2293 19.2407 28.2291 20.2409C27.2289 21.241 26.667 22.5976 26.667 24.0121C26.667 25.4266 27.2289 26.7831 28.2291 27.7833C29.2293 28.7835 30.5858 29.3454 32.0003 29.3454Z" fill="#EE6E24"/>
</svg>
