<svg width="36" height="36" viewBox="0 0 36 36" fill="none" xmlns="http://www.w3.org/2000/svg">
<g filter="url(#filter0_d_3321_7670)">
<path d="M10.5 6V30H25.5V6H10.5ZM9 3H27C27.3978 3 27.7794 3.15804 28.0607 3.43934C28.342 3.72064 28.5 4.10218 28.5 4.5V31.5C28.5 31.8978 28.342 32.2794 28.0607 32.5607C27.7794 32.842 27.3978 33 27 33H9C8.60218 33 8.22064 32.842 7.93934 32.5607C7.65804 32.2794 7.5 31.8978 7.5 31.5V4.5C7.5 4.10218 7.65804 3.72064 7.93934 3.43934C8.22064 3.15804 8.60218 3 9 3ZM18 25.5C18.3978 25.5 18.7794 25.658 19.0607 25.9393C19.342 26.2206 19.5 26.6022 19.5 27C19.5 27.3978 19.342 27.7794 19.0607 28.0607C18.7794 28.342 18.3978 28.5 18 28.5C17.6022 28.5 17.2206 28.342 16.9393 28.0607C16.658 27.7794 16.5 27.3978 16.5 27C16.5 26.6022 16.658 26.2206 16.9393 25.9393C17.2206 25.658 17.6022 25.5 18 25.5Z" fill="url(#paint0_linear_3321_7670)" shape-rendering="crispEdges"/>
</g>
<defs>
<filter id="filter0_d_3321_7670" x="7" y="2.75" width="22" height="31" filterUnits="userSpaceOnUse" color-interpolation-filters="sRGB">
<feFlood flood-opacity="0" result="BackgroundImageFix"/>
<feColorMatrix in="SourceAlpha" type="matrix" values="0 0 0 0 0 0 0 0 0 0 0 0 0 0 0 0 0 0 127 0" result="hardAlpha"/>
<feOffset dy="0.25"/>
<feGaussianBlur stdDeviation="0.25"/>
<feComposite in2="hardAlpha" operator="out"/>
<feColorMatrix type="matrix" values="0 0 0 0 0 0 0 0 0 0 0 0 0 0 0 0 0 0 0.2 0"/>
<feBlend mode="normal" in2="BackgroundImageFix" result="effect1_dropShadow_3321_7670"/>
<feBlend mode="normal" in="SourceGraphic" in2="effect1_dropShadow_3321_7670" result="shape"/>
</filter>
<linearGradient id="paint0_linear_3321_7670" x1="18" y1="3" x2="18" y2="33" gradientUnits="userSpaceOnUse">
<stop stop-color="white"/>
<stop offset="1" stop-color="white" stop-opacity="0.7"/>
</linearGradient>
</defs>
</svg>
