<svg width="34" height="34" viewBox="0 0 34 34" fill="none" xmlns="http://www.w3.org/2000/svg">
<path d="M17.6087 19.2767L20.567 20.985C18.8009 24.8967 18.6152 29.3396 20.0487 33.385C19.0429 33.5732 18.0219 33.6675 16.9987 33.6667C14.6371 33.6705 12.3018 33.1705 10.1487 32.2001L17.6087 19.2767V19.2767ZM23.4704 22.6634L30.527 26.7367C28.6889 29.2881 26.1686 31.2695 23.2554 32.4534C22.1458 29.4576 22.1506 26.1627 23.2687 23.17L23.4704 22.6634V22.6634ZM11.7654 15.9034L14.7237 17.6101L7.2637 30.5267C4.5042 28.5392 2.41682 25.757 1.28036 22.5517C5.30757 21.808 8.91876 19.6045 11.422 16.3634L11.7654 15.9034V15.9034ZM33.5087 14.6934C33.6137 15.4484 33.667 16.2184 33.667 17.0001C33.6708 19.3617 33.1708 21.697 32.2004 23.8501L25.1404 19.775C27.1281 17.1516 30.0174 15.3578 33.2504 14.7401L33.5087 14.6934V14.6934ZM1.80036 10.1517L8.8587 14.2267C6.81601 16.9224 3.82413 18.7398 0.490365 19.31C0.384839 18.5446 0.331937 17.7728 0.332031 17.0001C0.332031 14.5584 0.857032 12.2401 1.7987 10.1501L1.80036 10.1517ZM26.7354 3.47172C29.4949 5.45926 31.5822 8.24147 32.7187 11.4467C28.6908 12.1919 25.0792 14.3965 22.5754 17.6384L22.2337 18.0984L19.2754 16.39L26.7354 3.47339V3.47172ZM16.9987 0.333386C19.4404 0.333386 21.7587 0.858386 23.8487 1.80005L16.3887 14.7234L13.4304 13.0167C15.1973 9.10409 15.3831 4.65979 13.9487 0.613386C14.9545 0.4259 15.9756 0.332165 16.9987 0.333386V0.333386ZM10.7437 1.55005C11.8515 4.54638 11.8456 7.84106 10.727 10.8334L10.527 11.3384L3.47036 7.26339C5.23743 4.81168 7.63572 2.88452 10.4104 1.68672L10.7437 1.54839V1.55005Z" fill="url(#paint0_linear_623_476)"/>
<defs>
<linearGradient id="paint0_linear_623_476" x1="16.9995" y1="0.333374" x2="16.9995" y2="33.6667" gradientUnits="userSpaceOnUse">
<stop stop-color="white"/>
<stop offset="1" stop-color="white" stop-opacity="0.7"/>
</linearGradient>
</defs>
</svg>
