<svg width="34" height="34" viewBox="0 0 34 34" fill="none" xmlns="http://www.w3.org/2000/svg">
<path d="M20.332 30.3334H13.6654V33.6667H10.332V30.3334H5.33203C4.89 30.3334 4.46608 30.1578 4.15352 29.8452C3.84096 29.5327 3.66536 29.1087 3.66536 28.6667V23.6667H0.332031V20.3334H3.66536V13.6667H0.332031V10.3334H3.66536V5.33337C3.66536 4.89135 3.84096 4.46742 4.15352 4.15486C4.46608 3.8423 4.89 3.66671 5.33203 3.66671H10.332V0.333374H13.6654V3.66671H20.332V0.333374H23.6654V3.66671H28.6654C29.1074 3.66671 29.5313 3.8423 29.8439 4.15486C30.1564 4.46742 30.332 4.89135 30.332 5.33337V10.3334H33.6654V13.6667H30.332V20.3334H33.6654V23.6667H30.332V28.6667C30.332 29.1087 30.1564 29.5327 29.8439 29.8452C29.5313 30.1578 29.1074 30.3334 28.6654 30.3334H23.6654V33.6667H20.332V30.3334ZM8.66536 8.66671V15.3334H15.332V8.66671H8.66536Z" fill="url(#paint0_linear_623_479)"/>
<defs>
<linearGradient id="paint0_linear_623_479" x1="16.9987" y1="0.333374" x2="16.9987" y2="33.6667" gradientUnits="userSpaceOnUse">
<stop stop-color="white"/>
<stop offset="1" stop-color="white" stop-opacity="0.7"/>
</linearGradient>
</defs>
</svg>
